<svg width="512" height="512" viewBox="0 0 512 512" fill="none" xmlns="http://www.w3.org/2000/svg">
<g clip-path="url(#clip0_51_20)">
<path fill-rule="evenodd" clip-rule="evenodd" d="M83.7703 348.617C79.0642 353.812 79.4642 361.914 84.6568 366.622C97.5654 378.326 110.474 390.025 123.383 401.726C128.575 406.432 136.674 406.035 141.38 400.837C146.086 395.642 145.689 387.538 140.494 382.832C127.585 371.131 114.679 359.43 101.77 347.728C96.5777 343.022 88.4765 343.422 83.7703 348.617Z" fill="#F3B17B"/>
<path fill-rule="evenodd" clip-rule="evenodd" d="M70.5828 347.538C65.8767 352.736 66.2767 360.837 71.4692 365.546C84.3779 377.247 97.2865 388.946 110.195 400.649C115.388 405.356 123.489 404.956 128.193 399.76C132.899 394.563 132.501 386.462 127.306 381.753C114.398 370.052 101.491 358.353 88.5828 346.652C83.3902 341.943 75.2915 342.343 70.5828 347.538Z" fill="#F8BC84"/>
<path fill-rule="evenodd" clip-rule="evenodd" d="M188.328 371.926C195.896 371.479 202.427 376.78 202.837 383.709C203.244 390.637 197.387 396.672 189.82 397.119L112.546 401.694C104.975 402.141 98.4467 396.84 98.0369 389.914V389.911C97.627 382.985 103.486 376.948 111.054 376.501L188.328 371.926Z" fill="#FEC88E"/>
<path fill-rule="evenodd" clip-rule="evenodd" d="M186.212 382.405L250.022 385.257L252.79 512.012H190.812L186.212 382.405Z" fill="#FEC88E"/>
<path fill-rule="evenodd" clip-rule="evenodd" d="M325.59 382.405L261.778 385.257L259.012 512.012H320.988L325.59 382.405Z" fill="#FEC88E"/>
<path fill-rule="evenodd" clip-rule="evenodd" d="M428.027 348.617H428.03C432.736 353.812 432.336 361.914 427.143 366.622C414.234 378.326 401.328 390.025 388.42 401.726C383.225 406.432 375.126 406.035 370.42 400.837C365.713 395.642 366.111 387.538 371.306 382.832C384.215 371.131 397.123 359.43 410.03 347.728C415.225 343.022 423.323 343.422 428.027 348.617Z" fill="#F3B17B"/>
<path fill-rule="evenodd" clip-rule="evenodd" d="M441.217 347.538C445.923 352.736 445.523 360.837 440.328 365.546C427.422 377.247 414.513 388.946 401.607 400.649C396.412 405.356 388.313 404.956 383.607 399.76C378.901 394.563 379.301 386.462 384.494 381.753C397.402 370.052 410.311 358.353 423.217 346.652C428.412 341.943 436.508 342.343 441.217 347.538Z" fill="#F8BC84"/>
<path fill-rule="evenodd" clip-rule="evenodd" d="M302.553 391.565C293.348 392.812 286.701 400.348 287.78 408.314C288.857 416.277 297.269 421.773 306.472 420.526L400.432 407.793C409.637 406.546 416.284 399.01 415.208 391.044C414.129 383.081 405.716 377.585 396.511 378.835L302.553 391.565Z" fill="#FEC88E"/>
<path fill-rule="evenodd" clip-rule="evenodd" d="M193.849 213.469C216.896 221.279 233.524 243.459 233.524 269.605C233.524 302.264 207.583 328.743 175.583 328.743C143.585 328.743 117.645 302.264 117.645 269.605C117.645 243.459 134.269 221.279 157.316 213.469H193.849Z" fill="#DCDEF0"/>
<path fill-rule="evenodd" clip-rule="evenodd" d="M233.42 266.062C233.487 267.235 233.524 268.415 233.524 269.605C233.524 270.454 233.501 271.299 233.467 272.138H117.701C117.667 271.299 117.645 270.454 117.645 269.605C117.645 268.415 117.679 267.235 117.746 266.062H233.42Z" fill="white"/>
<path fill-rule="evenodd" clip-rule="evenodd" d="M193.85 213.469C216.897 221.279 233.524 243.459 233.524 269.605C233.524 302.264 207.585 328.741 175.588 328.743V213.469H193.85Z" fill="#BFBFBF"/>
<path fill-rule="evenodd" clip-rule="evenodd" d="M233.42 266.062C233.487 267.235 233.524 268.415 233.524 269.605C233.524 270.454 233.501 271.299 233.467 272.138H175.588V266.062H233.42Z" fill="white"/>
<path fill-rule="evenodd" clip-rule="evenodd" d="M156.756 288.049C157.825 288.049 158.701 288.943 158.701 290.037V342.222H154.808V290.037C154.808 288.943 155.684 288.049 156.756 288.049Z" fill="#FFCC00"/>
<path fill-rule="evenodd" clip-rule="evenodd" d="M194.412 288.049C195.484 288.049 196.358 288.943 196.358 290.037V342.222H192.467V290.037C192.467 288.943 193.341 288.049 194.412 288.049Z" fill="#EDB91D"/>
<path fill-rule="evenodd" clip-rule="evenodd" d="M117.988 274.38C119.059 274.38 119.936 275.274 119.936 276.368V342.222H116.042V276.368C116.042 275.274 116.919 274.38 117.988 274.38Z" fill="#FFCC00"/>
<path fill-rule="evenodd" clip-rule="evenodd" d="M231.575 274.38C232.647 274.38 233.523 275.274 233.523 276.368V342.222H229.629V276.368C229.629 275.274 230.506 274.38 231.575 274.38Z" fill="#EDB91D"/>
<path d="M168.81 342.222C168.272 342.222 167.834 341.778 167.834 341.23V213.736C167.834 213.188 168.272 212.743 168.81 212.743C169.346 212.743 169.783 213.188 169.783 213.736V221.795H181.385V213.736C181.385 213.188 181.82 212.743 182.358 212.743C182.896 212.743 183.331 213.188 183.331 213.736V341.23C183.331 341.778 182.896 342.222 182.358 342.222C178.027 342.222 173.178 342.222 168.81 342.222ZM169.783 223.783V231.647H181.385V223.783H169.783ZM169.783 233.632V241.496H181.385V233.632H169.783ZM169.783 243.482V251.346H181.385V243.482H169.783ZM169.783 253.333V261.198H181.385V253.333H169.783ZM169.783 263.185V271.047H181.385V263.185H169.783ZM169.783 273.035V280.896H181.385V273.035H169.783ZM169.783 282.884V290.748H181.385V282.884H169.783ZM169.783 292.736V300.598H181.385V292.736H169.783ZM169.783 302.585V310.449H181.385V302.585H169.783ZM169.783 312.437V320.301H181.385V312.437H169.783ZM169.783 322.286V330.151H181.385V322.286H169.783ZM169.783 332.138V340H181.385V332.138H169.783Z" fill="#CCCCCC"/>
<path d="M175.588 221.795H181.385V213.736C181.385 213.188 181.82 212.743 182.358 212.743C182.897 212.743 183.331 213.188 183.331 213.736V341.23C183.331 341.778 182.897 342.222 182.358 342.222H175.588V340H181.385V332.138H175.588V330.151H181.385V322.286H175.588V320.301H181.385V312.437H175.588V310.449H181.385V302.585H175.588V300.598H181.385V292.736H175.588V290.748H181.385V282.884H175.588V280.896H181.385V273.035H175.588V271.047H181.385V263.185H175.588V261.198H181.385V253.333H175.588V251.346H181.385V243.482H175.588V241.496H181.385V233.632H175.588V231.647H181.385V223.783H175.588V221.795Z" fill="#CCCCCC"/>
<path d="M166.696 213.469H193.306C193.459 213.469 193.6 213.435 193.728 213.37L193.748 213.361C194.064 213.198 194.279 212.862 194.279 212.477V212.449C194.279 207.862 194.279 203.215 194.279 198.644C194.279 198.096 193.844 197.652 193.306 197.652H157.859C157.323 197.652 156.886 198.096 156.886 198.644C156.886 203.215 156.886 207.862 156.886 212.449V212.477C156.886 212.862 157.104 213.198 157.417 213.361L157.439 213.37C157.565 213.435 157.708 213.469 157.859 213.469H166.696ZM167.696 211.484V199.64H174.61V211.484H167.696ZM165.748 199.64V211.484H158.834V199.64H165.748ZM192.333 199.64V211.484H185.417V199.64H192.333ZM176.558 199.64H183.471V211.484H176.558V199.64Z" fill="#CCCCCC"/>
<path d="M175.588 213.469H193.306C193.459 213.469 193.6 213.435 193.729 213.37L193.748 213.361C194.064 213.198 194.279 212.862 194.279 212.477V212.449C194.279 207.862 194.279 203.215 194.279 198.644C194.279 198.096 193.845 197.652 193.306 197.652H175.588V213.469ZM192.334 199.64V211.484H185.418V199.64H192.334ZM176.558 199.64H183.472V211.484H176.558V199.64Z" fill="#CCCCCC"/>
<path fill-rule="evenodd" clip-rule="evenodd" d="M246.23 170.536H250.146L255.521 342.222H240.852L246.23 170.536Z" fill="#DEDEDE"/>
<path fill-rule="evenodd" clip-rule="evenodd" d="M250.146 170.536H248.185V342.222H255.521L250.146 170.536Z" fill="white"/>
<path fill-rule="evenodd" clip-rule="evenodd" d="M263.822 96.5432L248.563 166.598C234.59 164.089 260.775 95.4173 263.822 96.5432Z" fill="#DEDEDE"/>
<path fill-rule="evenodd" clip-rule="evenodd" d="M263.822 96.5432L248.563 166.598C262.262 170.365 267.047 96.8395 263.822 96.5432Z" fill="white"/>
<path fill-rule="evenodd" clip-rule="evenodd" d="M300.375 215.119L248.568 166.605C257.681 155.506 302.854 212.988 300.375 215.119Z" fill="white"/>
<path fill-rule="evenodd" clip-rule="evenodd" d="M300.375 215.119L248.568 166.605C238.518 176.827 298.511 217.82 300.375 215.119Z" fill="#DEDEDE"/>
<path fill-rule="evenodd" clip-rule="evenodd" d="M181.491 188.141L248.56 166.603C253.417 180.207 182.062 191.398 181.491 188.141Z" fill="white"/>
<path fill-rule="evenodd" clip-rule="evenodd" d="M181.491 188.141L248.561 166.602C244.909 152.607 180.131 185.141 181.491 188.141Z" fill="#DEDEDE"/>
<path fill-rule="evenodd" clip-rule="evenodd" d="M252.398 159.304C256.072 161.469 257.331 166.264 255.21 170.015C253.089 173.765 248.39 175.049 244.716 172.884C241.042 170.718 239.783 165.923 241.906 162.175C244.027 158.422 248.724 157.138 252.398 159.304Z" fill="#C0C1D3"/>
<path fill-rule="evenodd" clip-rule="evenodd" d="M309.649 104.156H315.076L322.533 342.222H302.192L309.649 104.156Z" fill="#DEDEDE"/>
<path fill-rule="evenodd" clip-rule="evenodd" d="M315.076 104.156H312.363V342.222H322.533L315.076 104.156Z" fill="white"/>
<path fill-rule="evenodd" clip-rule="evenodd" d="M334.044 1.55559L312.889 98.6939C293.511 95.2149 329.82 -0.00490201 334.044 1.55559Z" fill="#DEDEDE"/>
<path fill-rule="evenodd" clip-rule="evenodd" d="M334.044 1.55554L312.889 98.6938C331.881 103.923 338.518 1.97036 334.044 1.55554Z" fill="white"/>
<path fill-rule="evenodd" clip-rule="evenodd" d="M384.731 165.975L312.889 98.7037C325.528 83.316 388.165 163.02 384.731 165.975Z" fill="white"/>
<path fill-rule="evenodd" clip-rule="evenodd" d="M384.731 165.975L312.889 98.7037C298.958 112.879 382.143 169.721 384.731 165.975Z" fill="#DEDEDE"/>
<path fill-rule="evenodd" clip-rule="evenodd" d="M219.881 128.57L312.879 98.7037C319.615 117.568 220.671 133.084 219.881 128.57Z" fill="white"/>
<path fill-rule="evenodd" clip-rule="evenodd" d="M219.881 128.57L312.879 98.7037C307.82 79.2963 217.995 124.41 219.881 128.57Z" fill="#DEDEDE"/>
<path fill-rule="evenodd" clip-rule="evenodd" d="M318.205 88.5802C323.299 91.5827 325.042 98.2346 322.101 103.435C319.16 108.632 312.647 110.415 307.551 107.412C302.457 104.41 300.711 97.7605 303.654 92.5605C306.595 87.3605 313.109 85.5802 318.205 88.5802Z" fill="#C0C1D3"/>
<path fill-rule="evenodd" clip-rule="evenodd" d="M387.59 170.536H391.504L396.882 342.222H382.212L387.59 170.536Z" fill="#DEDEDE"/>
<path fill-rule="evenodd" clip-rule="evenodd" d="M391.504 170.536H389.546V342.222H396.882L391.504 170.536Z" fill="white"/>
<path fill-rule="evenodd" clip-rule="evenodd" d="M405.183 96.5432L389.926 166.598C375.951 164.089 402.136 95.4173 405.183 96.5432Z" fill="#DEDEDE"/>
<path fill-rule="evenodd" clip-rule="evenodd" d="M405.183 96.5432L389.926 166.598C403.622 170.365 408.41 96.8395 405.183 96.5432Z" fill="white"/>
<path fill-rule="evenodd" clip-rule="evenodd" d="M441.733 215.119L389.926 166.605C399.039 155.506 444.212 212.988 441.733 215.119Z" fill="white"/>
<path fill-rule="evenodd" clip-rule="evenodd" d="M441.733 215.119L389.926 166.605C379.879 176.827 439.872 217.82 441.733 215.119Z" fill="#DEDEDE"/>
<path fill-rule="evenodd" clip-rule="evenodd" d="M322.852 188.141L389.919 166.603C394.778 180.207 323.42 191.398 322.852 188.141Z" fill="white"/>
<path fill-rule="evenodd" clip-rule="evenodd" d="M322.852 188.141L389.918 166.602C386.269 152.607 321.491 185.141 322.852 188.141Z" fill="#DEDEDE"/>
<path fill-rule="evenodd" clip-rule="evenodd" d="M393.758 159.304C397.432 161.469 398.691 166.264 396.57 170.015C394.449 173.765 389.75 175.049 386.076 172.884C382.402 170.718 381.143 165.923 383.264 162.175C385.385 158.422 390.084 157.138 393.758 159.304Z" fill="#C0C1D3"/>
<path fill-rule="evenodd" clip-rule="evenodd" d="M101.753 307.615L101.8 327.111L105.254 323.6C97.0689 307.044 124.303 303.699 128.565 304.173C129.037 308.605 125.627 337.39 108.59 327.449L101.817 334.331L101.834 342.222H96.8097L96.7899 334.368L89.9825 327.449C72.9455 337.39 69.5331 308.605 70.0072 304.173C74.2689 303.699 101.501 307.044 93.3183 323.6L96.7726 327.111L96.7257 307.59C78.7084 302.03 95.9158 279.644 99.2862 276.879C102.662 279.649 119.921 302.104 101.753 307.615Z" fill="#489B6D"/>
<path fill-rule="evenodd" clip-rule="evenodd" d="M101.753 307.615L101.8 327.111L105.255 323.6C97.0693 307.044 124.304 303.699 128.566 304.173C129.037 308.605 125.627 337.39 108.59 327.449L101.817 334.331L101.835 342.222H99.2891V276.881C102.674 279.662 119.916 302.104 101.753 307.615Z" fill="#ACEC00"/>
<path fill-rule="evenodd" clip-rule="evenodd" d="M298.723 217.444L298.094 285.291L342.262 298.163C342.126 312.746 342.104 327.222 342.084 341.768H351.896C351.913 328.17 351.928 314.595 352.054 301.017L396.22 313.889L396.847 246.042L298.723 217.444Z" fill="#DCDEF0"/>
<path fill-rule="evenodd" clip-rule="evenodd" d="M303.356 222.785L331.607 231.02L331.338 259.931L303.086 251.696L303.356 222.785Z" fill="#A9A9A9"/>
<path fill-rule="evenodd" clip-rule="evenodd" d="M361.876 239.84L333.622 231.607L333.355 260.519L361.607 268.751L361.876 239.84Z" fill="#A9A9A9"/>
<path fill-rule="evenodd" clip-rule="evenodd" d="M392.141 248.662L363.889 240.427L363.622 269.338L391.874 277.573L392.141 248.662Z" fill="#A9A9A9"/>
<path fill-rule="evenodd" clip-rule="evenodd" d="M302.802 282.672L331.054 290.904L331.321 261.993L303.069 253.758L302.802 282.672Z" fill="#A9A9A9"/>
<path fill-rule="evenodd" clip-rule="evenodd" d="M361.321 299.726L333.069 291.491L333.336 262.58L361.588 270.815L361.321 299.726Z" fill="#A9A9A9"/>
<path fill-rule="evenodd" clip-rule="evenodd" d="M391.585 308.546L363.333 300.311L363.603 271.4L391.854 279.635L391.585 308.546Z" fill="#A9A9A9"/>
<path fill-rule="evenodd" clip-rule="evenodd" d="M331.383 255.373L331.338 259.931L326.077 258.395C327.778 257.326 329.548 256.316 331.383 255.373Z" fill="#CCCCCC"/>
<path fill-rule="evenodd" clip-rule="evenodd" d="M333.41 254.365L333.355 260.519L361.607 268.751L361.81 246.822C351.476 247.711 341.832 250.356 333.41 254.365Z" fill="#CCCCCC"/>
<path fill-rule="evenodd" clip-rule="evenodd" d="M363.829 246.674L363.622 269.338L391.874 277.573L392.136 249.385C385.321 247.583 378.027 246.568 370.432 246.496C368.207 246.474 366.005 246.536 363.829 246.674Z" fill="#CCCCCC"/>
<path fill-rule="evenodd" clip-rule="evenodd" d="M304.239 283.089L331.054 290.904L331.321 261.993L323.891 259.827C314.861 266.012 307.987 274.007 304.239 283.089Z" fill="#CCCCCC"/>
<path fill-rule="evenodd" clip-rule="evenodd" d="M361.321 299.726L333.069 291.491L333.336 262.58L361.588 270.815L361.321 299.726Z" fill="#CCCCCC"/>
<path fill-rule="evenodd" clip-rule="evenodd" d="M391.585 308.546L363.333 300.311L363.603 271.4L391.854 279.635L391.585 308.546Z" fill="#CCCCCC"/>
<path fill-rule="evenodd" clip-rule="evenodd" d="M262.074 239.4L261.674 282.323L289.615 290.467C289.457 307.563 289.499 324.635 289.486 341.768H295.703L295.81 292.272L323.75 300.415L324.145 257.494L262.074 239.4Z" fill="#DCDEF0"/>
<path fill-rule="evenodd" clip-rule="evenodd" d="M265.002 242.783L282.876 247.99L282.706 266.279L264.832 261.072L265.002 242.783Z" fill="#A9A9A9"/>
<path fill-rule="evenodd" clip-rule="evenodd" d="M302.025 253.57L284.148 248.361L283.98 266.652L301.852 271.862L302.025 253.57Z" fill="#A9A9A9"/>
<path fill-rule="evenodd" clip-rule="evenodd" d="M321.17 259.153L303.296 253.943L303.128 272.232L321 277.442L321.17 259.153Z" fill="#A9A9A9"/>
<path fill-rule="evenodd" clip-rule="evenodd" d="M264.652 280.667L282.523 285.874L282.694 267.585L264.822 262.375L264.652 280.667Z" fill="#A9A9A9"/>
<path fill-rule="evenodd" clip-rule="evenodd" d="M301.671 291.454L283.8 286.247L283.97 267.958L301.839 273.165L301.671 291.454Z" fill="#A9A9A9"/>
<path fill-rule="evenodd" clip-rule="evenodd" d="M320.82 297.035L302.946 291.825L303.116 273.536L320.988 278.746L320.82 297.035Z" fill="#A9A9A9"/>
<path fill-rule="evenodd" clip-rule="evenodd" d="M282.734 263.395L282.706 266.279L279.375 265.309C280.452 264.632 281.573 263.993 282.734 263.395Z" fill="#CCCCCC"/>
<path fill-rule="evenodd" clip-rule="evenodd" d="M284.018 262.761L283.98 266.652L301.852 271.862L301.983 257.988C295.445 258.551 289.346 260.222 284.018 262.761Z" fill="#CCCCCC"/>
<path fill-rule="evenodd" clip-rule="evenodd" d="M303.259 257.894L303.128 272.232L321 277.44L321.165 259.61C316.854 258.467 312.24 257.827 307.437 257.78C306.027 257.768 304.635 257.807 303.259 257.894Z" fill="#CCCCCC"/>
<path fill-rule="evenodd" clip-rule="evenodd" d="M265.563 280.931L282.524 285.874L282.694 267.585L277.995 266.215C272.282 270.128 267.933 275.185 265.563 280.931Z" fill="#CCCCCC"/>
<path fill-rule="evenodd" clip-rule="evenodd" d="M301.671 291.454L283.8 286.247L283.97 267.958L301.839 273.165L301.671 291.454Z" fill="#CCCCCC"/>
<path fill-rule="evenodd" clip-rule="evenodd" d="M320.82 297.035L302.946 291.825L303.116 273.536L320.988 278.746L320.82 297.035Z" fill="#CCCCCC"/>
<path fill-rule="evenodd" clip-rule="evenodd" d="M397.101 307.615L397.146 327.111L400.6 323.6C392.417 307.044 419.649 303.699 423.911 304.173C424.385 308.605 420.97 337.39 403.936 327.449L397.163 334.331L397.18 342.222H392.153L392.136 334.368L385.328 327.449C368.291 337.39 364.881 308.605 365.353 304.173C369.615 303.699 396.847 307.044 388.662 323.6L392.118 327.111L392.074 307.59C374.052 302.03 391.262 279.644 394.632 276.879C398.007 279.649 415.267 302.104 397.101 307.615Z" fill="#489B6D"/>
<path fill-rule="evenodd" clip-rule="evenodd" d="M397.101 307.615L397.146 327.111L400.6 323.6C392.417 307.044 419.65 303.699 423.911 304.173C424.385 308.605 420.971 337.39 403.936 327.449L397.163 334.331L397.18 342.222H394.635V276.881C398.017 279.662 415.262 302.104 397.101 307.615Z" fill="#ACEC00"/>
<path fill-rule="evenodd" clip-rule="evenodd" d="M125.494 142.919C126.071 142.919 126.632 142.99 127.168 143.121C127.254 138.077 131.286 134.015 136.249 134.015C136.548 134.015 136.842 134.032 137.131 134.059C137.079 133.481 137.049 132.899 137.049 132.311C137.049 122.109 145.151 113.837 155.146 113.837C162.573 113.837 168.955 118.405 171.743 124.938C173.6 124.007 175.689 123.481 177.896 123.481C184.439 123.481 189.933 128.081 191.439 134.286C191.951 134.19 192.474 134.143 193.012 134.143C197.827 134.143 201.733 138.128 201.733 143.044C201.733 144.072 201.56 145.059 201.247 145.978C201.921 145.694 202.659 145.541 203.432 145.541C206.615 145.541 209.197 148.175 209.197 151.425C209.197 154.674 206.615 157.309 203.432 157.309C184.002 157.309 147.499 157.309 125.494 157.309C121.6 157.309 118.444 154.086 118.444 150.114C118.444 146.138 121.6 142.919 125.494 142.919Z" fill="#DEDEDE"/>
<path fill-rule="evenodd" clip-rule="evenodd" d="M90.6767 373.049C214.882 396.217 326.158 394.486 421.124 373.049C424.361 372.321 427.166 351.59 427.166 348.267C427.166 344.943 424.447 342.222 421.124 342.222H90.6767C87.3557 342.222 84.6372 344.943 84.6372 348.267C84.6372 351.58 87.4175 372.442 90.6767 373.049Z" fill="#489B6D"/>
<path fill-rule="evenodd" clip-rule="evenodd" d="M426.326 345.244C425.245 343.44 423.232 342.222 420.941 342.222H90.8593C88.5679 342.222 86.5556 343.44 85.4766 345.244C86.5556 347.047 88.5679 348.267 90.8593 348.267H420.941C423.232 348.267 425.245 347.047 426.326 345.244Z" fill="#ACEC00"/>
<path fill-rule="evenodd" clip-rule="evenodd" d="M179.499 375.331L178.555 361.694C177.444 345.62 189.323 334.202 204.953 336.321L218.615 338.17C234.247 340.289 247.941 355.173 249.052 371.247L249.995 384.884C251.106 400.956 239.225 412.375 223.597 410.257L209.933 408.405C194.304 406.286 180.607 391.405 179.499 375.331Z" fill="#FEC88E"/>
<path fill-rule="evenodd" clip-rule="evenodd" d="M128.156 341.864C127.242 349.684 132.886 356.847 140.704 357.746L200.627 364.622C208.447 365.521 215.588 359.886 216.501 352.069C217.415 344.247 211.77 337.084 203.953 336.188L144.03 329.309C136.21 328.412 129.069 334.044 128.156 341.864Z" fill="#FEC88E"/>
<path fill-rule="evenodd" clip-rule="evenodd" d="M138.476 352.674C135.425 349.886 133.743 346.047 134.279 342.091C134.812 338.141 137.454 334.886 141.136 333.01L147.123 333.822C153.499 334.686 158.113 339.815 157.383 345.222V345.225C156.649 350.632 150.837 354.348 144.462 353.484L138.476 352.674Z" fill="#FED3A3"/>
<path fill-rule="evenodd" clip-rule="evenodd" d="M209.249 391.565C218.452 392.812 225.099 400.348 224.022 408.314C222.943 416.277 214.531 421.773 205.328 420.526L111.368 407.793C102.163 406.546 95.5158 399.01 96.5948 391.044C97.6714 383.081 106.084 377.585 115.289 378.835L209.249 391.565Z" fill="#FEC88E"/>
<path fill-rule="evenodd" clip-rule="evenodd" d="M62.2519 350.59C57.5457 355.788 57.9433 363.889 63.1359 368.598C76.0445 380.296 88.9532 391.997 101.862 403.699C107.057 408.407 115.153 408.005 119.859 402.812V402.81C124.566 397.615 124.168 389.514 118.973 384.805C106.064 373.104 93.1581 361.402 80.2494 349.704C75.0544 344.995 66.9581 345.393 62.2519 350.59Z" fill="#FEC88E"/>
<path fill-rule="evenodd" clip-rule="evenodd" d="M332.304 375.331L333.247 361.694C334.356 345.62 322.477 334.202 306.847 336.321L293.183 338.17C277.556 340.289 263.857 355.173 262.748 371.247L261.805 384.884C260.696 400.956 272.573 412.375 288.205 410.257L301.867 408.405C317.496 406.286 331.193 391.405 332.304 375.331Z" fill="#FEC88E"/>
<path fill-rule="evenodd" clip-rule="evenodd" d="M449.553 350.59C454.254 355.788 453.859 363.889 448.664 368.598C435.758 380.296 422.847 391.997 409.941 403.699C404.746 408.407 396.647 408.005 391.941 402.812V402.81C387.235 397.615 387.635 389.514 392.827 384.805C405.736 373.104 418.644 361.402 431.551 349.704C436.746 344.995 444.847 345.393 449.553 350.59Z" fill="#FEC88E"/>
<path fill-rule="evenodd" clip-rule="evenodd" d="M323.472 371.926C315.901 371.479 309.375 376.78 308.963 383.709C308.555 390.637 314.412 396.672 321.98 397.119L399.257 401.694C406.825 402.141 413.353 396.84 413.763 389.914V389.911C414.173 382.985 408.316 376.948 400.746 376.501L323.472 371.926Z" fill="#FEC88E"/>
<path fill-rule="evenodd" clip-rule="evenodd" d="M383.644 341.864C384.558 349.684 378.913 356.847 371.094 357.746L311.17 364.622C303.353 365.521 296.212 359.886 295.299 352.069C294.385 344.247 300.032 337.084 307.849 336.188L367.77 329.309C375.59 328.412 382.731 334.044 383.644 341.864Z" fill="#FEC88E"/>
<path fill-rule="evenodd" clip-rule="evenodd" d="M373.326 352.674C376.378 349.886 378.057 346.047 377.524 342.091C376.988 338.141 374.348 334.886 370.662 333.01L364.674 333.822C358.301 334.686 353.684 339.815 354.417 345.222V345.225C355.148 350.632 360.963 354.348 367.338 353.484L373.326 352.674Z" fill="#FED3A3"/>
</g>
<defs>
<clipPath id="clip0_51_20">
<rect width="512" height="512" fill="white"/>
</clipPath>
</defs>
</svg>
