<svg width="512" height="512" viewBox="0 0 512 512" fill="none" xmlns="http://www.w3.org/2000/svg">
<path d="M256 512C397.385 512 512 397.385 512 256C512 114.615 397.385 0 256 0C114.615 0 0 114.615 0 256C0 397.385 114.615 512 256 512Z" fill="#FFCF40"/>
<path d="M364 84V82C364 77.6 362.4 76 358 76H310C305.6 76 300 77.6 300 82V84.048V86.096V98C300 102.4 298.4 108 294 108H288L276 84V82C276 77.6 274.4 76 270 76H258H238C233.6 76 228 77.6 228 82V84.048V86.096V98C228 102.4 226.4 108 222 108H216L204 84V82C204 77.6 202.4 76 198 76H186H146C141.6 76 136 77.6 136 82V84.048V86.096V150V152L180 264V340V340.148C171.86 340.868 164 345.868 164 354V356.048V358.096V380H154C145.2 380 136 385.2 136 394V396.048V398.096V436L157.98 492.524C188.176 505.056 221.272 512 256 512C353.452 512 438.172 457.54 481.42 377.4L364 84Z" fill="#FFBF00"/>
<path d="M336 160V178C336 182.4 334.4 188 330 188H178C173.6 188 168 182.4 168 178V160H336Z" fill="#BF9B30"/>
<path d="M320 160V178C320 182.4 318.4 188 314 188H330C334.4 188 336 182.4 336 178V160H320Z" fill="#8B7122"/>
<path d="M324 188H180V340H324V188Z" fill="#FFDC73"/>
<path d="M324 188H308V340H324V188Z" fill="#D6B962"/>
<path d="M310 76C305.6 76 300 77.6 300 82V98C300 102.4 298.4 108 294 108H286C281.6 108 276 102.4 276 98V82C276 77.6 274.4 76 270 76H238C233.6 76 228 77.6 228 82V98C228 102.4 226.4 108 222 108H214C209.6 108 204 102.4 204 98V82C204 77.6 202.4 76 198 76H146C141.6 76 136 77.6 136 82V150C136 154.4 141.6 160 146 160H358C362.4 160 364 154.4 364 150V82C364 77.6 362.4 76 358 76H310Z" fill="#A67C00"/>
<path d="M264 82V98C264 102.4 269.6 108 274 108H282C282.696 108 282.356 106.884 283 106.716C279.572 105.816 276 101.708 276 98V82C276 77.6 274.4 76 270 76H258C262.4 76 264 77.6 264 82Z" fill="#6D5200"/>
<path d="M192 82V98C192 102.4 197.6 108 202 108H210C210.696 108 210.356 106.884 211 106.716C207.572 105.816 204 101.708 204 98V82C204 77.6 202.4 76 198 76H186C190.4 76 192 77.6 192 82Z" fill="#6D5200"/>
<path d="M364 82C364 78.684 361.312 76 358 76C354.688 76 352 78.684 352 82V154C352 157.316 354.688 160 358 160C361.312 160 364 157.316 364 154V82Z" fill="#6D5200"/>
<path d="M340 380V354C340 345.2 334.8 340 326 340H182C173.2 340 164 345.2 164 354V380H340Z" fill="#BF9B30"/>
<path d="M326 340H310C318.8 340 324 345.2 324 354V380H340V354C340 345.2 334.8 340 326 340Z" fill="#8B7122"/>
<path d="M372 436V394C372 385.2 366.8 380 358 380H154C145.2 380 136 385.2 136 394V436H372Z" fill="#A67C00"/>
<path d="M358 380H342C350.8 380 356 385.2 356 394V436H372V394C372 385.2 366.8 380 358 380Z" fill="#6D5200"/>
</svg>
