<svg width="512" height="512" viewBox="0 0 512 512" fill="none" xmlns="http://www.w3.org/2000/svg">
<path d="M451.622 201.778C447.669 199.815 443.022 199.815 439.069 201.78L425.148 208.704C421.98 209.97 419.741 213.059 419.741 216.682V235.23C419.741 238.778 421.891 241.825 424.958 243.136L439.069 250.133C443.022 252.096 447.669 252.096 451.622 250.131L465.543 243.207C468.714 241.943 470.951 238.852 470.951 235.23V216.682C470.951 213.133 468.803 210.091 465.733 208.775L451.622 201.778ZM430.714 294.047C333.042 267.551 390.726 150.022 263.741 171.694C175.775 186.711 193.509 290.074 136.526 291.395C97.9112 292.294 80.7952 356.17 60.9902 388.106C40.652 420.894 2.94333 408.015 0.163086 481.524H510.617C510.617 481.524 528.383 320.541 430.714 294.047ZM401.314 76.7111C400.296 74.3481 401.264 71.6049 403.531 70.395C405.286 69.4642 407.459 69.9753 408.612 71.5926L416.953 83.2815L415.121 58.4197C414.956 56.1506 416.603 54.1481 418.864 53.8815C420.872 53.642 422.773 54.8444 423.412 56.7605L430.304 77.4864L429.859 52.9185C429.815 50.3136 431.748 48.0963 434.338 47.795C436.924 47.4963 439.316 49.2 439.874 51.7407L445.143 75.7309L444.262 54.4345C444.193 52.7876 445.511 51.4197 447.158 51.4296H447.227C448.701 51.4321 449.938 52.4938 450.158 53.9383C451.279 61.4049 454.585 83 454.585 83L456.321 90.9111L463.242 79.1136C464.566 76.8592 467.664 76.479 469.494 78.3407C470.489 79.3531 470.864 80.8247 470.482 82.1926L467.045 94.4346L458.538 112.659L458.353 113.057C457.277 115.346 457.03 117.943 457.657 120.4L472.022 176.783L432.296 185.506L422.894 118.531C422.6 116.435 422.074 114.383 421.316 112.41L418.803 105.847C417.306 101.926 415.388 98.1753 413.084 94.6642L401.314 76.7111Z" fill="#A7CB47"/>
<path d="M219.178 173.195C219.178 173.195 207.692 170.758 205.924 170.758C204.156 170.758 193.852 174.667 193.852 178.79C193.852 182.911 195.617 187.622 196.795 188.797C197.973 189.975 202.687 189.684 204.452 190.862C206.22 192.039 210.672 192.022 210.672 192.022L213.978 183.499C213.978 183.499 218.585 187.622 223.301 187.622C228.013 187.622 230.366 183.795 230.366 183.795L237.003 184.449L234.101 171.227L219.178 173.195ZM152.292 130.215L144.079 136.8C143.687 137.116 143.659 137.701 144.013 138.059C145.141 139.183 146.85 139.499 148.301 138.839L153.946 136.294L154.225 136.674L148.459 142.938C147.998 143.442 148.168 144.244 148.79 144.528C149.459 144.83 150.277 145.143 150.929 145.195C153.092 145.378 155.857 143.175 157.694 141.425L158.269 142.205L153.664 145.064C153 145.479 152.855 146.133 153.363 146.363C153.906 146.615 154.603 146.869 155.232 146.914C156.301 146.988 157.771 146.553 159.292 145.923C159.057 148.21 158.188 151.679 155.161 153.509C150.413 156.38 149.417 158.585 150.637 159.914C151.85 161.234 156.489 157.153 162.338 157.704C168.19 158.254 172.995 155.718 172.995 155.718V142.378L165.321 134.849L152.292 130.215ZM325.775 75.8444C324.193 82.6888 313.546 83.1752 311.316 83.2024H309.943L309.398 89.3851H286.166L288.664 67.511C284.659 65.8468 282.23 60.074 285.869 57.0049C287.447 55.674 288.835 55.511 289.998 55.8641L291.025 46.8666C296.326 29.3481 315.612 35.6592 320.768 41.2543C322.785 43.4469 327.538 68.1901 325.775 75.8444Z" fill="#FFD286"/>
<path d="M328.736 43.2815L324.151 42.5778L321.091 32.4197C320.724 31.1975 319.6 30.3605 318.321 30.3605H296.39C294.99 30.3605 293.788 31.3679 293.541 32.7432L291.025 46.8666H331.808C331.808 45.0765 330.506 43.5555 328.736 43.2815ZM106.198 46.8666H141.449L138.487 37.0395H108.894L106.198 46.8666ZM174.072 441.484H124.353V441.743L109.921 479.17H99.0223L100.106 441.484H50.7285V441.743L36.3013 479.17H25.4026L26.531 439.973L25.3334 421.062H22.2051C23.1804 420.205 24.1779 419.4 25.1804 418.61L9.50382 170.758H18.5409C17.01 170.758 15.61 169.909 14.9063 168.553L10.0569 159.232C8.50382 156.244 8.7532 152.635 10.7088 149.886L74.6569 60.0271C75.7655 58.4691 77.2396 57.2049 78.9507 56.3531L95.4544 48.0987C97.0767 47.2864 98.8643 46.8666 100.679 46.8666H100.896L103.916 35.837C104.506 33.6765 106.469 32.1802 108.711 32.1802H139.148C141.264 32.1802 143.151 33.5185 143.845 35.5185L147.788 46.8666H164.805C169.551 46.8666 173.827 49.7407 175.617 54.1407L179.119 62.7234C180.469 66.0469 180.217 69.8049 178.442 72.9185L131.852 153.143C127.889 159.97 121.449 165.01 113.874 167.222L101.746 170.758H191.198L176.316 405.988H508.63C509.38 411.119 509.966 416.161 510.427 421.062H175.366L174.072 441.484ZM172.995 142.378L228.654 138.847L261.183 97.7185C261.726 96.9259 262.316 96.1704 262.968 95.4667L263.005 95.4247V95.4296C266.484 91.7037 271.435 89.3852 276.894 89.3852H323.578C332.267 89.3852 339.85 95.279 341.995 103.699L342.042 103.889C345.005 115.523 344.282 127.785 339.978 138.993L328.333 179.005C334.98 228.842 338.032 364.047 338.558 389.721C338.608 392.052 336.729 393.961 334.398 393.961H298.753C296.533 393.961 294.699 392.217 294.593 390L282.563 267.353L258.916 387.58C258.022 392.109 253.195 394.677 248.941 392.882L212.961 382.605L246.222 195.368H239.403L234.101 171.227L251.37 166.373L252.827 158.178L238.37 166.225H172.995V142.378Z" fill="#8C8C8C"/>
<path d="M404.17 88.5432C405.661 92.4692 406.731 96.5383 407.358 100.694L408.397 107.64C408.713 109.731 408.79 111.847 408.629 113.953L403.437 181.39H444.111L442.182 123.24C442.096 120.706 442.894 118.222 444.434 116.215L444.703 115.867L456.921 99.8914L462.908 88.6741C463.577 87.4198 463.523 85.9013 462.768 84.6963C461.38 82.4864 458.271 82.1951 456.496 84.1136L447.202 94.1506V86.0568C447.202 86.0568 448.615 64.2494 449.118 56.7161C449.215 55.2593 448.234 53.9581 446.795 53.6371L446.731 53.6222C445.123 53.2618 443.54 54.3185 443.254 55.9358L439.548 76.9284V52.363C439.548 49.763 437.575 47.5852 434.99 47.326C432.395 47.0642 430.029 48.8124 429.516 51.3679L424.674 75.4568L422.387 53.7383C422.177 51.7284 420.58 50.1457 418.568 49.9482C416.301 49.726 414.261 51.3235 413.938 53.5803L410.392 78.2519L404.755 65.0469C403.975 63.2222 401.96 62.2543 400.047 62.7901C397.573 63.484 396.044 65.958 396.526 68.4815L404.17 88.5432ZM430.069 359.8C429.516 359.027 428.908 358.338 428.271 357.699C430.056 351.412 432.577 344.58 438 335.775C446.373 322.188 447.301 325.002 452.368 316.758C457.434 308.516 436.857 300.101 417.775 299.143C400.718 298.289 401.316 300.321 390.721 303.857C380.128 307.388 381.049 319.165 390.721 326.82C397.355 332.067 404.202 350.054 407.852 360.839C407.659 361.156 407.471 361.481 407.294 361.817C401.466 372.773 389.612 392.402 373.459 405.77C349.97 425.202 327.637 461.854 352.733 481.523H496.531C496.531 481.523 504.523 479.17 504.481 465.827C504.392 438.035 445.187 380.918 430.069 359.8ZM284.084 82.2124L279.543 89.1457L291.968 94.1506L293.8 89.3852H299.57L296.879 82.8445L284.084 82.2124ZM309.943 83.2025L309.397 89.3852H313.521L320.059 93.0296L315.573 83.2025H309.943ZM142.78 260.383C142.768 257.044 142.768 253.704 142.78 250.365C142.785 249.993 142.664 249.899 142.308 249.904C140.405 249.916 138.499 249.877 136.597 249.921C135.165 249.956 133.945 249.543 132.871 248.375C132.202 249.677 131.536 250.886 130.968 252.141C130.689 252.748 130.536 253.432 130.447 254.096C130.202 255.884 131.032 257.272 132.254 258.457C133.765 259.916 135.654 260.543 137.691 260.709C139.232 260.835 140.785 260.788 142.336 260.835C142.684 260.844 142.785 260.731 142.78 260.383ZM133.178 223.151C136.084 224.805 138.99 226.477 141.886 228.156C142.153 228.311 142.254 228.267 142.4 228.012C143.442 226.2 144.494 224.395 145.54 222.588C146.002 221.79 146.657 221.2 147.496 220.82C147.79 220.686 148.103 220.593 148.429 220.472C147.745 219.193 147.079 217.923 146.155 216.81C144.392 214.681 142.538 214.156 139.815 215.03C138.205 215.543 136.973 216.617 135.901 217.886C134.723 219.281 133.886 220.896 132.982 222.467C132.79 222.802 132.849 222.963 133.178 223.151ZM160.849 238.978C161.891 240.773 162.921 242.573 163.953 244.378C164.096 244.625 164.229 244.884 164.333 245.153C164.681 246.062 164.597 246.978 164.331 247.958C165.97 247.953 167.563 248.022 169.145 247.686C171.173 247.257 172.513 246.101 173.145 244.111C173.773 242.133 173.545 240.215 172.849 238.309C172.224 236.598 171.19 235.096 170.336 233.504C170.182 233.207 170.039 233.17 169.753 233.336C166.847 235.02 163.933 236.694 161.017 238.358C160.708 238.536 160.679 238.689 160.849 238.978ZM145.703 213.728C147.091 214.481 148.037 215.667 148.807 217C149.785 218.704 150.728 220.422 151.696 222.136C152.481 223.526 153.274 224.914 154.071 226.299C154.229 226.573 154.234 226.738 153.911 226.921C152.797 227.536 151.708 228.19 150.612 228.835C150.479 228.911 150.348 229 150.145 229.128C154.805 230.363 159.385 231.58 163.978 232.8C165.242 228.114 166.479 223.499 167.74 218.817C167.573 218.906 167.466 218.963 167.36 219.025C166.264 219.642 165.168 220.262 164.076 220.881C163.615 221.138 163.597 221.138 163.323 220.669C163.044 220.188 162.753 219.719 162.506 219.222C161.084 216.338 158.965 214.133 156.096 212.672C153.995 211.605 151.765 211.025 149.382 211.025C147.496 211.025 145.637 211.146 143.824 211.716C142.758 212.052 141.733 212.489 140.795 213.121C140.916 213.101 141.042 213.084 141.163 213.059C142.753 212.765 144.274 212.956 145.703 213.728ZM128.402 253.82C128.476 252.351 129.037 251.032 129.765 249.783C131.38 246.995 133.005 244.212 134.627 241.427C134.824 241.084 135.034 240.741 135.259 240.373C136.647 241.185 137.982 241.963 139.316 242.743C139.34 242.723 139.36 242.699 139.385 242.674C138.155 238.03 136.926 233.385 135.684 228.691C131.029 229.938 126.424 231.173 121.713 232.43C121.908 232.548 122.02 232.612 122.133 232.681C123.276 233.346 124.412 234.017 125.558 234.672C125.792 234.805 125.857 234.911 125.703 235.16C125.182 236.022 124.679 236.896 124.173 237.768C123.101 239.615 122.511 241.61 122.34 243.738C122.099 246.753 122.815 249.563 124.158 252.227C125.481 254.84 127.363 256.975 129.827 258.578C129.936 258.647 130.047 258.706 130.155 258.775C128.936 257.323 128.308 255.694 128.402 253.82ZM171.526 248.993C170.222 249.758 168.778 249.96 167.303 249.968C163.711 249.988 160.118 249.973 156.528 249.985C156.168 249.985 156.042 249.879 156.047 249.511C156.066 248.2 156.054 246.889 156.052 245.58C156.052 245.474 156.039 245.365 156.029 245.311C152.644 248.667 149.257 252.025 145.832 255.41C149.237 258.844 152.622 262.264 156.01 265.681C156.042 265.669 156.071 265.654 156.103 265.642C156.103 265.523 156.103 265.402 156.103 265.281C156.103 264.01 156.103 262.736 156.103 261.467C156.103 260.899 156.116 260.904 156.666 260.889C158.2 260.844 159.753 260.921 161.266 260.714C165.415 260.151 168.726 258.064 171.229 254.746C172.718 252.773 173.78 250.551 174.276 248.111C174.479 247.141 174.548 246.141 174.679 245.153C174.647 245.153 174.61 245.151 174.578 245.146C173.958 246.743 173.039 248.109 171.526 248.993ZM216.716 179.654C214.644 179.654 212.96 181.541 212.96 183.859C212.96 184.41 213.061 184.931 213.237 185.412L212.205 188.062H216.716C218.792 188.062 220.471 186.18 220.471 183.859C220.471 181.541 218.792 179.654 216.716 179.654ZM161.299 456.886C161.299 450.462 157.916 445.254 153.74 445.254C149.568 445.254 146.18 450.462 146.18 456.886C146.18 463.306 149.568 468.514 153.74 468.514C157.916 468.514 161.299 463.306 161.299 456.886ZM164.197 441.484C166.689 445.491 168.227 450.906 168.227 456.886C168.227 469.193 161.745 479.17 153.74 479.17C145.738 479.17 139.252 469.193 139.252 456.886C139.252 450.906 140.795 445.491 143.286 441.484H164.197ZM85.6812 456.886C85.6812 450.462 82.2961 445.254 78.1158 445.254C73.9454 445.254 70.5578 450.462 70.5578 456.886C70.5578 463.306 73.9454 468.514 78.1158 468.514C82.2961 468.514 85.6812 463.306 85.6812 456.886ZM88.5726 441.484C91.0664 445.491 92.6072 450.906 92.6072 456.886C92.6072 469.193 86.1208 479.17 78.1158 479.17C70.1158 479.17 63.6294 469.193 63.6294 456.886C63.6294 450.906 65.1701 445.491 67.664 441.484H88.5726ZM374.348 249.677H352.15C351.54 249.677 351.047 249.18 351.047 248.573V200.726C348.311 196.059 345.259 191.711 341.691 187.82V266.479H385.765C381.306 261.19 377.597 255.523 374.348 249.677ZM353.257 204.674V247.469H373.145C365.494 233.119 360.313 217.872 353.257 204.674ZM193.876 179.654C194.059 182.941 195.227 186.4 196.247 188.062H190.103L190.634 179.654H193.876Z" fill="#FAB328"/>
</svg>
