<svg width="46" height="43" viewBox="0 0 46 43" fill="none" xmlns="http://www.w3.org/2000/svg">
<path fill-rule="evenodd" clip-rule="evenodd" d="M40.5632 6L38.0158 8.49015C40.2569 11.1523 41.7145 14.3606 42.2324 17.7709C42.7502 21.1812 42.3088 24.665 40.9554 27.8487C39.6021 31.0325 37.3878 33.7962 34.55 35.8434C31.7122 37.8907 28.358 39.1444 24.8468 39.47C21.3356 39.7957 17.8 39.181 14.619 37.692C11.438 36.2029 8.7315 33.8957 6.78977 31.0175C4.84804 28.1393 3.74427 24.7989 3.5968 21.3542C3.44932 17.9095 4.2637 14.4906 5.95263 11.4639L8.37366 13.8305C7.36455 15.9184 6.84318 18.1995 6.84734 20.5086C6.84734 22.5824 7.26541 24.6358 8.07755 26.5515C8.88969 28.4672 10.08 30.2078 11.5805 31.6736C13.0811 33.1395 14.8624 34.302 16.8227 35.0946C18.783 35.8873 20.8839 36.2945 23.0053 36.2932H23.0684C26.0946 36.2856 29.0577 35.4463 31.6193 33.8711C34.1808 32.296 36.2376 30.0484 37.5549 27.3852C38.8721 24.7219 39.3967 21.7502 39.0687 18.8093C38.7407 15.8685 37.5734 13.0772 35.7 10.7539L33.3631 13.0382C34.7833 14.9019 35.6449 17.1151 35.8516 19.4302C36.0583 21.7453 35.6019 24.0709 34.5335 26.1469C33.4651 28.2228 31.8268 29.9672 29.802 31.1849C27.7772 32.4026 25.4457 33.0455 23.0684 33.0416V33.1136H23.0053C20.6178 33.1175 18.2762 32.4729 16.2417 31.2516C14.2073 30.0304 12.5599 28.2806 11.4835 26.1975C10.4071 24.1144 9.94395 21.7799 10.1457 19.4544C10.3475 17.129 11.2064 14.9041 12.6263 13.0279L5.43685 6C2.60523 9.27362 0.790083 13.2704 0.205363 17.5191C-0.379357 21.7678 0.29073 26.0914 2.13664 29.9802C3.98256 33.8689 6.9273 37.1607 10.6238 39.4675C14.3203 41.7744 18.6145 43 23 43C27.3855 43 31.6797 41.7744 35.3762 39.4675C39.0727 37.1607 42.0174 33.8689 43.8634 29.9802C45.7093 26.0914 46.3794 21.7678 45.7946 17.5191C45.2099 13.2704 43.3948 9.27362 40.5632 6Z" fill="#9E43CF"/>
<path fill-rule="evenodd" clip-rule="evenodd" d="M26.3751 10.8595V3.33311C26.8234 3.33311 27.2533 3.15752 27.5703 2.84498C27.8873 2.53244 28.0654 2.10855 28.0654 1.66656C28.0654 1.22456 27.8873 0.800656 27.5703 0.488116C27.2533 0.175577 26.8234 0 26.3751 0H19.6248C19.1765 0 18.7466 0.175577 18.4296 0.488116C18.1126 0.800656 17.9346 1.22456 17.9346 1.66656C17.9346 2.10855 18.1126 2.53244 18.4296 2.84498C18.7466 3.15752 19.1765 3.33311 19.6248 3.33311V10.8595C17.4079 11.6432 15.5427 13.1733 14.3578 15.18C13.1729 17.1868 12.7444 19.5415 13.1478 21.8293C13.5512 24.117 14.7606 26.191 16.563 27.6857C18.3653 29.1804 20.6449 30 23 30C25.3551 30 27.6347 29.1804 29.437 27.6857C31.2394 26.191 32.4488 24.117 32.8522 21.8293C33.2556 19.5415 32.8271 17.1868 31.6422 15.18C30.4573 13.1733 28.592 11.6432 26.3751 10.8595ZM29.3958 18.4611C28.8942 16.8498 27.7798 15.4924 26.286 14.673C24.7921 13.8536 23.0347 13.6357 21.3816 14.0651C19.7285 14.4944 18.308 15.5377 17.4175 16.9764C16.527 18.4151 16.2356 20.1376 16.6042 21.7834C17.7226 22.0913 18.9039 22.1003 20.0269 21.8093C21.15 21.5183 22.1742 20.9379 22.9945 20.1277C23.8186 19.3193 24.8443 18.7396 25.9682 18.447C27.0921 18.1544 28.2744 18.1593 29.3958 18.4611Z" fill="white"/>
</svg>
