<svg width="1080" height="1080" viewBox="0 0 1080 1080" fill="none" xmlns="http://www.w3.org/2000/svg">
<rect width="1080" height="1080" fill="#202122"/>
<path d="M853.554 957.646C855.241 957.646 856.609 956.279 856.609 954.592C856.609 952.904 855.241 951.537 853.554 951.537C851.867 951.537 850.499 952.904 850.499 954.592C850.499 956.279 851.867 957.646 853.554 957.646Z" fill="white"/>
<path fill-rule="evenodd" clip-rule="evenodd" d="M865.674 954.601C865.678 957.275 864.791 959.873 863.153 961.987L865.338 964.161C867.537 961.459 868.738 958.081 868.738 954.597C868.738 951.112 867.537 947.734 865.338 945.032L863.153 947.207C864.792 949.323 865.679 951.925 865.674 954.601Z" fill="white"/>
<path fill-rule="evenodd" clip-rule="evenodd" d="M869.896 968.729C873.295 964.807 875.166 959.791 875.166 954.601C875.166 949.412 873.295 944.396 869.896 940.474L867.503 942.857C870.273 946.141 871.793 950.3 871.793 954.597C871.793 958.893 870.273 963.052 867.503 966.336L869.896 968.729Z" fill="white"/>
<path fill-rule="evenodd" clip-rule="evenodd" d="M859.565 954.602C859.56 955.644 859.28 956.667 858.754 957.567L860.969 959.782C862.044 958.259 862.621 956.441 862.621 954.577C862.621 952.713 862.044 950.895 860.969 949.372L858.754 951.586C859.289 952.501 859.569 953.542 859.565 954.602Z" fill="white"/>
<path fill-rule="evenodd" clip-rule="evenodd" d="M853.564 972.772C850.786 972.775 848.045 972.143 845.549 970.925C843.053 969.707 840.869 967.935 839.162 965.743C837.456 963.552 836.272 961 835.703 958.281C835.133 955.563 835.192 952.75 835.875 950.058C836.558 947.366 837.848 944.866 839.644 942.748C841.441 940.63 843.698 938.951 846.243 937.838C848.788 936.726 851.553 936.209 854.328 936.329C857.103 936.448 859.814 937.2 862.254 938.526L859.97 940.8C857.524 939.663 854.818 939.199 852.133 939.455C849.447 939.711 846.878 940.678 844.691 942.257C842.504 943.836 840.777 945.97 839.688 948.439C838.6 950.907 838.189 953.621 838.498 956.301C838.807 958.981 839.825 961.53 841.447 963.686C843.07 965.842 845.237 967.526 847.726 968.565C850.216 969.605 852.938 969.962 855.611 969.6C858.284 969.237 860.813 968.169 862.936 966.504L856.322 959.92C855.472 960.37 854.525 960.604 853.564 960.602C852.655 960.603 851.758 960.396 850.94 959.999C850.123 959.602 849.406 959.024 848.844 958.31C848.283 957.595 847.891 956.762 847.698 955.874C847.505 954.986 847.517 954.065 847.732 953.182C847.947 952.299 848.36 951.476 848.939 950.776C849.518 950.075 850.249 949.516 851.077 949.139C851.904 948.763 852.806 948.579 853.715 948.602C854.623 948.626 855.515 948.855 856.322 949.273L858.556 947.048C857.377 946.268 856.03 945.775 854.626 945.609C853.221 945.442 851.797 945.607 850.468 946.091C849.138 946.574 847.94 947.362 846.97 948.391C846 949.42 845.285 950.663 844.881 952.018C844.478 953.374 844.397 954.806 844.647 956.198C844.896 957.59 845.468 958.905 846.317 960.036C847.166 961.168 848.268 962.085 849.535 962.713C850.802 963.342 852.199 963.665 853.613 963.657C854.144 963.653 854.673 963.604 855.195 963.509L857.686 966C855.716 966.71 853.595 966.897 851.531 966.542C849.466 966.188 847.529 965.305 845.908 963.979C844.286 962.653 843.036 960.93 842.279 958.977C841.522 957.024 841.284 954.908 841.589 952.836C841.893 950.764 842.729 948.806 844.015 947.153C845.301 945.5 846.994 944.208 848.928 943.404C850.862 942.6 852.971 942.311 855.05 942.565C857.129 942.819 859.107 943.608 860.791 944.854L867.543 938.101C864.397 935.443 860.557 933.74 856.476 933.192C852.394 932.644 848.241 933.274 844.506 935.008C840.77 936.742 837.609 939.508 835.393 942.979C833.177 946.451 832 950.483 832 954.601C832 958.72 833.177 962.752 835.393 966.223C837.609 969.695 840.77 972.461 844.506 974.195C848.241 975.929 852.394 976.559 856.476 976.011C860.557 975.463 864.397 973.76 867.543 971.102L865.16 968.709C861.883 971.368 857.784 972.804 853.564 972.772Z" fill="#ACEC00"/>
<path d="M892.427 964.251C891.06 964.303 889.698 964.052 888.44 963.515C887.182 962.978 886.058 962.169 885.15 961.146C883.501 959.278 882.618 956.856 882.679 954.364C882.604 951.97 883.45 949.639 885.042 947.849C885.984 946.849 887.133 946.066 888.408 945.554C889.683 945.042 891.054 944.813 892.427 944.883H903.301V948.255H892.427C891.55 948.22 890.676 948.372 889.863 948.701C889.05 949.03 888.316 949.528 887.711 950.163C886.649 951.308 886.044 952.803 886.01 954.364C885.916 955.994 886.458 957.596 887.523 958.833C888.14 959.524 888.904 960.067 889.76 960.422C890.616 960.776 891.541 960.933 892.466 960.879H903.341V964.251H892.427Z" fill="white"/>
<path d="M907.088 964.241V944.883H910.459V964.241H907.088Z" fill="white"/>
<path d="M929.124 964.251H914.364V960.909H929.124C930.082 960.958 931.025 960.663 931.784 960.078C932.067 959.858 932.297 959.576 932.456 959.254C932.616 958.933 932.7 958.579 932.703 958.22C932.706 957.87 932.627 957.524 932.473 957.21C932.318 956.896 932.093 956.622 931.813 956.411C931.036 955.841 930.086 955.558 929.124 955.61H919.96C919.132 955.651 918.303 955.524 917.525 955.237C916.747 954.95 916.035 954.509 915.432 953.939C914.468 952.958 913.928 951.637 913.928 950.261C913.928 948.886 914.468 947.565 915.432 946.584C916.035 946.014 916.747 945.573 917.525 945.286C918.303 944.998 919.132 944.872 919.96 944.913H934.572V948.284H919.96C919.337 948.25 918.726 948.463 918.259 948.877C918.063 949.053 917.907 949.268 917.799 949.508C917.692 949.748 917.636 950.008 917.637 950.271C917.63 950.525 917.678 950.777 917.777 951.011C917.876 951.244 918.023 951.454 918.21 951.626C918.69 952.053 919.319 952.273 919.96 952.239H929.115C930.024 952.2 930.931 952.347 931.781 952.672C932.631 952.997 933.406 953.492 934.058 954.127C934.6 954.676 935.026 955.328 935.313 956.045C935.6 956.761 935.741 957.527 935.728 958.299C935.746 959.062 935.608 959.821 935.325 960.529C935.041 961.238 934.617 961.881 934.077 962.422C933.424 963.052 932.648 963.542 931.798 963.861C930.948 964.181 930.041 964.324 929.134 964.28L929.124 964.251Z" fill="white"/>
<path d="M952.762 964.251H938.002V960.909H952.762C953.719 960.958 954.663 960.663 955.422 960.078C955.705 959.858 955.935 959.576 956.094 959.254C956.254 958.933 956.338 958.579 956.341 958.22C956.344 957.87 956.265 957.524 956.111 957.21C955.956 956.896 955.731 956.622 955.451 956.411C954.674 955.841 953.724 955.558 952.762 955.61H943.608C942.779 955.651 941.951 955.524 941.173 955.237C940.395 954.95 939.683 954.509 939.08 953.939C938.116 952.958 937.576 951.637 937.576 950.261C937.576 948.886 938.116 947.565 939.08 946.584C939.683 946.014 940.395 945.573 941.173 945.286C941.951 944.998 942.779 944.872 943.608 944.913H958.229V948.284H943.608C942.985 948.25 942.374 948.463 941.907 948.877C941.714 949.054 941.56 949.27 941.454 949.51C941.349 949.75 941.294 950.009 941.294 950.271C941.288 950.524 941.336 950.775 941.433 951.008C941.53 951.241 941.675 951.452 941.858 951.626C942.337 952.053 942.966 952.273 943.608 952.239H952.762C953.672 952.197 954.58 952.344 955.43 952.669C956.281 952.993 957.055 953.49 957.706 954.127C958.247 954.676 958.674 955.328 958.961 956.045C959.248 956.761 959.389 957.527 959.376 958.299C959.393 959.061 959.256 959.819 958.974 960.527C958.692 961.235 958.271 961.879 957.735 962.422C957.08 963.05 956.304 963.539 955.454 963.858C954.605 964.178 953.699 964.321 952.792 964.28L952.762 964.251Z" fill="white"/>
<path d="M975.708 946.722C975.367 946.125 974.889 945.617 974.314 945.239C973.93 944.961 973.464 944.818 972.99 944.834C972.538 944.889 972.111 945.067 971.754 945.348C971.218 945.701 970.768 946.171 970.439 946.722L959.93 964.221H964.27L973 949.866L976.371 955.442H971.586L969.529 958.803H978.378L981.66 964.221H986L975.708 946.722Z" fill="white"/>
<g filter="url(#filter0_i_33_660)">
<rect x="382" y="929" width="307" height="51" rx="25.5" fill="#191A1B"/>
<path d="M409.792 963.352C407.381 963.352 405.376 962.552 403.776 960.952C402.176 959.352 401.376 957.368 401.376 955C401.376 952.632 402.176 950.648 403.776 949.048C405.376 947.448 407.381 946.648 409.792 946.648C411.349 946.648 412.757 947.021 414.016 947.768C415.275 948.493 416.192 949.485 416.768 950.744L415.456 951.512C414.987 950.488 414.24 949.677 413.216 949.08C412.213 948.483 411.072 948.184 409.792 948.184C407.872 948.184 406.261 948.845 404.96 950.168C403.659 951.469 403.008 953.08 403.008 955C403.008 956.92 403.659 958.541 404.96 959.864C406.261 961.165 407.872 961.816 409.792 961.816C411.072 961.816 412.213 961.517 413.216 960.92C414.24 960.323 415.019 959.512 415.552 958.488L416.896 959.288C416.256 960.525 415.296 961.517 414.016 962.264C412.757 962.989 411.349 963.352 409.792 963.352ZM428.213 963.352C425.867 963.352 423.872 962.552 422.229 960.952C420.608 959.331 419.797 957.347 419.797 955C419.797 952.653 420.608 950.68 422.229 949.08C423.872 947.459 425.867 946.648 428.213 946.648C430.539 946.648 432.512 947.459 434.133 949.08C435.776 950.68 436.597 952.653 436.597 955C436.597 957.347 435.776 959.331 434.133 960.952C432.512 962.552 430.539 963.352 428.213 963.352ZM423.381 959.832C424.704 961.155 426.315 961.816 428.213 961.816C430.112 961.816 431.712 961.155 433.013 959.832C434.315 958.509 434.965 956.899 434.965 955C434.965 953.101 434.315 951.491 433.013 950.168C431.712 948.845 430.112 948.184 428.213 948.184C426.315 948.184 424.704 948.845 423.381 950.168C422.08 951.491 421.429 953.101 421.429 955C421.429 956.899 422.08 958.509 423.381 959.832ZM455.2 940.6H456.8V963H455.2V959.288C454.538 960.547 453.6 961.539 452.384 962.264C451.189 962.989 449.834 963.352 448.32 963.352C446.016 963.352 444.053 962.552 442.432 960.952C440.832 959.331 440.032 957.347 440.032 955C440.032 952.653 440.832 950.68 442.432 949.08C444.053 947.459 446.016 946.648 448.32 946.648C449.834 946.648 451.189 947.011 452.384 947.736C453.6 948.461 454.538 949.453 455.2 950.712V940.6ZM443.584 959.832C444.906 961.155 446.517 961.816 448.416 961.816C450.314 961.816 451.914 961.155 453.216 959.832C454.538 958.509 455.2 956.899 455.2 955C455.2 953.101 454.538 951.491 453.216 950.168C451.914 948.845 450.314 948.184 448.416 948.184C446.517 948.184 444.906 948.845 443.584 950.168C442.282 951.491 441.632 953.101 441.632 955C441.632 956.899 442.282 958.509 443.584 959.832ZM469.553 946.648C471.899 946.648 473.798 947.48 475.249 949.144C476.721 950.808 477.457 952.781 477.457 955.064C477.457 955.149 477.446 955.277 477.425 955.448C477.425 955.619 477.425 955.747 477.425 955.832H462.929C463.121 957.624 463.835 959.075 465.073 960.184C466.331 961.272 467.878 961.816 469.713 961.816C470.993 961.816 472.113 961.549 473.073 961.016C474.033 960.483 474.758 959.779 475.249 958.904L476.657 959.736C475.995 960.845 475.057 961.731 473.841 962.392C472.625 963.032 471.238 963.352 469.681 963.352C467.227 963.352 465.211 962.573 463.633 961.016C462.054 959.437 461.265 957.432 461.265 955C461.265 952.611 462.033 950.627 463.569 949.048C465.126 947.448 467.121 946.648 469.553 946.648ZM469.553 948.184C467.739 948.184 466.225 948.749 465.009 949.88C463.793 951.011 463.099 952.472 462.929 954.264H475.793C475.622 952.365 474.939 950.883 473.745 949.816C472.571 948.728 471.174 948.184 469.553 948.184ZM490.316 946.648C492.62 946.648 494.572 947.459 496.172 949.08C497.794 950.68 498.604 952.653 498.604 955C498.604 957.347 497.794 959.331 496.172 960.952C494.572 962.552 492.62 963.352 490.316 963.352C488.802 963.352 487.436 962.989 486.22 962.264C485.026 961.539 484.098 960.547 483.436 959.288V963H481.836V940.6H483.436V950.712C484.098 949.453 485.026 948.461 486.22 947.736C487.436 947.011 488.802 946.648 490.316 946.648ZM485.388 959.832C486.711 961.155 488.322 961.816 490.22 961.816C492.119 961.816 493.719 961.155 495.02 959.832C496.343 958.509 497.004 956.899 497.004 955C497.004 953.101 496.343 951.491 495.02 950.168C493.719 948.845 492.119 948.184 490.22 948.184C488.322 948.184 486.711 948.845 485.388 950.168C484.087 951.491 483.436 953.101 483.436 955C483.436 956.899 484.087 958.509 485.388 959.832ZM504.701 950.136C505.661 947.896 507.443 946.776 510.045 946.776V948.312C508.531 948.312 507.261 948.803 506.237 949.784C505.213 950.744 504.701 952.184 504.701 954.104V963H503.101V947H504.701V950.136ZM520.16 946.648C522.507 946.648 524.406 947.48 525.856 949.144C527.328 950.808 528.064 952.781 528.064 955.064C528.064 955.149 528.054 955.277 528.032 955.448C528.032 955.619 528.032 955.747 528.032 955.832H513.536C513.728 957.624 514.443 959.075 515.68 960.184C516.939 961.272 518.486 961.816 520.32 961.816C521.6 961.816 522.72 961.549 523.68 961.016C524.64 960.483 525.366 959.779 525.856 958.904L527.264 959.736C526.603 960.845 525.664 961.731 524.448 962.392C523.232 963.032 521.846 963.352 520.288 963.352C517.835 963.352 515.819 962.573 514.24 961.016C512.662 959.437 511.872 957.432 511.872 955C511.872 952.611 512.64 950.627 514.176 949.048C515.734 947.448 517.728 946.648 520.16 946.648ZM520.16 948.184C518.347 948.184 516.832 948.749 515.616 949.88C514.4 951.011 513.707 952.472 513.536 954.264H526.4C526.23 952.365 525.547 950.883 524.352 949.816C523.179 948.728 521.782 948.184 520.16 948.184ZM551.243 947H552.939L547.883 963H546.123L541.675 949.368L537.227 963H535.467L530.411 947H532.107L536.363 960.92L540.843 947H542.507L546.987 960.92L551.243 947ZM556.193 962.904C555.916 963.181 555.574 963.32 555.169 963.32C554.764 963.32 554.422 963.181 554.145 962.904C553.868 962.627 553.729 962.285 553.729 961.88C553.729 961.475 553.868 961.133 554.145 960.856C554.422 960.579 554.764 960.44 555.169 960.44C555.574 960.44 555.916 960.579 556.193 960.856C556.47 961.133 556.609 961.475 556.609 961.88C556.609 962.285 556.47 962.627 556.193 962.904ZM567.708 963.352C565.298 963.352 563.292 962.552 561.692 960.952C560.092 959.352 559.292 957.368 559.292 955C559.292 952.632 560.092 950.648 561.692 949.048C563.292 947.448 565.298 946.648 567.708 946.648C569.266 946.648 570.674 947.021 571.932 947.768C573.191 948.493 574.108 949.485 574.684 950.744L573.372 951.512C572.903 950.488 572.156 949.677 571.132 949.08C570.13 948.483 568.988 948.184 567.708 948.184C565.788 948.184 564.178 948.845 562.876 950.168C561.575 951.469 560.924 953.08 560.924 955C560.924 956.92 561.575 958.541 562.876 959.864C564.178 961.165 565.788 961.816 567.708 961.816C568.988 961.816 570.13 961.517 571.132 960.92C572.156 960.323 572.935 959.512 573.468 958.488L574.812 959.288C574.172 960.525 573.212 961.517 571.932 962.264C570.674 962.989 569.266 963.352 567.708 963.352ZM586.129 963.352C583.783 963.352 581.788 962.552 580.145 960.952C578.524 959.331 577.713 957.347 577.713 955C577.713 952.653 578.524 950.68 580.145 949.08C581.788 947.459 583.783 946.648 586.129 946.648C588.455 946.648 590.428 947.459 592.049 949.08C593.692 950.68 594.513 952.653 594.513 955C594.513 957.347 593.692 959.331 592.049 960.952C590.428 962.552 588.455 963.352 586.129 963.352ZM581.297 959.832C582.62 961.155 584.231 961.816 586.129 961.816C588.028 961.816 589.628 961.155 590.929 959.832C592.231 958.509 592.881 956.899 592.881 955C592.881 953.101 592.231 951.491 590.929 950.168C589.628 948.845 588.028 948.184 586.129 948.184C584.231 948.184 582.62 948.845 581.297 950.168C579.996 951.491 579.345 953.101 579.345 955C579.345 956.899 579.996 958.509 581.297 959.832ZM616.092 946.648C617.841 946.648 619.249 947.192 620.316 948.28C621.383 949.368 621.916 950.893 621.916 952.856V963H620.316V952.856C620.316 951.363 619.921 950.211 619.132 949.4C618.364 948.589 617.34 948.184 616.06 948.184C614.631 948.184 613.468 948.675 612.572 949.656C611.697 950.637 611.26 952.109 611.26 954.072V963H609.66V952.856C609.66 951.363 609.287 950.211 608.54 949.4C607.815 948.589 606.823 948.184 605.564 948.184C604.156 948.184 602.972 948.685 602.012 949.688C601.073 950.669 600.604 952.131 600.604 954.072V963H599.004V947H600.604V949.752C601.713 947.683 603.431 946.648 605.756 946.648C606.929 946.648 607.953 946.936 608.828 947.512C609.703 948.067 610.343 948.867 610.748 949.912C611.303 948.824 612.049 948.013 612.988 947.48C613.948 946.925 614.983 946.648 616.092 946.648ZM629.065 962.904C628.788 963.181 628.447 963.32 628.041 963.32C627.636 963.32 627.295 963.181 627.017 962.904C626.74 962.627 626.601 962.285 626.601 961.88C626.601 961.475 626.74 961.133 627.017 960.856C627.295 960.579 627.636 960.44 628.041 960.44C628.447 960.44 628.788 960.579 629.065 960.856C629.343 961.133 629.481 961.475 629.481 961.88C629.481 962.285 629.343 962.627 629.065 962.904ZM647.333 947H648.965V963H647.333V959.384C646.65 960.621 645.711 961.592 644.517 962.296C643.322 963 641.967 963.352 640.453 963.352C638.17 963.352 636.218 962.552 634.597 960.952C632.975 959.331 632.165 957.347 632.165 955C632.165 952.653 632.975 950.68 634.597 949.08C636.218 947.459 638.17 946.648 640.453 946.648C641.967 946.648 643.322 947 644.517 947.704C645.711 948.408 646.65 949.379 647.333 950.616V947ZM635.749 959.832C637.071 961.155 638.682 961.816 640.581 961.816C642.479 961.816 644.079 961.155 645.381 959.832C646.682 958.509 647.333 956.899 647.333 955C647.333 953.101 646.682 951.491 645.381 950.168C644.079 948.845 642.479 948.184 640.581 948.184C638.682 948.184 637.071 948.845 635.749 950.168C634.447 951.491 633.797 953.101 633.797 955C633.797 956.899 634.447 958.509 635.749 959.832ZM666.038 947H667.638V963H666.038V959.96C664.886 962.221 662.976 963.352 660.31 963.352C658.411 963.352 656.896 962.776 655.766 961.624C654.656 960.451 654.102 958.893 654.102 956.952V947H655.734V956.952C655.734 958.445 656.139 959.629 656.95 960.504C657.782 961.379 658.944 961.816 660.438 961.816C662.08 961.816 663.424 961.272 664.47 960.184C665.515 959.096 666.038 957.517 666.038 955.448V947Z" fill="white"/>
</g>
<path d="M369.703 529.736C353.66 529.736 341.815 516.944 341.815 500.089C341.625 496.324 342.215 492.56 343.546 489.039C344.877 485.517 346.92 482.315 349.545 479.638C352.17 476.961 355.319 474.867 358.79 473.491C362.261 472.115 365.978 471.487 369.703 471.647H400.834V481.79H369.703C367.285 481.749 364.885 482.212 362.653 483.151C360.421 484.09 358.404 485.484 356.728 487.246C355.052 489.009 353.754 491.102 352.913 493.394C352.073 495.687 351.71 498.13 351.845 500.571C351.715 503.022 352.081 505.475 352.921 507.778C353.76 510.081 355.055 512.188 356.726 513.968C358.398 515.748 360.41 517.165 362.642 518.132C364.872 519.099 367.275 519.596 369.703 519.593H400.834V529.736H369.703Z" fill="white"/>
<path d="M436.996 529.736C420.954 529.736 409.109 516.946 409.109 500.094C408.92 496.33 409.51 492.567 410.841 489.046C412.172 485.525 414.216 482.323 416.841 479.647C419.464 476.97 422.614 474.877 426.084 473.501C429.554 472.125 433.273 471.497 436.996 471.657H450.985C454.727 471.466 458.466 472.072 461.962 473.434C465.458 474.797 468.633 476.885 471.28 479.565C473.929 482.245 475.992 485.457 477.335 488.993C478.679 492.529 479.273 496.311 479.08 500.094C479.08 516.946 467.175 529.736 450.985 529.736H436.996ZM450.985 519.595C453.43 519.627 455.856 519.151 458.112 518.197C460.366 517.243 462.404 515.831 464.097 514.048C465.791 512.264 467.105 510.149 467.958 507.831C468.809 505.514 469.181 503.045 469.051 500.576C469.183 498.118 468.811 495.659 467.956 493.355C467.103 491.05 465.785 488.949 464.087 487.185C462.391 485.42 460.349 484.031 458.095 483.104C455.839 482.177 453.419 481.732 450.985 481.798H436.996C434.58 481.757 432.18 482.22 429.947 483.159C427.714 484.097 425.698 485.491 424.023 487.254C422.347 489.016 421.048 491.108 420.207 493.4C419.369 495.692 419.004 498.135 419.14 500.576C419.01 503.027 419.375 505.479 420.216 507.782C421.054 510.085 422.349 512.19 424.021 513.97C425.692 515.75 427.704 517.167 429.936 518.134C432.167 519.101 434.57 519.598 436.996 519.595H450.985Z" fill="white"/>
<path d="M487.355 529.736V471.651H523.132C527.148 471.478 531.159 472.097 534.906 473.467C538.653 474.837 542.053 476.929 544.888 479.607C547.722 482.285 549.932 485.491 551.369 489.019C552.807 492.547 553.445 496.319 553.238 500.091C553.238 516.945 540.588 529.736 523.132 529.736H487.355ZM523.132 519.594C525.745 519.597 528.329 519.1 530.732 518.133C533.132 517.166 535.297 515.749 537.096 513.969C538.895 512.189 540.288 510.083 541.192 507.779C542.096 505.476 542.489 503.024 542.349 500.573C542.485 498.134 542.087 495.695 541.179 493.407C540.273 491.118 538.874 489.029 537.073 487.269C535.272 485.508 533.105 484.114 530.706 483.172C528.31 482.23 525.73 481.761 523.132 481.793H498.054V519.594H523.132Z" fill="white"/>
<path d="M558.77 529.736V471.623H613.609V481.77H569.431V519.589H613.704V529.736H558.77ZM577.261 504.473V495.922H611.316V504.473H577.261Z" fill="white"/>
<path d="M621.944 529.706V471.623H665.003C676.499 471.623 684.124 476.739 684.124 486.67C684.124 494.013 680.313 497.685 675.951 499.039C678.729 499.924 681.132 501.691 682.787 504.064C684.44 506.437 685.255 509.284 685.099 512.161C685.099 522.784 677.659 529.736 666.162 529.736L621.944 529.706ZM639.692 504.456V495.909H665.094C670.919 495.909 673.665 493.923 673.665 488.867C673.665 482.848 668.724 481.765 661.131 481.765H632.22V519.624H662.015C669.394 519.624 674.73 517.638 674.73 511.98C674.73 507.165 671.681 504.456 665.827 504.456H639.692Z" fill="white"/>
<path d="M750.121 529.736L735.007 513.613H712.812V504.59H737.541C744.991 504.59 748.947 500.439 748.947 492.949C748.947 485.459 744.649 481.759 737.541 481.759H705.055V529.676H694.731V471.623H737.541C751.142 471.623 759.177 479.834 759.177 492.678C759.177 502.273 754.603 509.071 746.814 511.929L764.772 529.585L750.121 529.736Z" fill="white"/>
<path d="M768.892 529.736V471.623H822.237V481.77H779.388V519.589H822.453V529.736H768.892ZM786.88 504.473V495.922H820.006V504.473H786.88Z" fill="white"/>
<path d="M876.168 509.799L866.89 526.585C866.403 527.539 865.647 528.342 864.705 528.899C863.763 529.457 862.677 529.746 861.57 529.734C860.445 529.762 859.334 529.48 858.37 528.922C857.405 528.364 856.628 527.553 856.126 526.585L825.199 471.623H837.571L861.694 515.711L870.725 500.084L855.26 471.623H867.818L890.86 515.711L915.168 471.623H926.827L895.901 526.585C895.395 527.544 894.62 528.348 893.665 528.905C892.708 529.462 891.607 529.749 890.487 529.734C889.375 529.756 888.281 529.47 887.332 528.912C886.384 528.354 885.621 527.546 885.137 526.585L876.168 509.799Z" fill="white"/>
<path fill-rule="evenodd" clip-rule="evenodd" d="M289.342 448.634L280.717 456.936C288.305 465.813 293.241 476.51 294.994 487.881C296.747 499.25 295.253 510.866 290.671 521.483C286.088 532.097 278.591 541.313 268.982 548.14C259.374 554.963 248.017 559.143 236.128 560.229C224.24 561.316 212.269 559.267 201.498 554.303C190.728 549.337 181.564 541.645 174.989 532.049C168.415 522.45 164.678 511.314 164.178 499.828C163.679 488.343 166.436 476.943 172.155 466.851L180.352 474.741C176.935 481.703 175.17 489.311 175.184 497.008C175.184 503.924 176.6 510.769 179.35 517.158C182.099 523.544 186.13 529.347 191.21 534.235C196.291 539.124 202.323 542.999 208.96 545.641C215.597 548.285 222.71 549.642 229.893 549.637H230.107C240.353 549.613 250.386 546.814 259.059 541.562C267.732 536.311 274.697 528.817 279.157 519.937C283.617 511.057 285.393 501.149 284.282 491.343C283.172 481.539 279.219 472.231 272.876 464.485L264.964 472.1C269.772 478.314 272.69 485.694 273.389 493.413C274.089 501.132 272.544 508.887 268.926 515.808C265.309 522.729 259.762 528.546 252.906 532.605C246.05 536.666 238.156 538.81 230.107 538.798V539.037H229.893C221.81 539.049 213.881 536.901 206.993 532.828C200.104 528.757 194.526 522.922 190.882 515.977C187.237 509.03 185.669 501.248 186.352 493.493C187.035 485.74 189.943 478.321 194.751 472.066L170.408 448.634C160.821 459.548 154.675 472.874 152.695 487.042C150.715 501.207 152.984 515.624 159.234 528.59C165.485 541.555 175.455 552.53 187.971 560.222C200.487 567.914 215.026 572 229.875 572C244.724 572 259.264 567.914 271.78 560.222C284.296 552.53 294.266 541.555 300.516 528.59C306.766 515.624 309.035 501.207 307.055 487.042C305.076 472.874 298.93 459.548 289.342 448.634Z" fill="#ACEC00"/>
<path fill-rule="evenodd" clip-rule="evenodd" d="M242.186 467.122V442.78C243.638 442.78 245.031 442.212 246.057 441.202C247.084 440.191 247.661 438.82 247.661 437.39C247.661 435.961 247.084 434.589 246.057 433.579C245.031 432.568 243.638 432 242.186 432H220.322C218.869 432 217.477 432.568 216.45 433.579C215.423 434.589 214.847 435.961 214.847 437.39C214.847 438.82 215.423 440.191 216.45 441.202C217.477 442.212 218.869 442.78 220.322 442.78V467.122C213.141 469.657 207.099 474.606 203.261 481.097C199.423 487.588 198.035 495.203 199.342 502.604C200.649 510.002 204.566 516.709 210.404 521.544C216.242 526.378 223.625 529.03 231.254 529.03C238.882 529.03 246.266 526.378 252.104 521.544C257.942 516.709 261.859 510.002 263.166 502.604C264.473 495.203 263.085 487.588 259.247 481.097C255.409 474.606 249.367 469.657 242.186 467.122ZM251.794 491.35C250.172 486.173 246.568 481.816 241.737 479.183C236.906 476.55 231.223 475.851 225.877 477.229C220.531 478.61 215.937 481.96 213.058 486.581C210.178 491.201 209.235 496.734 210.427 502.022C214.044 503.009 217.864 503.038 221.496 502.103C225.128 501.169 228.44 499.304 231.093 496.703C233.758 494.106 237.075 492.244 240.71 491.304C244.344 490.365 248.168 490.379 251.794 491.35Z" fill="white"/>
<path d="M589.226 635C598.314 635 604.202 629.432 604.202 620.92C604.202 615.48 601.13 611.768 596.906 610.424C600.362 609.336 603.37 606.392 603.37 600.504C603.37 592.568 597.354 588.472 588.266 588.472H554.218V635H589.226ZM588.906 614.776C593.45 614.776 595.946 616.952 595.946 620.792C595.946 625.336 591.722 626.936 585.898 626.936H562.346V596.6H585.194C591.21 596.6 595.114 597.368 595.114 602.296C595.114 606.328 592.938 607.928 588.33 607.928H568.234V614.776H588.906ZM643.858 635C657.106 635 666.642 624.76 666.642 611.256C666.642 597.752 657.298 588.472 643.858 588.472H632.53C619.538 588.472 609.938 597.56 609.938 611.256C609.938 624.76 619.538 635 632.53 635H643.858ZM632.53 626.872C624.146 626.872 618.066 620.408 618.066 611.64C618.066 602.808 624.21 596.6 632.53 596.6H643.858C652.434 596.6 658.514 602.872 658.514 611.64C658.514 620.408 652.434 626.872 643.858 626.872H632.53ZM705.796 635C719.044 635 728.58 624.76 728.58 611.256C728.58 597.752 719.236 588.472 705.796 588.472H694.468C681.476 588.472 671.876 597.56 671.876 611.256C671.876 624.76 681.476 635 694.468 635H705.796ZM694.468 626.872C686.083 626.872 680.004 620.408 680.004 611.64C680.004 602.808 686.148 596.6 694.468 596.6H705.796C714.372 596.6 720.452 602.872 720.452 611.64C720.452 620.408 714.372 626.872 705.796 626.872H694.468ZM785.909 635L754.485 611.192L784.949 588.472H772.469L747.829 607.416C746.165 608.696 745.781 609.72 745.781 611.128C745.781 612.408 746.037 613.432 747.445 614.52L773.493 635H785.909ZM743.285 635V588.472H735.157V635H743.285ZM830.581 635V626.872H799.285V588.472H791.157V635H830.581ZM878.007 635V626.872H844.471V596.6H877.943V588.472H836.407V635H878.007ZM876.215 614.776V607.928H850.423V614.776H876.215ZM908.01 635V596.6H925.674V588.472H882.218V596.6H899.882V635H908.01Z" fill="white"/>
<defs>
<filter id="filter0_i_33_660" x="382" y="929" width="307" height="55" filterUnits="userSpaceOnUse" color-interpolation-filters="sRGB">
<feFlood flood-opacity="0" result="BackgroundImageFix"/>
<feBlend mode="normal" in="SourceGraphic" in2="BackgroundImageFix" result="shape"/>
<feColorMatrix in="SourceAlpha" type="matrix" values="0 0 0 0 0 0 0 0 0 0 0 0 0 0 0 0 0 0 127 0" result="hardAlpha"/>
<feOffset dy="4"/>
<feGaussianBlur stdDeviation="2"/>
<feComposite in2="hardAlpha" operator="arithmetic" k2="-1" k3="1"/>
<feColorMatrix type="matrix" values="0 0 0 0 0 0 0 0 0 0 0 0 0 0 0 0 0 0 0.25 0"/>
<feBlend mode="normal" in2="shape" result="effect1_innerShadow_33_660"/>
</filter>
</defs>
</svg>
