<svg width="1080" height="1080" viewBox="0 0 1080 1080" fill="none" xmlns="http://www.w3.org/2000/svg">
<g clip-path="url(#clip0_33_505)">
<rect width="1080" height="1080" fill="#202122"/>
<g opacity="0.1">
<path d="M1090.96 596.636C1122.43 596.636 1147.93 571.129 1147.93 539.665C1147.93 508.201 1122.43 482.695 1090.96 482.695C1059.5 482.695 1033.99 508.201 1033.99 539.665C1033.99 571.129 1059.5 596.636 1090.96 596.636Z" fill="#E7E7E7"/>
<path fill-rule="evenodd" clip-rule="evenodd" d="M1195.19 691.403L1142.59 639.041C1126.74 647.429 1109.08 651.797 1091.15 651.763C1074.2 651.767 1057.47 647.921 1042.22 640.514C1026.97 633.107 1013.61 622.333 1003.13 609.006C992.657 595.678 985.347 580.145 981.752 563.579C978.158 547.013 978.374 529.847 982.384 513.377C986.393 496.907 994.092 481.563 1004.9 468.503C1015.71 455.443 1029.34 445.009 1044.77 437.988C1060.2 430.967 1077.02 427.542 1093.96 427.973C1110.91 428.404 1127.54 432.678 1142.59 440.474L1184.26 398.991C1162.25 384.439 1137.15 375.244 1110.95 372.142C1084.76 369.04 1058.2 372.117 1033.41 381.127C1008.61 390.138 986.276 404.831 968.185 424.029C950.093 443.227 936.75 466.395 929.226 491.678C921.701 516.961 920.204 543.656 924.853 569.622C929.503 595.588 940.171 620.103 956.002 641.204C971.833 662.305 992.386 679.404 1016.02 691.131C1039.64 702.858 1065.69 708.887 1092.07 708.734C1101.97 708.662 1111.84 707.736 1121.57 705.968L1138.13 722.526L1195.19 691.403Z" fill="#E30303"/>
<path fill-rule="evenodd" clip-rule="evenodd" d="M865.512 533.397C865.761 524.561 866.528 515.723 867.819 506.926C873.492 468.28 889.083 431.764 913.072 400.938C937.06 370.111 968.627 346.027 1004.69 331.033C1040.76 316.04 1080.1 310.649 1118.87 315.386C1157.64 320.123 1194.53 334.825 1225.92 358.061L1286.07 297.912L1232.42 260.767L1210.62 282.468C1165 261.261 1114.54 252.6 1064.46 257.376C1014.38 262.153 966.469 280.194 925.676 309.642C884.883 339.091 852.678 378.882 832.378 424.917C817.237 459.25 809.128 496.131 808.375 533.397H865.512Z" fill="#FEED00"/>
<path fill-rule="evenodd" clip-rule="evenodd" d="M1138.63 723.022L1168.03 752.43C1131.28 765.661 1091.73 769.143 1053.23 762.537C1014.74 755.931 978.607 739.462 948.37 714.735C918.133 690.008 894.819 657.867 880.703 621.447C869.799 593.317 864.67 563.377 865.513 533.397H808.377C808.121 546.097 808.719 558.841 810.185 571.545C815.952 621.526 834.938 669.065 865.189 709.267C895.44 749.469 935.86 780.881 982.288 800.265C1028.72 819.65 1079.47 826.307 1129.33 819.552C1179.18 812.797 1226.34 792.872 1265.93 761.832L1195.31 691.528L1138.63 723.022Z" fill="#FF8B00"/>
<path fill-rule="evenodd" clip-rule="evenodd" d="M765.41 303.789C805.689 248.088 859.639 203.507 922.222 174.454C991.883 142.116 1069.34 130.363 1145.46 140.583C1221.57 150.802 1293.18 182.568 1351.85 232.135L1286.07 297.912L1232.42 260.766L1253.21 240.063C1207.71 215.32 1157.15 201.302 1105.4 199.078C1053.65 196.854 1002.08 206.484 954.622 227.231C907.162 247.979 865.071 279.296 831.561 318.792C826.596 324.644 821.839 330.653 817.295 336.807L765.41 303.789Z" fill="#008026"/>
<path fill-rule="evenodd" clip-rule="evenodd" d="M800.612 818.181L845.085 773.708C837.161 765.422 829.644 756.721 822.568 747.635C790.743 706.769 768.677 659.171 758.053 608.476C747.429 557.781 748.529 505.328 761.269 455.123C772.121 412.357 791.174 372.185 817.295 336.807L765.409 303.789C760.854 310.089 756.473 316.531 752.275 323.109C710.954 387.847 689 463.048 689 539.85C689 616.651 710.954 691.853 752.275 756.591C766.414 778.743 782.619 799.355 800.612 818.181Z" fill="#004DFF"/>
<path fill-rule="evenodd" clip-rule="evenodd" d="M941.682 844.274C988.23 866.993 1039.35 878.776 1091.15 878.723C1169.85 879.314 1246.3 852.526 1307.42 802.947L1351.85 847.564C1293.18 897.132 1221.57 928.898 1145.46 939.117C1069.34 949.337 991.883 937.584 922.222 905.245C876.398 883.972 835.202 854.374 800.612 818.181L845.086 773.708C872.798 802.689 905.484 826.607 941.682 844.274Z" fill="#750686"/>
</g>
<path d="M126.04 159C138.34 159 147.28 149.4 147.28 136.74C147.28 124.08 138.34 115.38 126.04 115.38H100.78V159H126.04ZM108.34 151.38V123H126.04C133.9 123 139.66 128.88 139.66 137.1C139.66 145.32 133.9 151.38 126.04 151.38H108.34ZM162.154 159V115.38H154.534V159H162.154ZM192.85 157.14C193.75 158.64 194.89 159.6 196.57 159.6C198.13 159.6 199.33 158.64 200.23 157.14L225.37 115.38H216.61L196.87 148.98L177.07 115.38H167.77L192.85 157.14ZM269.666 159V151.38H238.226V123H269.606V115.38H230.666V159H269.666ZM267.986 140.04V133.62H243.806V140.04H267.986ZM328.093 159L314.953 145.74C320.593 143.58 323.953 138.48 323.953 131.28C323.953 121.56 318.073 115.38 308.113 115.38H276.793V159H284.353V123H308.113C313.333 123 316.453 125.76 316.453 131.4C316.453 137.04 313.573 140.16 308.113 140.16H289.933V146.88H306.253L317.293 159H328.093ZM365.347 159C374.467 159 378.907 153.54 378.907 146.22C378.907 137.76 374.167 133.62 365.347 133.62H345.367C342.007 133.62 339.907 131.64 339.907 128.34C339.907 125.04 341.947 123 345.427 123H376.747V115.38H345.427C336.727 115.38 331.987 120.6 331.987 127.62C331.987 134.82 337.087 140.04 345.307 140.04H365.347C369.427 140.04 371.707 141.96 371.707 145.68C371.707 149.1 369.427 151.38 365.347 151.38H332.647V159H365.347ZM394.08 159V115.38H386.46V159H394.08ZM424.236 159V123H440.796V115.38H400.056V123H416.616V159H424.236ZM474.2 159V142.44L497.42 115.38H487.7L470.66 135.48L453.68 115.38H443.42L466.58 142.44V159H474.2ZM528.843 159V115.38H521.223V159H528.843ZM575.14 157.92C576.22 159 577.36 159.54 578.62 159.54C580.84 159.54 582.4 157.86 582.4 154.98V115.02H575.14V146.94L544.36 116.4C543.22 115.26 542.26 114.84 541.12 114.84C538.72 114.84 537.22 116.58 537.22 119.4V159H544.48V127.08L575.14 157.92ZM598.422 159V115.38H590.802V159H598.422ZM628.578 159V123H645.138V115.38H604.398V123H620.958V159H628.578ZM658.802 159V115.38H651.182V159H658.802ZM722.018 159L696.878 117.24C695.978 115.74 694.898 114.78 693.218 114.78C691.538 114.78 690.398 115.74 689.498 117.24L664.418 159H673.118L692.918 125.52L702.638 141.84H689.258L685.658 148.02H706.298L712.838 159H722.018ZM741.179 159V123H757.739V115.38H716.999V123H733.559V159H741.179ZM771.403 159V115.38H763.783V159H771.403ZM802.099 157.14C802.999 158.64 804.139 159.6 805.819 159.6C807.379 159.6 808.579 158.64 809.479 157.14L834.619 115.38H825.859L806.119 148.98L786.319 115.38H777.019L802.099 157.14ZM878.914 159V151.38H847.474V123H878.854V115.38H839.914V159H878.914ZM877.234 140.04V133.62H853.054V140.04H877.234ZM918.742 159C927.862 159 932.302 153.54 932.302 146.22C932.302 137.76 927.562 133.62 918.742 133.62H898.762C895.402 133.62 893.302 131.64 893.302 128.34C893.302 125.04 895.342 123 898.822 123H930.142V115.38H898.822C890.122 115.38 885.382 120.6 885.382 127.62C885.382 134.82 890.482 140.04 898.702 140.04H918.742C922.822 140.04 925.102 141.96 925.102 145.68C925.102 149.1 922.822 151.38 918.742 151.38H886.042V159H918.742Z" fill="white"/>
<path d="M853.554 957.646C855.241 957.646 856.609 956.279 856.609 954.592C856.609 952.904 855.241 951.537 853.554 951.537C851.867 951.537 850.499 952.904 850.499 954.592C850.499 956.279 851.867 957.646 853.554 957.646Z" fill="white"/>
<path fill-rule="evenodd" clip-rule="evenodd" d="M865.674 954.601C865.678 957.275 864.791 959.873 863.153 961.987L865.338 964.161C867.537 961.459 868.738 958.081 868.738 954.597C868.738 951.112 867.537 947.734 865.338 945.032L863.153 947.207C864.792 949.323 865.679 951.925 865.674 954.601Z" fill="white"/>
<path fill-rule="evenodd" clip-rule="evenodd" d="M869.896 968.729C873.295 964.807 875.166 959.791 875.166 954.601C875.166 949.412 873.295 944.396 869.896 940.474L867.503 942.857C870.273 946.141 871.793 950.3 871.793 954.597C871.793 958.893 870.273 963.052 867.503 966.336L869.896 968.729Z" fill="white"/>
<path fill-rule="evenodd" clip-rule="evenodd" d="M859.565 954.602C859.56 955.644 859.28 956.667 858.754 957.567L860.968 959.782C862.043 958.259 862.62 956.441 862.62 954.577C862.62 952.713 862.043 950.895 860.968 949.372L858.754 951.586C859.289 952.501 859.568 953.542 859.565 954.602Z" fill="white"/>
<path fill-rule="evenodd" clip-rule="evenodd" d="M853.564 972.772C850.786 972.775 848.045 972.143 845.549 970.925C843.053 969.707 840.869 967.935 839.162 965.743C837.456 963.552 836.272 961 835.703 958.281C835.133 955.563 835.192 952.75 835.875 950.058C836.558 947.366 837.848 944.866 839.644 942.748C841.441 940.63 843.698 938.951 846.243 937.838C848.788 936.726 851.553 936.209 854.328 936.329C857.103 936.448 859.814 937.2 862.254 938.526L859.97 940.8C857.524 939.663 854.818 939.199 852.133 939.455C849.447 939.711 846.878 940.678 844.691 942.257C842.504 943.836 840.777 945.97 839.688 948.439C838.6 950.907 838.189 953.621 838.498 956.301C838.807 958.981 839.825 961.53 841.447 963.686C843.07 965.842 845.237 967.526 847.726 968.565C850.216 969.605 852.938 969.962 855.611 969.6C858.284 969.237 860.813 968.169 862.936 966.504L856.322 959.92C855.472 960.37 854.525 960.604 853.564 960.602C852.655 960.603 851.758 960.396 850.94 959.999C850.123 959.602 849.406 959.024 848.844 958.31C848.283 957.595 847.891 956.762 847.698 955.874C847.505 954.986 847.517 954.065 847.732 953.182C847.947 952.299 848.36 951.476 848.939 950.776C849.518 950.075 850.249 949.516 851.077 949.139C851.904 948.763 852.806 948.579 853.715 948.602C854.623 948.626 855.515 948.855 856.322 949.273L858.556 947.048C857.377 946.268 856.03 945.775 854.626 945.609C853.221 945.442 851.797 945.607 850.468 946.091C849.138 946.574 847.94 947.362 846.97 948.391C846 949.42 845.285 950.663 844.881 952.018C844.478 953.374 844.397 954.806 844.647 956.198C844.896 957.59 845.468 958.905 846.317 960.036C847.166 961.168 848.268 962.085 849.535 962.713C850.802 963.342 852.199 963.665 853.613 963.657C854.144 963.653 854.673 963.604 855.195 963.509L857.686 966C855.716 966.71 853.595 966.897 851.531 966.542C849.466 966.188 847.529 965.305 845.908 963.979C844.286 962.653 843.036 960.93 842.279 958.977C841.522 957.024 841.284 954.908 841.589 952.836C841.893 950.764 842.729 948.806 844.015 947.153C845.301 945.5 846.994 944.208 848.928 943.404C850.862 942.6 852.971 942.311 855.05 942.565C857.129 942.819 859.107 943.608 860.791 944.854L867.543 938.101C864.397 935.443 860.557 933.74 856.476 933.192C852.394 932.644 848.241 933.274 844.506 935.008C840.77 936.742 837.609 939.508 835.393 942.979C833.177 946.451 832 950.483 832 954.601C832 958.72 833.177 962.752 835.393 966.223C837.609 969.695 840.77 972.461 844.506 974.195C848.241 975.929 852.394 976.559 856.476 976.011C860.557 975.463 864.397 973.76 867.543 971.102L865.16 968.709C861.883 971.368 857.784 972.804 853.564 972.772Z" fill="#ACEC00"/>
<path d="M892.427 964.251C891.06 964.303 889.698 964.052 888.44 963.515C887.182 962.978 886.058 962.169 885.15 961.146C883.501 959.278 882.619 956.856 882.679 954.364C882.604 951.97 883.45 949.639 885.042 947.849C885.984 946.849 887.133 946.066 888.408 945.554C889.683 945.042 891.054 944.813 892.427 944.883H903.302V948.255H892.427C891.55 948.22 890.676 948.372 889.863 948.701C889.05 949.03 888.317 949.528 887.711 950.163C886.65 951.308 886.045 952.803 886.011 954.364C885.916 955.994 886.458 957.596 887.523 958.833C888.14 959.524 888.905 960.067 889.76 960.422C890.616 960.776 891.541 960.933 892.466 960.879H903.341V964.251H892.427Z" fill="white"/>
<path d="M907.088 964.241V944.883H910.459V964.241H907.088Z" fill="white"/>
<path d="M929.124 964.251H914.364V960.909H929.124C930.081 960.958 931.024 960.663 931.784 960.078C932.067 959.858 932.297 959.576 932.456 959.254C932.615 958.933 932.7 958.579 932.703 958.22C932.706 957.87 932.627 957.524 932.473 957.21C932.318 956.896 932.092 956.622 931.813 956.411C931.036 955.841 930.086 955.558 929.124 955.61H919.96C919.131 955.651 918.303 955.524 917.525 955.237C916.747 954.95 916.035 954.509 915.432 953.939C914.468 952.958 913.928 951.637 913.928 950.261C913.928 948.886 914.468 947.565 915.432 946.584C916.035 946.014 916.747 945.573 917.525 945.286C918.303 944.998 919.131 944.872 919.96 944.913H934.572V948.284H919.96C919.337 948.25 918.725 948.463 918.259 948.877C918.063 949.053 917.906 949.268 917.799 949.508C917.692 949.748 917.636 950.008 917.636 950.271C917.63 950.525 917.678 950.777 917.777 951.011C917.876 951.244 918.023 951.454 918.21 951.626C918.689 952.053 919.318 952.273 919.96 952.239H929.114C930.023 952.2 930.931 952.347 931.781 952.672C932.631 952.997 933.406 953.492 934.057 954.127C934.599 954.676 935.026 955.328 935.313 956.045C935.6 956.761 935.741 957.527 935.728 958.299C935.745 959.062 935.608 959.821 935.324 960.529C935.041 961.238 934.616 961.881 934.077 962.422C933.423 963.052 932.648 963.542 931.798 963.861C930.948 964.181 930.041 964.324 929.134 964.28L929.124 964.251Z" fill="white"/>
<path d="M952.762 964.251H938.002V960.909H952.762C953.719 960.958 954.662 960.663 955.422 960.078C955.705 959.858 955.935 959.576 956.094 959.254C956.253 958.933 956.338 958.579 956.341 958.22C956.344 957.87 956.265 957.524 956.111 957.21C955.956 956.896 955.73 956.622 955.451 956.411C954.674 955.841 953.724 955.558 952.762 955.61H943.608C942.779 955.651 941.951 955.524 941.173 955.237C940.395 954.95 939.683 954.509 939.08 953.939C938.116 952.958 937.576 951.637 937.576 950.261C937.576 948.886 938.116 947.565 939.08 946.584C939.683 946.014 940.395 945.573 941.173 945.286C941.951 944.998 942.779 944.872 943.608 944.913H958.229V948.284H943.608C942.985 948.25 942.373 948.463 941.907 948.877C941.714 949.054 941.56 949.27 941.454 949.51C941.348 949.75 941.294 950.009 941.294 950.271C941.288 950.524 941.335 950.775 941.433 951.008C941.53 951.241 941.674 951.452 941.858 951.626C942.337 952.053 942.966 952.273 943.608 952.239H952.762C953.672 952.197 954.58 952.344 955.43 952.669C956.281 952.993 957.055 953.49 957.705 954.127C958.247 954.676 958.674 955.328 958.961 956.045C959.248 956.761 959.389 957.527 959.376 958.299C959.392 959.061 959.256 959.819 958.974 960.527C958.692 961.235 958.271 961.879 957.735 962.422C957.08 963.05 956.304 963.539 955.454 963.858C954.605 964.178 953.699 964.321 952.792 964.28L952.762 964.251Z" fill="white"/>
<path d="M975.709 946.722C975.367 946.125 974.889 945.617 974.315 945.239C973.93 944.961 973.464 944.818 972.99 944.834C972.539 944.889 972.111 945.067 971.754 945.348C971.218 945.701 970.768 946.171 970.439 946.722L959.93 964.221H964.27L973 949.866L976.371 955.442H971.586L969.53 958.803H978.378L981.66 964.221H986L975.709 946.722Z" fill="white"/>
<g filter="url(#filter0_i_33_505)">
<rect x="382" y="929" width="307" height="51" rx="25.5" fill="#191A1B"/>
<path d="M409.792 963.352C407.381 963.352 405.376 962.552 403.776 960.952C402.176 959.352 401.376 957.368 401.376 955C401.376 952.632 402.176 950.648 403.776 949.048C405.376 947.448 407.381 946.648 409.792 946.648C411.349 946.648 412.757 947.021 414.016 947.768C415.275 948.493 416.192 949.485 416.768 950.744L415.456 951.512C414.987 950.488 414.24 949.677 413.216 949.08C412.213 948.483 411.072 948.184 409.792 948.184C407.872 948.184 406.261 948.845 404.96 950.168C403.659 951.469 403.008 953.08 403.008 955C403.008 956.92 403.659 958.541 404.96 959.864C406.261 961.165 407.872 961.816 409.792 961.816C411.072 961.816 412.213 961.517 413.216 960.92C414.24 960.323 415.019 959.512 415.552 958.488L416.896 959.288C416.256 960.525 415.296 961.517 414.016 962.264C412.757 962.989 411.349 963.352 409.792 963.352ZM428.213 963.352C425.867 963.352 423.872 962.552 422.229 960.952C420.608 959.331 419.797 957.347 419.797 955C419.797 952.653 420.608 950.68 422.229 949.08C423.872 947.459 425.867 946.648 428.213 946.648C430.539 946.648 432.512 947.459 434.133 949.08C435.776 950.68 436.597 952.653 436.597 955C436.597 957.347 435.776 959.331 434.133 960.952C432.512 962.552 430.539 963.352 428.213 963.352ZM423.381 959.832C424.704 961.155 426.315 961.816 428.213 961.816C430.112 961.816 431.712 961.155 433.013 959.832C434.315 958.509 434.965 956.899 434.965 955C434.965 953.101 434.315 951.491 433.013 950.168C431.712 948.845 430.112 948.184 428.213 948.184C426.315 948.184 424.704 948.845 423.381 950.168C422.08 951.491 421.429 953.101 421.429 955C421.429 956.899 422.08 958.509 423.381 959.832ZM455.2 940.6H456.8V963H455.2V959.288C454.538 960.547 453.6 961.539 452.384 962.264C451.189 962.989 449.834 963.352 448.32 963.352C446.016 963.352 444.053 962.552 442.432 960.952C440.832 959.331 440.032 957.347 440.032 955C440.032 952.653 440.832 950.68 442.432 949.08C444.053 947.459 446.016 946.648 448.32 946.648C449.834 946.648 451.189 947.011 452.384 947.736C453.6 948.461 454.538 949.453 455.2 950.712V940.6ZM443.584 959.832C444.906 961.155 446.517 961.816 448.416 961.816C450.314 961.816 451.914 961.155 453.216 959.832C454.538 958.509 455.2 956.899 455.2 955C455.2 953.101 454.538 951.491 453.216 950.168C451.914 948.845 450.314 948.184 448.416 948.184C446.517 948.184 444.906 948.845 443.584 950.168C442.282 951.491 441.632 953.101 441.632 955C441.632 956.899 442.282 958.509 443.584 959.832ZM469.553 946.648C471.899 946.648 473.798 947.48 475.249 949.144C476.721 950.808 477.457 952.781 477.457 955.064C477.457 955.149 477.446 955.277 477.425 955.448C477.425 955.619 477.425 955.747 477.425 955.832H462.929C463.121 957.624 463.835 959.075 465.073 960.184C466.331 961.272 467.878 961.816 469.713 961.816C470.993 961.816 472.113 961.549 473.073 961.016C474.033 960.483 474.758 959.779 475.249 958.904L476.657 959.736C475.995 960.845 475.057 961.731 473.841 962.392C472.625 963.032 471.238 963.352 469.681 963.352C467.227 963.352 465.211 962.573 463.633 961.016C462.054 959.437 461.265 957.432 461.265 955C461.265 952.611 462.033 950.627 463.569 949.048C465.126 947.448 467.121 946.648 469.553 946.648ZM469.553 948.184C467.739 948.184 466.225 948.749 465.009 949.88C463.793 951.011 463.099 952.472 462.929 954.264H475.793C475.622 952.365 474.939 950.883 473.745 949.816C472.571 948.728 471.174 948.184 469.553 948.184ZM490.316 946.648C492.62 946.648 494.572 947.459 496.172 949.08C497.794 950.68 498.604 952.653 498.604 955C498.604 957.347 497.794 959.331 496.172 960.952C494.572 962.552 492.62 963.352 490.316 963.352C488.802 963.352 487.436 962.989 486.22 962.264C485.026 961.539 484.098 960.547 483.436 959.288V963H481.836V940.6H483.436V950.712C484.098 949.453 485.026 948.461 486.22 947.736C487.436 947.011 488.802 946.648 490.316 946.648ZM485.388 959.832C486.711 961.155 488.322 961.816 490.22 961.816C492.119 961.816 493.719 961.155 495.02 959.832C496.343 958.509 497.004 956.899 497.004 955C497.004 953.101 496.343 951.491 495.02 950.168C493.719 948.845 492.119 948.184 490.22 948.184C488.322 948.184 486.711 948.845 485.388 950.168C484.087 951.491 483.436 953.101 483.436 955C483.436 956.899 484.087 958.509 485.388 959.832ZM504.701 950.136C505.661 947.896 507.443 946.776 510.045 946.776V948.312C508.531 948.312 507.261 948.803 506.237 949.784C505.213 950.744 504.701 952.184 504.701 954.104V963H503.101V947H504.701V950.136ZM520.16 946.648C522.507 946.648 524.406 947.48 525.856 949.144C527.328 950.808 528.064 952.781 528.064 955.064C528.064 955.149 528.054 955.277 528.032 955.448C528.032 955.619 528.032 955.747 528.032 955.832H513.536C513.728 957.624 514.443 959.075 515.68 960.184C516.939 961.272 518.486 961.816 520.32 961.816C521.6 961.816 522.72 961.549 523.68 961.016C524.64 960.483 525.366 959.779 525.856 958.904L527.264 959.736C526.603 960.845 525.664 961.731 524.448 962.392C523.232 963.032 521.846 963.352 520.288 963.352C517.835 963.352 515.819 962.573 514.24 961.016C512.662 959.437 511.872 957.432 511.872 955C511.872 952.611 512.64 950.627 514.176 949.048C515.734 947.448 517.728 946.648 520.16 946.648ZM520.16 948.184C518.347 948.184 516.832 948.749 515.616 949.88C514.4 951.011 513.707 952.472 513.536 954.264H526.4C526.23 952.365 525.547 950.883 524.352 949.816C523.179 948.728 521.782 948.184 520.16 948.184ZM551.243 947H552.939L547.883 963H546.123L541.675 949.368L537.227 963H535.467L530.411 947H532.107L536.363 960.92L540.843 947H542.507L546.987 960.92L551.243 947ZM556.193 962.904C555.916 963.181 555.574 963.32 555.169 963.32C554.764 963.32 554.422 963.181 554.145 962.904C553.868 962.627 553.729 962.285 553.729 961.88C553.729 961.475 553.868 961.133 554.145 960.856C554.422 960.579 554.764 960.44 555.169 960.44C555.574 960.44 555.916 960.579 556.193 960.856C556.47 961.133 556.609 961.475 556.609 961.88C556.609 962.285 556.47 962.627 556.193 962.904ZM567.708 963.352C565.298 963.352 563.292 962.552 561.692 960.952C560.092 959.352 559.292 957.368 559.292 955C559.292 952.632 560.092 950.648 561.692 949.048C563.292 947.448 565.298 946.648 567.708 946.648C569.266 946.648 570.674 947.021 571.932 947.768C573.191 948.493 574.108 949.485 574.684 950.744L573.372 951.512C572.903 950.488 572.156 949.677 571.132 949.08C570.13 948.483 568.988 948.184 567.708 948.184C565.788 948.184 564.178 948.845 562.876 950.168C561.575 951.469 560.924 953.08 560.924 955C560.924 956.92 561.575 958.541 562.876 959.864C564.178 961.165 565.788 961.816 567.708 961.816C568.988 961.816 570.13 961.517 571.132 960.92C572.156 960.323 572.935 959.512 573.468 958.488L574.812 959.288C574.172 960.525 573.212 961.517 571.932 962.264C570.674 962.989 569.266 963.352 567.708 963.352ZM586.129 963.352C583.783 963.352 581.788 962.552 580.145 960.952C578.524 959.331 577.713 957.347 577.713 955C577.713 952.653 578.524 950.68 580.145 949.08C581.788 947.459 583.783 946.648 586.129 946.648C588.455 946.648 590.428 947.459 592.049 949.08C593.692 950.68 594.513 952.653 594.513 955C594.513 957.347 593.692 959.331 592.049 960.952C590.428 962.552 588.455 963.352 586.129 963.352ZM581.297 959.832C582.62 961.155 584.231 961.816 586.129 961.816C588.028 961.816 589.628 961.155 590.929 959.832C592.231 958.509 592.881 956.899 592.881 955C592.881 953.101 592.231 951.491 590.929 950.168C589.628 948.845 588.028 948.184 586.129 948.184C584.231 948.184 582.62 948.845 581.297 950.168C579.996 951.491 579.345 953.101 579.345 955C579.345 956.899 579.996 958.509 581.297 959.832ZM616.092 946.648C617.841 946.648 619.249 947.192 620.316 948.28C621.383 949.368 621.916 950.893 621.916 952.856V963H620.316V952.856C620.316 951.363 619.921 950.211 619.132 949.4C618.364 948.589 617.34 948.184 616.06 948.184C614.631 948.184 613.468 948.675 612.572 949.656C611.697 950.637 611.26 952.109 611.26 954.072V963H609.66V952.856C609.66 951.363 609.287 950.211 608.54 949.4C607.815 948.589 606.823 948.184 605.564 948.184C604.156 948.184 602.972 948.685 602.012 949.688C601.073 950.669 600.604 952.131 600.604 954.072V963H599.004V947H600.604V949.752C601.713 947.683 603.431 946.648 605.756 946.648C606.929 946.648 607.953 946.936 608.828 947.512C609.703 948.067 610.343 948.867 610.748 949.912C611.303 948.824 612.049 948.013 612.988 947.48C613.948 946.925 614.983 946.648 616.092 946.648ZM629.065 962.904C628.788 963.181 628.447 963.32 628.041 963.32C627.636 963.32 627.295 963.181 627.017 962.904C626.74 962.627 626.601 962.285 626.601 961.88C626.601 961.475 626.74 961.133 627.017 960.856C627.295 960.579 627.636 960.44 628.041 960.44C628.447 960.44 628.788 960.579 629.065 960.856C629.343 961.133 629.481 961.475 629.481 961.88C629.481 962.285 629.343 962.627 629.065 962.904ZM647.333 947H648.965V963H647.333V959.384C646.65 960.621 645.711 961.592 644.517 962.296C643.322 963 641.967 963.352 640.453 963.352C638.17 963.352 636.218 962.552 634.597 960.952C632.975 959.331 632.165 957.347 632.165 955C632.165 952.653 632.975 950.68 634.597 949.08C636.218 947.459 638.17 946.648 640.453 946.648C641.967 946.648 643.322 947 644.517 947.704C645.711 948.408 646.65 949.379 647.333 950.616V947ZM635.749 959.832C637.071 961.155 638.682 961.816 640.581 961.816C642.479 961.816 644.079 961.155 645.381 959.832C646.682 958.509 647.333 956.899 647.333 955C647.333 953.101 646.682 951.491 645.381 950.168C644.079 948.845 642.479 948.184 640.581 948.184C638.682 948.184 637.071 948.845 635.749 950.168C634.447 951.491 633.797 953.101 633.797 955C633.797 956.899 634.447 958.509 635.749 959.832ZM666.038 947H667.638V963H666.038V959.96C664.886 962.221 662.976 963.352 660.31 963.352C658.411 963.352 656.896 962.776 655.766 961.624C654.656 960.451 654.102 958.893 654.102 956.952V947H655.734V956.952C655.734 958.445 656.139 959.629 656.95 960.504C657.782 961.379 658.944 961.816 660.438 961.816C662.08 961.816 663.424 961.272 664.47 960.184C665.515 959.096 666.038 957.517 666.038 955.448V947Z" fill="white"/>
</g>
<path d="M128.02 362V365H114.82V404H111.58V365H98.38V362H128.02ZM142.972 404.66C138.572 404.66 134.832 403.16 131.752 400.16C128.712 397.12 127.192 393.4 127.192 389C127.192 384.6 128.712 380.9 131.752 377.9C134.832 374.86 138.572 373.34 142.972 373.34C147.332 373.34 151.032 374.86 154.072 377.9C157.152 380.9 158.692 384.6 158.692 389C158.692 393.4 157.152 397.12 154.072 400.16C151.032 403.16 147.332 404.66 142.972 404.66ZM133.912 398.06C136.392 400.54 139.412 401.78 142.972 401.78C146.532 401.78 149.532 400.54 151.972 398.06C154.412 395.58 155.632 392.56 155.632 389C155.632 385.44 154.412 382.42 151.972 379.94C149.532 377.46 146.532 376.22 142.972 376.22C139.412 376.22 136.392 377.46 133.912 379.94C131.472 382.42 130.252 385.44 130.252 389C130.252 392.56 131.472 395.58 133.912 398.06ZM196.608 373.34C201.008 373.34 204.568 374.9 207.288 378.02C210.048 381.14 211.428 384.84 211.428 389.12C211.428 389.28 211.408 389.52 211.368 389.84C211.368 390.16 211.368 390.4 211.368 390.56H184.188C184.548 393.92 185.888 396.64 188.208 398.72C190.568 400.76 193.468 401.78 196.908 401.78C199.308 401.78 201.408 401.28 203.208 400.28C205.008 399.28 206.368 397.96 207.288 396.32L209.928 397.88C208.688 399.96 206.928 401.62 204.648 402.86C202.368 404.06 199.768 404.66 196.848 404.66C192.248 404.66 188.468 403.2 185.508 400.28C182.548 397.32 181.068 393.56 181.068 389C181.068 384.52 182.508 380.8 185.388 377.84C188.308 374.84 192.048 373.34 196.608 373.34ZM196.608 376.22C193.208 376.22 190.368 377.28 188.088 379.4C185.808 381.52 184.508 384.26 184.188 387.62H208.308C207.988 384.06 206.708 381.28 204.468 379.28C202.268 377.24 199.648 376.22 196.608 376.22ZM232.78 373.34C236.34 373.34 239.16 374.44 241.24 376.64C243.36 378.8 244.42 381.7 244.42 385.34V404H241.36V385.34C241.36 382.54 240.58 380.32 239.02 378.68C237.5 377.04 235.34 376.22 232.54 376.22C229.46 376.22 226.94 377.24 224.98 379.28C223.02 381.32 222.04 384.28 222.04 388.16V404H219.04V374H222.04V379.7C224.2 375.46 227.78 373.34 232.78 373.34ZM267.247 404.66C262.727 404.66 258.967 403.16 255.967 400.16C252.967 397.16 251.467 393.44 251.467 389C251.467 384.56 252.967 380.84 255.967 377.84C258.967 374.84 262.727 373.34 267.247 373.34C270.167 373.34 272.807 374.04 275.167 375.44C277.527 376.8 279.247 378.66 280.327 381.02L277.867 382.46C276.987 380.54 275.587 379.02 273.667 377.9C271.787 376.78 269.647 376.22 267.247 376.22C263.647 376.22 260.627 377.46 258.187 379.94C255.747 382.38 254.527 385.4 254.527 389C254.527 392.6 255.747 395.64 258.187 398.12C260.627 400.56 263.647 401.78 267.247 401.78C269.647 401.78 271.787 401.22 273.667 400.1C275.587 398.98 277.047 397.46 278.047 395.54L280.567 397.04C279.367 399.36 277.567 401.22 275.167 402.62C272.807 403.98 270.167 404.66 267.247 404.66ZM301.187 404.66C296.787 404.66 293.047 403.16 289.967 400.16C286.927 397.12 285.407 393.4 285.407 389C285.407 384.6 286.927 380.9 289.967 377.9C293.047 374.86 296.787 373.34 301.187 373.34C305.547 373.34 309.247 374.86 312.287 377.9C315.367 380.9 316.907 384.6 316.907 389C316.907 393.4 315.367 397.12 312.287 400.16C309.247 403.16 305.547 404.66 301.187 404.66ZM292.127 398.06C294.607 400.54 297.627 401.78 301.187 401.78C304.747 401.78 307.747 400.54 310.187 398.06C312.627 395.58 313.847 392.56 313.847 389C313.847 385.44 312.627 382.42 310.187 379.94C307.747 377.46 304.747 376.22 301.187 376.22C297.627 376.22 294.607 377.46 292.127 379.94C289.687 382.42 288.467 385.44 288.467 389C288.467 392.56 289.687 395.58 292.127 398.06ZM346.326 374H349.326V404H346.326V398.3C344.166 402.54 340.586 404.66 335.586 404.66C332.026 404.66 329.186 403.58 327.066 401.42C324.986 399.22 323.946 396.3 323.946 392.66V374H327.006V392.66C327.006 395.46 327.766 397.68 329.286 399.32C330.846 400.96 333.026 401.78 335.826 401.78C338.906 401.78 341.426 400.76 343.386 398.72C345.346 396.68 346.326 393.72 346.326 389.84V374ZM362.193 379.88C363.993 375.68 367.333 373.58 372.213 373.58V376.46C369.373 376.46 366.993 377.38 365.073 379.22C363.153 381.02 362.193 383.72 362.193 387.32V404H359.193V374H362.193V379.88ZM403.479 374H406.539V404H403.479V397.22C402.199 399.54 400.439 401.36 398.199 402.68C395.959 404 393.419 404.66 390.579 404.66C386.299 404.66 382.639 403.16 379.599 400.16C376.559 397.12 375.039 393.4 375.039 389C375.039 384.6 376.559 380.9 379.599 377.9C382.639 374.86 386.299 373.34 390.579 373.34C393.419 373.34 395.959 374 398.199 375.32C400.439 376.64 402.199 378.46 403.479 380.78V374ZM381.759 398.06C384.239 400.54 387.259 401.78 390.819 401.78C394.379 401.78 397.379 400.54 399.819 398.06C402.259 395.58 403.479 392.56 403.479 389C403.479 385.44 402.259 382.42 399.819 379.94C397.379 377.46 394.379 376.22 390.819 376.22C387.259 376.22 384.239 377.46 381.759 379.94C379.319 382.42 378.099 385.44 378.099 389C378.099 392.56 379.319 395.58 381.759 398.06ZM442.99 374H445.99V402.56C445.99 406.92 444.57 410.36 441.73 412.88C438.89 415.4 435.33 416.66 431.05 416.66C427.61 416.66 424.67 416.02 422.23 414.74C419.79 413.46 418.01 411.7 416.89 409.46L419.53 407.96C421.45 411.84 425.29 413.78 431.05 413.78C434.77 413.78 437.69 412.76 439.81 410.72C441.93 408.72 442.99 406 442.99 402.56V397.04C441.75 399.4 439.99 401.26 437.71 402.62C435.47 403.98 432.93 404.66 430.09 404.66C425.77 404.66 422.09 403.16 419.05 400.16C416.05 397.12 414.55 393.4 414.55 389C414.55 384.6 416.05 380.9 419.05 377.9C422.09 374.86 425.77 373.34 430.09 373.34C432.93 373.34 435.47 374.02 437.71 375.38C439.99 376.74 441.75 378.6 442.99 380.96V374ZM421.21 398.06C423.69 400.54 426.71 401.78 430.27 401.78C433.83 401.78 436.83 400.54 439.27 398.06C441.75 395.58 442.99 392.56 442.99 389C442.99 385.44 441.75 382.42 439.27 379.94C436.83 377.46 433.83 376.22 430.27 376.22C426.71 376.22 423.69 377.46 421.21 379.94C418.77 382.42 417.55 385.44 417.55 389C417.55 392.56 418.77 395.58 421.21 398.06ZM469.357 373.34C473.757 373.34 477.317 374.9 480.037 378.02C482.797 381.14 484.177 384.84 484.177 389.12C484.177 389.28 484.157 389.52 484.117 389.84C484.117 390.16 484.117 390.4 484.117 390.56H456.937C457.297 393.92 458.637 396.64 460.957 398.72C463.317 400.76 466.217 401.78 469.657 401.78C472.057 401.78 474.157 401.28 475.957 400.28C477.757 399.28 479.117 397.96 480.037 396.32L482.677 397.88C481.437 399.96 479.677 401.62 477.397 402.86C475.117 404.06 472.517 404.66 469.597 404.66C464.997 404.66 461.217 403.2 458.257 400.28C455.297 397.32 453.817 393.56 453.817 389C453.817 384.52 455.257 380.8 458.137 377.84C461.057 374.84 464.797 373.34 469.357 373.34ZM469.357 376.22C465.957 376.22 463.117 377.28 460.837 379.4C458.557 381.52 457.257 384.26 456.937 387.62H481.057C480.737 384.06 479.457 381.28 477.217 379.28C475.017 377.24 472.397 376.22 469.357 376.22ZM540.425 373.34C543.705 373.34 546.345 374.36 548.345 376.4C550.345 378.44 551.345 381.3 551.345 384.98V404H548.345V384.98C548.345 382.18 547.605 380.02 546.125 378.5C544.685 376.98 542.765 376.22 540.365 376.22C537.685 376.22 535.505 377.14 533.825 378.98C532.185 380.82 531.365 383.58 531.365 387.26V404H528.365V384.98C528.365 382.18 527.665 380.02 526.265 378.5C524.905 376.98 523.045 376.22 520.685 376.22C518.045 376.22 515.825 377.16 514.025 379.04C512.265 380.88 511.385 383.62 511.385 387.26V404H508.385V374H511.385V379.16C513.465 375.28 516.685 373.34 521.045 373.34C523.245 373.34 525.165 373.88 526.805 374.96C528.445 376 529.645 377.5 530.405 379.46C531.445 377.42 532.845 375.9 534.605 374.9C536.405 373.86 538.345 373.34 540.425 373.34ZM574.17 404.66C569.77 404.66 566.03 403.16 562.95 400.16C559.91 397.12 558.39 393.4 558.39 389C558.39 384.6 559.91 380.9 562.95 377.9C566.03 374.86 569.77 373.34 574.17 373.34C578.53 373.34 582.23 374.86 585.27 377.9C588.35 380.9 589.89 384.6 589.89 389C589.89 393.4 588.35 397.12 585.27 400.16C582.23 403.16 578.53 404.66 574.17 404.66ZM565.11 398.06C567.59 400.54 570.61 401.78 574.17 401.78C577.73 401.78 580.73 400.54 583.17 398.06C585.61 395.58 586.83 392.56 586.83 389C586.83 385.44 585.61 382.42 583.17 379.94C580.73 377.46 577.73 376.22 574.17 376.22C570.61 376.22 567.59 377.46 565.11 379.94C562.67 382.42 561.45 385.44 561.45 389C561.45 392.56 562.67 395.58 565.11 398.06ZM600.71 379.88C602.51 375.68 605.85 373.58 610.73 373.58V376.46C607.89 376.46 605.51 377.38 603.59 379.22C601.67 381.02 600.71 383.72 600.71 387.32V404H597.71V374H600.71V379.88ZM629.095 373.34C633.495 373.34 637.055 374.9 639.775 378.02C642.535 381.14 643.915 384.84 643.915 389.12C643.915 389.28 643.895 389.52 643.855 389.84C643.855 390.16 643.855 390.4 643.855 390.56H616.675C617.035 393.92 618.375 396.64 620.695 398.72C623.055 400.76 625.955 401.78 629.395 401.78C631.795 401.78 633.895 401.28 635.695 400.28C637.495 399.28 638.855 397.96 639.775 396.32L642.415 397.88C641.175 399.96 639.415 401.62 637.135 402.86C634.855 404.06 632.255 404.66 629.335 404.66C624.735 404.66 620.955 403.2 617.995 400.28C615.035 397.32 613.555 393.56 613.555 389C613.555 384.52 614.995 380.8 617.875 377.84C620.795 374.84 624.535 373.34 629.095 373.34ZM629.095 376.22C625.695 376.22 622.855 377.28 620.575 379.4C618.295 381.52 616.995 384.26 616.675 387.62H640.795C640.475 384.06 639.195 381.28 636.955 379.28C634.755 377.24 632.135 376.22 629.095 376.22ZM694.763 374H697.763V402.56C697.763 406.92 696.343 410.36 693.503 412.88C690.663 415.4 687.103 416.66 682.823 416.66C679.383 416.66 676.443 416.02 674.003 414.74C671.563 413.46 669.783 411.7 668.663 409.46L671.303 407.96C673.223 411.84 677.063 413.78 682.823 413.78C686.543 413.78 689.463 412.76 691.583 410.72C693.703 408.72 694.763 406 694.763 402.56V397.04C693.523 399.4 691.763 401.26 689.483 402.62C687.243 403.98 684.703 404.66 681.863 404.66C677.543 404.66 673.863 403.16 670.823 400.16C667.823 397.12 666.323 393.4 666.323 389C666.323 384.6 667.823 380.9 670.823 377.9C673.863 374.86 677.543 373.34 681.863 373.34C684.703 373.34 687.243 374.02 689.483 375.38C691.763 376.74 693.523 378.6 694.763 380.96V374ZM672.983 398.06C675.463 400.54 678.483 401.78 682.043 401.78C685.603 401.78 688.603 400.54 691.043 398.06C693.523 395.58 694.763 392.56 694.763 389C694.763 385.44 693.523 382.42 691.043 379.94C688.603 377.46 685.603 376.22 682.043 376.22C678.483 376.22 675.463 377.46 672.983 379.94C670.543 382.42 669.323 385.44 669.323 389C669.323 392.56 670.543 395.58 672.983 398.06ZM721.129 373.34C725.529 373.34 729.089 374.9 731.809 378.02C734.569 381.14 735.949 384.84 735.949 389.12C735.949 389.28 735.929 389.52 735.889 389.84C735.889 390.16 735.889 390.4 735.889 390.56H708.709C709.069 393.92 710.409 396.64 712.729 398.72C715.089 400.76 717.989 401.78 721.429 401.78C723.829 401.78 725.929 401.28 727.729 400.28C729.529 399.28 730.889 397.96 731.809 396.32L734.449 397.88C733.209 399.96 731.449 401.62 729.169 402.86C726.889 404.06 724.289 404.66 721.369 404.66C716.769 404.66 712.989 403.2 710.029 400.28C707.069 397.32 705.589 393.56 705.589 389C705.589 384.52 707.029 380.8 709.909 377.84C712.829 374.84 716.569 373.34 721.129 373.34ZM721.129 376.22C717.729 376.22 714.889 377.28 712.609 379.4C710.329 381.52 709.029 384.26 708.709 387.62H732.829C732.509 384.06 731.229 381.28 728.989 379.28C726.789 377.24 724.169 376.22 721.129 376.22ZM757.301 373.34C760.861 373.34 763.681 374.44 765.761 376.64C767.881 378.8 768.941 381.7 768.941 385.34V404H765.881V385.34C765.881 382.54 765.101 380.32 763.541 378.68C762.021 377.04 759.861 376.22 757.061 376.22C753.981 376.22 751.461 377.24 749.501 379.28C747.541 381.32 746.561 384.28 746.561 388.16V404H743.561V374H746.561V379.7C748.721 375.46 752.301 373.34 757.301 373.34ZM804.489 362H807.489V404H804.489V397.04C803.249 399.4 801.489 401.26 799.209 402.62C796.969 403.98 794.429 404.66 791.589 404.66C787.269 404.66 783.589 403.16 780.549 400.16C777.549 397.12 776.049 393.4 776.049 389C776.049 384.6 777.549 380.9 780.549 377.9C783.589 374.86 787.269 373.34 791.589 373.34C794.429 373.34 796.969 374.02 799.209 375.38C801.489 376.74 803.249 378.6 804.489 380.96V362ZM782.709 398.06C785.189 400.54 788.209 401.78 791.769 401.78C795.329 401.78 798.329 400.54 800.769 398.06C803.249 395.58 804.489 392.56 804.489 389C804.489 385.44 803.249 382.42 800.769 379.94C798.329 377.46 795.329 376.22 791.769 376.22C788.209 376.22 785.189 377.46 782.709 379.94C780.269 382.42 779.049 385.44 779.049 389C779.049 392.56 780.269 395.58 782.709 398.06ZM830.8 373.34C835.2 373.34 838.76 374.9 841.48 378.02C844.24 381.14 845.62 384.84 845.62 389.12C845.62 389.28 845.6 389.52 845.56 389.84C845.56 390.16 845.56 390.4 845.56 390.56H818.38C818.74 393.92 820.08 396.64 822.4 398.72C824.76 400.76 827.66 401.78 831.1 401.78C833.5 401.78 835.6 401.28 837.4 400.28C839.2 399.28 840.56 397.96 841.48 396.32L844.12 397.88C842.88 399.96 841.12 401.62 838.84 402.86C836.56 404.06 833.96 404.66 831.04 404.66C826.44 404.66 822.66 403.2 819.7 400.28C816.74 397.32 815.26 393.56 815.26 389C815.26 384.52 816.7 380.8 819.58 377.84C822.5 374.84 826.24 373.34 830.8 373.34ZM830.8 376.22C827.4 376.22 824.56 377.28 822.28 379.4C820 381.52 818.7 384.26 818.38 387.62H842.5C842.18 384.06 840.9 381.28 838.66 379.28C836.46 377.24 833.84 376.22 830.8 376.22ZM856.232 379.88C858.032 375.68 861.372 373.58 866.252 373.58V376.46C863.412 376.46 861.032 377.38 859.112 379.22C857.192 381.02 856.232 383.72 856.232 387.32V404H853.232V374H856.232V379.88ZM128.08 464H131.08V506H128.08V499.04C126.84 501.4 125.08 503.26 122.8 504.62C120.56 505.98 118.02 506.66 115.18 506.66C110.86 506.66 107.18 505.16 104.14 502.16C101.14 499.12 99.64 495.4 99.64 491C99.64 486.6 101.14 482.9 104.14 479.9C107.18 476.86 110.86 475.34 115.18 475.34C118.02 475.34 120.56 476.02 122.8 477.38C125.08 478.74 126.84 480.6 128.08 482.96V464ZM106.3 500.06C108.78 502.54 111.8 503.78 115.36 503.78C118.92 503.78 121.92 502.54 124.36 500.06C126.84 497.58 128.08 494.56 128.08 491C128.08 487.44 126.84 484.42 124.36 481.94C121.92 479.46 118.92 478.22 115.36 478.22C111.8 478.22 108.78 479.46 106.3 481.94C103.86 484.42 102.64 487.44 102.64 491C102.64 494.56 103.86 497.58 106.3 500.06ZM144.072 468.08C143.592 468.52 143.032 468.74 142.392 468.74C141.752 468.74 141.192 468.52 140.712 468.08C140.232 467.6 139.992 467.02 139.992 466.34C139.992 465.7 140.232 465.16 140.712 464.72C141.192 464.24 141.752 464 142.392 464C143.032 464 143.592 464.24 144.072 464.72C144.552 465.16 144.792 465.7 144.792 466.34C144.792 467.02 144.552 467.6 144.072 468.08ZM140.892 506V476H143.892V506H140.892ZM175.758 476H178.938L166.278 506H162.618L149.898 476H153.138L164.418 502.88L175.758 476ZM197.311 475.34C201.711 475.34 205.271 476.9 207.991 480.02C210.751 483.14 212.131 486.84 212.131 491.12C212.131 491.28 212.111 491.52 212.071 491.84C212.071 492.16 212.071 492.4 212.071 492.56H184.891C185.251 495.92 186.591 498.64 188.911 500.72C191.271 502.76 194.171 503.78 197.611 503.78C200.011 503.78 202.111 503.28 203.911 502.28C205.711 501.28 207.071 499.96 207.991 498.32L210.631 499.88C209.391 501.96 207.631 503.62 205.351 504.86C203.071 506.06 200.471 506.66 197.551 506.66C192.951 506.66 189.171 505.2 186.211 502.28C183.251 499.32 181.771 495.56 181.771 491C181.771 486.52 183.211 482.8 186.091 479.84C189.011 476.84 192.751 475.34 197.311 475.34ZM197.311 478.22C193.911 478.22 191.071 479.28 188.791 481.4C186.511 483.52 185.211 486.26 184.891 489.62H209.011C208.691 486.06 207.411 483.28 205.171 481.28C202.971 479.24 200.351 478.22 197.311 478.22ZM222.743 481.88C224.543 477.68 227.883 475.58 232.763 475.58V478.46C229.923 478.46 227.543 479.38 225.623 481.22C223.703 483.02 222.743 485.72 222.743 489.32V506H219.743V476H222.743V481.88ZM240.312 483.86C240.312 485.34 240.932 486.5 242.172 487.34C243.412 488.18 244.932 488.82 246.732 489.26C248.532 489.66 250.312 490.12 252.072 490.64C253.872 491.16 255.392 492.04 256.632 493.28C257.872 494.48 258.492 496.1 258.492 498.14C258.492 500.62 257.492 502.66 255.492 504.26C253.532 505.86 250.952 506.66 247.752 506.66C244.872 506.66 242.432 506.06 240.432 504.86C238.472 503.62 237.112 502 236.352 500L238.932 498.5C239.492 500.14 240.532 501.44 242.052 502.4C243.612 503.32 245.512 503.78 247.752 503.78C249.992 503.78 251.832 503.3 253.272 502.34C254.752 501.34 255.492 499.94 255.492 498.14C255.492 496.66 254.872 495.48 253.632 494.6C252.392 493.72 250.872 493.08 249.072 492.68C247.272 492.24 245.472 491.76 243.672 491.24C241.912 490.72 240.412 489.86 239.172 488.66C237.932 487.46 237.312 485.86 237.312 483.86C237.312 481.46 238.252 479.44 240.132 477.8C242.052 476.16 244.512 475.34 247.512 475.34C249.912 475.34 251.992 475.88 253.752 476.96C255.552 478.04 256.872 479.5 257.712 481.34L255.192 482.78C254.592 481.3 253.592 480.18 252.192 479.42C250.792 478.62 249.232 478.22 247.512 478.22C245.472 478.22 243.752 478.74 242.352 479.78C240.992 480.78 240.312 482.14 240.312 483.86ZM269.24 468.08C268.76 468.52 268.2 468.74 267.56 468.74C266.92 468.74 266.36 468.52 265.88 468.08C265.4 467.6 265.16 467.02 265.16 466.34C265.16 465.7 265.4 465.16 265.88 464.72C266.36 464.24 266.92 464 267.56 464C268.2 464 268.76 464.24 269.24 464.72C269.72 465.16 269.96 465.7 269.96 466.34C269.96 467.02 269.72 467.6 269.24 468.08ZM266.06 506V476H269.06V506H266.06ZM294.266 478.94H285.326V498.44C285.326 500.16 285.646 501.4 286.286 502.16C286.926 502.92 287.906 503.36 289.226 503.48C290.546 503.56 292.226 503.5 294.266 503.3V506C290.226 506.6 287.206 506.32 285.206 505.16C283.246 504 282.266 501.76 282.266 498.44V478.94H275.666V476H282.266V468.5L285.326 467.6V476H294.266V478.94ZM324.61 476H327.85L314.89 508.76C313.73 511.72 312.09 514.04 309.97 515.72C307.85 517.44 305.53 518.2 303.01 518V515.18C304.93 515.34 306.65 514.78 308.17 513.5C309.73 512.26 310.99 510.48 311.95 508.16L312.61 506.54L298.81 476H302.05L314.17 502.7L324.61 476ZM333.546 501.92L330.306 514.4H327.546L329.826 501.92H333.546ZM395.421 476H398.601L389.121 506H385.821L377.481 480.44L369.141 506H365.841L356.361 476H359.541L367.521 502.1L375.921 476H379.041L387.441 502.1L395.421 476ZM418.101 475.34C422.501 475.34 426.061 476.9 428.781 480.02C431.541 483.14 432.921 486.84 432.921 491.12C432.921 491.28 432.901 491.52 432.861 491.84C432.861 492.16 432.861 492.4 432.861 492.56H405.681C406.041 495.92 407.381 498.64 409.701 500.72C412.061 502.76 414.961 503.78 418.401 503.78C420.801 503.78 422.901 503.28 424.701 502.28C426.501 501.28 427.861 499.96 428.781 498.32L431.421 499.88C430.181 501.96 428.421 503.62 426.141 504.86C423.861 506.06 421.261 506.66 418.341 506.66C413.741 506.66 409.961 505.2 407.001 502.28C404.041 499.32 402.561 495.56 402.561 491C402.561 486.52 404.001 482.8 406.881 479.84C409.801 476.84 413.541 475.34 418.101 475.34ZM418.101 478.22C414.701 478.22 411.861 479.28 409.581 481.4C407.301 483.52 406.001 486.26 405.681 489.62H429.801C429.481 486.06 428.201 483.28 425.961 481.28C423.761 479.24 421.141 478.22 418.101 478.22ZM483.529 476H486.589V506H483.529V499.22C482.249 501.54 480.489 503.36 478.249 504.68C476.009 506 473.469 506.66 470.629 506.66C466.349 506.66 462.689 505.16 459.649 502.16C456.609 499.12 455.089 495.4 455.089 491C455.089 486.6 456.609 482.9 459.649 479.9C462.689 476.86 466.349 475.34 470.629 475.34C473.469 475.34 476.009 476 478.249 477.32C480.489 478.64 482.249 480.46 483.529 482.78V476ZM461.809 500.06C464.289 502.54 467.309 503.78 470.869 503.78C474.429 503.78 477.429 502.54 479.869 500.06C482.309 497.58 483.529 494.56 483.529 491C483.529 487.44 482.309 484.42 479.869 481.94C477.429 479.46 474.429 478.22 470.869 478.22C467.309 478.22 464.289 479.46 461.809 481.94C459.369 484.42 458.149 487.44 458.149 491C458.149 494.56 459.369 497.58 461.809 500.06ZM499.401 481.88C501.201 477.68 504.541 475.58 509.421 475.58V478.46C506.581 478.46 504.201 479.38 502.281 481.22C500.361 483.02 499.401 485.72 499.401 489.32V506H496.401V476H499.401V481.88ZM527.786 475.34C532.186 475.34 535.746 476.9 538.466 480.02C541.226 483.14 542.606 486.84 542.606 491.12C542.606 491.28 542.586 491.52 542.546 491.84C542.546 492.16 542.546 492.4 542.546 492.56H515.366C515.726 495.92 517.066 498.64 519.386 500.72C521.746 502.76 524.646 503.78 528.086 503.78C530.486 503.78 532.586 503.28 534.386 502.28C536.186 501.28 537.546 499.96 538.466 498.32L541.106 499.88C539.866 501.96 538.106 503.62 535.826 504.86C533.546 506.06 530.946 506.66 528.026 506.66C523.426 506.66 519.646 505.2 516.686 502.28C513.726 499.32 512.246 495.56 512.246 491C512.246 486.52 513.686 482.8 516.566 479.84C519.486 476.84 523.226 475.34 527.786 475.34ZM527.786 478.22C524.386 478.22 521.546 479.28 519.266 481.4C516.986 483.52 515.686 486.26 515.366 489.62H539.486C539.166 486.06 537.886 483.28 535.646 481.28C533.446 479.24 530.826 478.22 527.786 478.22ZM580.555 506.66C576.155 506.66 572.415 505.16 569.335 502.16C566.295 499.12 564.775 495.4 564.775 491C564.775 486.6 566.295 482.9 569.335 479.9C572.415 476.86 576.155 475.34 580.555 475.34C584.915 475.34 588.615 476.86 591.655 479.9C594.735 482.9 596.275 486.6 596.275 491C596.275 495.4 594.735 499.12 591.655 502.16C588.615 505.16 584.915 506.66 580.555 506.66ZM571.495 500.06C573.975 502.54 576.995 503.78 580.555 503.78C584.115 503.78 587.115 502.54 589.555 500.06C591.995 497.58 593.215 494.56 593.215 491C593.215 487.44 591.995 484.42 589.555 481.94C587.115 479.46 584.115 478.22 580.555 478.22C576.995 478.22 573.975 479.46 571.495 481.94C569.055 484.42 567.835 487.44 567.835 491C567.835 494.56 569.055 497.58 571.495 500.06ZM633.282 465.62C627.322 465.14 624.342 467.86 624.342 473.78V476H633.282V478.94H624.342V506H621.282V478.94H608.142V506H605.082V478.94H599.922V476H605.082V474.38C605.082 470.62 606.102 467.78 608.142 465.86C610.222 463.9 613.202 463.06 617.082 463.34V466.22C611.122 465.74 608.142 468.46 608.142 474.38V476H621.282V473.78C621.282 470.02 622.302 467.18 624.342 465.26C626.422 463.3 629.402 462.46 633.282 462.74V465.62ZM650.011 475.34C654.411 475.34 657.971 476.9 660.691 480.02C663.451 483.14 664.831 486.84 664.831 491.12C664.831 491.28 664.811 491.52 664.771 491.84C664.771 492.16 664.771 492.4 664.771 492.56H637.591C637.951 495.92 639.291 498.64 641.611 500.72C643.971 502.76 646.871 503.78 650.311 503.78C652.711 503.78 654.811 503.28 656.611 502.28C658.411 501.28 659.771 499.96 660.691 498.32L663.331 499.88C662.091 501.96 660.331 503.62 658.051 504.86C655.771 506.06 653.171 506.66 650.251 506.66C645.651 506.66 641.871 505.2 638.911 502.28C635.951 499.32 634.471 495.56 634.471 491C634.471 486.52 635.911 482.8 638.791 479.84C641.711 476.84 645.451 475.34 650.011 475.34ZM650.011 478.22C646.611 478.22 643.771 479.28 641.491 481.4C639.211 483.52 637.911 486.26 637.591 489.62H661.711C661.391 486.06 660.111 483.28 657.871 481.28C655.671 479.24 653.051 478.22 650.011 478.22ZM675.443 481.88C677.243 477.68 680.583 475.58 685.463 475.58V478.46C682.623 478.46 680.243 479.38 678.323 481.22C676.403 483.02 675.443 485.72 675.443 489.32V506H672.443V476H675.443V481.88ZM695.324 468.08C694.844 468.52 694.284 468.74 693.644 468.74C693.004 468.74 692.444 468.52 691.964 468.08C691.484 467.6 691.244 467.02 691.244 466.34C691.244 465.7 691.484 465.16 691.964 464.72C692.444 464.24 693.004 464 693.644 464C694.284 464 694.844 464.24 695.324 464.72C695.804 465.16 696.044 465.7 696.044 466.34C696.044 467.02 695.804 467.6 695.324 468.08ZM692.144 506V476H695.144V506H692.144ZM718.73 475.34C722.29 475.34 725.11 476.44 727.19 478.64C729.31 480.8 730.37 483.7 730.37 487.34V506H727.31V487.34C727.31 484.54 726.53 482.32 724.97 480.68C723.45 479.04 721.29 478.22 718.49 478.22C715.41 478.22 712.89 479.24 710.93 481.28C708.97 483.32 707.99 486.28 707.99 490.16V506H704.99V476H707.99V481.7C710.15 477.46 713.73 475.34 718.73 475.34ZM766.098 476H769.098V504.56C769.098 508.92 767.678 512.36 764.838 514.88C761.998 517.4 758.438 518.66 754.158 518.66C750.718 518.66 747.778 518.02 745.338 516.74C742.898 515.46 741.118 513.7 739.998 511.46L742.638 509.96C744.558 513.84 748.398 515.78 754.158 515.78C757.878 515.78 760.798 514.76 762.918 512.72C765.038 510.72 766.098 508 766.098 504.56V499.04C764.858 501.4 763.098 503.26 760.818 504.62C758.578 505.98 756.038 506.66 753.198 506.66C748.878 506.66 745.198 505.16 742.158 502.16C739.158 499.12 737.658 495.4 737.658 491C737.658 486.6 739.158 482.9 742.158 479.9C745.198 476.86 748.878 475.34 753.198 475.34C756.038 475.34 758.578 476.02 760.818 477.38C763.098 478.74 764.858 480.6 766.098 482.96V476ZM744.318 500.06C746.798 502.54 749.818 503.78 753.378 503.78C756.938 503.78 759.938 502.54 762.378 500.06C764.858 497.58 766.098 494.56 766.098 491C766.098 487.44 764.858 484.42 762.378 481.94C759.938 479.46 756.938 478.22 753.378 478.22C749.818 478.22 746.798 479.46 744.318 481.94C741.878 484.42 740.658 487.44 740.658 491C740.658 494.56 741.878 497.58 744.318 500.06ZM821.36 495.26C821.36 498.38 820.28 500.98 818.12 503.06C816 505.1 813.2 506.28 809.72 506.6V512H806.9V506.66C803.58 506.5 800.74 505.68 798.38 504.2C796.06 502.72 794.44 500.7 793.52 498.14L796.28 496.58C797.72 500.94 801.26 503.28 806.9 503.6V485.78C805.02 485.14 803.52 484.56 802.4 484.04C801.32 483.52 800.18 482.82 798.98 481.94C797.78 481.06 796.9 480 796.34 478.76C795.78 477.48 795.5 475.98 795.5 474.26C795.5 471.22 796.58 468.7 798.74 466.7C800.9 464.7 803.62 463.6 806.9 463.4V458H809.72V463.4C812.16 463.68 814.3 464.46 816.14 465.74C818.02 467.02 819.42 468.76 820.34 470.96L817.64 472.46C816.24 468.98 813.6 467 809.72 466.52V483.56C811.16 484.08 812.36 484.54 813.32 484.94C814.28 485.34 815.32 485.88 816.44 486.56C817.56 487.24 818.44 487.96 819.08 488.72C819.72 489.44 820.26 490.36 820.7 491.48C821.14 492.6 821.36 493.86 821.36 495.26ZM798.68 474.26C798.68 476.42 799.36 478.1 800.72 479.3C802.08 480.46 804.14 481.54 806.9 482.54V466.46C804.46 466.66 802.48 467.48 800.96 468.92C799.44 470.36 798.68 472.14 798.68 474.26ZM809.72 503.48C812.36 503.2 814.42 502.32 815.9 500.84C817.38 499.32 818.12 497.46 818.12 495.26C818.12 493.06 817.42 491.34 816.02 490.1C814.62 488.86 812.52 487.74 809.72 486.74V503.48ZM836.528 464H839.228V506H836.048V467.48L826.328 470.54L825.548 467.78L836.528 464ZM875.53 500.78C872.77 504.7 868.91 506.66 863.95 506.66C858.99 506.66 855.13 504.7 852.37 500.78C849.61 496.86 848.23 491.6 848.23 485C848.23 478.4 849.61 473.14 852.37 469.22C855.13 465.3 858.99 463.34 863.95 463.34C868.91 463.34 872.77 465.3 875.53 469.22C878.29 473.14 879.67 478.4 879.67 485C879.67 491.6 878.29 496.86 875.53 500.78ZM854.77 498.74C856.97 501.98 860.03 503.6 863.95 503.6C867.87 503.6 870.93 501.98 873.13 498.74C875.33 495.46 876.43 490.88 876.43 485C876.43 479.12 875.33 474.56 873.13 471.32C870.93 468.04 867.87 466.4 863.95 466.4C860.03 466.4 856.97 468.04 854.77 471.32C852.57 474.56 851.47 479.12 851.47 485C851.47 490.88 852.57 495.46 854.77 498.74ZM116.98 580.94H108.04V600.44C108.04 602.16 108.36 603.4 109 604.16C109.64 604.92 110.62 605.36 111.94 605.48C113.26 605.56 114.94 605.5 116.98 605.3V608C112.94 608.6 109.92 608.32 107.92 607.16C105.96 606 104.98 603.76 104.98 600.44V580.94H98.38V578H104.98V570.5L108.04 569.6V578H116.98V580.94ZM127.959 570.08C127.479 570.52 126.919 570.74 126.279 570.74C125.639 570.74 125.079 570.52 124.599 570.08C124.119 569.6 123.879 569.02 123.879 568.34C123.879 567.7 124.119 567.16 124.599 566.72C125.079 566.24 125.639 566 126.279 566C126.919 566 127.479 566.24 127.959 566.72C128.439 567.16 128.679 567.7 128.679 568.34C128.679 569.02 128.439 569.6 127.959 570.08ZM124.779 608V578H127.779V608H124.779ZM151.365 608.66C146.845 608.66 143.085 607.16 140.085 604.16C137.085 601.16 135.585 597.44 135.585 593C135.585 588.56 137.085 584.84 140.085 581.84C143.085 578.84 146.845 577.34 151.365 577.34C154.285 577.34 156.925 578.04 159.285 579.44C161.645 580.8 163.365 582.66 164.445 585.02L161.985 586.46C161.105 584.54 159.705 583.02 157.785 581.9C155.905 580.78 153.765 580.22 151.365 580.22C147.765 580.22 144.745 581.46 142.305 583.94C139.865 586.38 138.645 589.4 138.645 593C138.645 596.6 139.865 599.64 142.305 602.12C144.745 604.56 147.765 605.78 151.365 605.78C153.765 605.78 155.905 605.22 157.785 604.1C159.705 602.98 161.165 601.46 162.165 599.54L164.685 601.04C163.485 603.36 161.685 605.22 159.285 606.62C156.925 607.98 154.285 608.66 151.365 608.66ZM194.838 608H190.758L174.858 593.24V608H171.858V566H174.858V591.62L190.038 578H194.238L178.098 592.4L194.838 608ZM211.973 577.34C216.373 577.34 219.933 578.9 222.653 582.02C225.413 585.14 226.793 588.84 226.793 593.12C226.793 593.28 226.773 593.52 226.733 593.84C226.733 594.16 226.733 594.4 226.733 594.56H199.553C199.913 597.92 201.253 600.64 203.573 602.72C205.933 604.76 208.833 605.78 212.273 605.78C214.673 605.78 216.773 605.28 218.573 604.28C220.373 603.28 221.733 601.96 222.653 600.32L225.293 601.88C224.053 603.96 222.293 605.62 220.013 606.86C217.733 608.06 215.133 608.66 212.213 608.66C207.613 608.66 203.833 607.2 200.873 604.28C197.913 601.32 196.433 597.56 196.433 593C196.433 588.52 197.873 584.8 200.753 581.84C203.673 578.84 207.413 577.34 211.973 577.34ZM211.973 580.22C208.573 580.22 205.733 581.28 203.453 583.4C201.173 585.52 199.873 588.26 199.553 591.62H223.673C223.353 588.06 222.073 585.28 219.833 583.28C217.633 581.24 215.013 580.22 211.973 580.22ZM248.886 580.94H239.946V600.44C239.946 602.16 240.266 603.4 240.906 604.16C241.546 604.92 242.526 605.36 243.846 605.48C245.166 605.56 246.846 605.5 248.886 605.3V608C244.846 608.6 241.826 608.32 239.826 607.16C237.866 606 236.886 603.76 236.886 600.44V580.94H230.286V578H236.886V570.5L239.946 569.6V578H248.886V580.94ZM256.908 585.86C256.908 587.34 257.528 588.5 258.768 589.34C260.008 590.18 261.528 590.82 263.328 591.26C265.128 591.66 266.908 592.12 268.668 592.64C270.468 593.16 271.988 594.04 273.228 595.28C274.468 596.48 275.088 598.1 275.088 600.14C275.088 602.62 274.088 604.66 272.088 606.26C270.128 607.86 267.548 608.66 264.348 608.66C261.468 608.66 259.028 608.06 257.028 606.86C255.068 605.62 253.708 604 252.948 602L255.528 600.5C256.088 602.14 257.128 603.44 258.648 604.4C260.208 605.32 262.108 605.78 264.348 605.78C266.588 605.78 268.428 605.3 269.868 604.34C271.348 603.34 272.088 601.94 272.088 600.14C272.088 598.66 271.468 597.48 270.228 596.6C268.988 595.72 267.468 595.08 265.668 594.68C263.868 594.24 262.068 593.76 260.268 593.24C258.508 592.72 257.008 591.86 255.768 590.66C254.528 589.46 253.908 587.86 253.908 585.86C253.908 583.46 254.848 581.44 256.728 579.8C258.648 578.16 261.108 577.34 264.108 577.34C266.508 577.34 268.588 577.88 270.348 578.96C272.148 580.04 273.468 581.5 274.308 583.34L271.788 584.78C271.188 583.3 270.188 582.18 268.788 581.42C267.388 580.62 265.828 580.22 264.108 580.22C262.068 580.22 260.348 580.74 258.948 581.78C257.588 582.78 256.908 584.14 256.908 585.86ZM313.705 568.22C307.745 567.74 304.765 570.46 304.765 576.38V578H313.705V580.94H304.765V608H301.705V580.94H296.545V578H301.705V576.38C301.705 572.62 302.725 569.78 304.765 567.86C306.845 565.9 309.825 565.06 313.705 565.34V568.22ZM330.701 608.66C326.301 608.66 322.561 607.16 319.481 604.16C316.441 601.12 314.921 597.4 314.921 593C314.921 588.6 316.441 584.9 319.481 581.9C322.561 578.86 326.301 577.34 330.701 577.34C335.061 577.34 338.761 578.86 341.801 581.9C344.881 584.9 346.421 588.6 346.421 593C346.421 597.4 344.881 601.12 341.801 604.16C338.761 607.16 335.061 608.66 330.701 608.66ZM321.641 602.06C324.121 604.54 327.141 605.78 330.701 605.78C334.261 605.78 337.261 604.54 339.701 602.06C342.141 599.58 343.361 596.56 343.361 593C343.361 589.44 342.141 586.42 339.701 583.94C337.261 581.46 334.261 580.22 330.701 580.22C327.141 580.22 324.121 581.46 321.641 583.94C319.201 586.42 317.981 589.44 317.981 593C317.981 596.56 319.201 599.58 321.641 602.06ZM357.241 583.88C359.041 579.68 362.381 577.58 367.261 577.58V580.46C364.421 580.46 362.041 581.38 360.121 583.22C358.201 585.02 357.241 587.72 357.241 591.32V608H354.241V578H357.241V583.88ZM426.959 578H430.139L420.659 608H417.359L409.019 582.44L400.679 608H397.379L387.899 578H391.079L399.059 604.1L407.459 578H410.579L418.979 604.1L426.959 578ZM449.879 608.66C445.479 608.66 441.739 607.16 438.659 604.16C435.619 601.12 434.099 597.4 434.099 593C434.099 588.6 435.619 584.9 438.659 581.9C441.739 578.86 445.479 577.34 449.879 577.34C454.239 577.34 457.939 578.86 460.979 581.9C464.059 584.9 465.599 588.6 465.599 593C465.599 597.4 464.059 601.12 460.979 604.16C457.939 607.16 454.239 608.66 449.879 608.66ZM440.819 602.06C443.299 604.54 446.319 605.78 449.879 605.78C453.439 605.78 456.439 604.54 458.879 602.06C461.319 599.58 462.539 596.56 462.539 593C462.539 589.44 461.319 586.42 458.879 583.94C456.439 581.46 453.439 580.22 449.879 580.22C446.319 580.22 443.299 581.46 440.819 583.94C438.379 586.42 437.159 589.44 437.159 593C437.159 596.56 438.379 599.58 440.819 602.06ZM505.458 577.34C508.738 577.34 511.378 578.36 513.378 580.4C515.378 582.44 516.378 585.3 516.378 588.98V608H513.378V588.98C513.378 586.18 512.638 584.02 511.158 582.5C509.718 580.98 507.798 580.22 505.398 580.22C502.718 580.22 500.538 581.14 498.858 582.98C497.218 584.82 496.398 587.58 496.398 591.26V608H493.398V588.98C493.398 586.18 492.698 584.02 491.298 582.5C489.938 580.98 488.078 580.22 485.718 580.22C483.078 580.22 480.858 581.16 479.058 583.04C477.298 584.88 476.418 587.62 476.418 591.26V608H473.418V578H476.418V583.16C478.498 579.28 481.718 577.34 486.078 577.34C488.278 577.34 490.198 577.88 491.838 578.96C493.478 580 494.678 581.5 495.438 583.46C496.478 581.42 497.878 579.9 499.638 578.9C501.438 577.86 503.378 577.34 505.458 577.34ZM538.964 577.34C543.364 577.34 546.924 578.9 549.644 582.02C552.404 585.14 553.784 588.84 553.784 593.12C553.784 593.28 553.764 593.52 553.724 593.84C553.724 594.16 553.724 594.4 553.724 594.56H526.544C526.904 597.92 528.244 600.64 530.564 602.72C532.924 604.76 535.824 605.78 539.264 605.78C541.664 605.78 543.764 605.28 545.564 604.28C547.364 603.28 548.724 601.96 549.644 600.32L552.284 601.88C551.044 603.96 549.284 605.62 547.004 606.86C544.724 608.06 542.124 608.66 539.204 608.66C534.604 608.66 530.824 607.2 527.864 604.28C524.904 601.32 523.424 597.56 523.424 593C523.424 588.52 524.864 584.8 527.744 581.84C530.664 578.84 534.404 577.34 538.964 577.34ZM538.964 580.22C535.564 580.22 532.724 581.28 530.444 583.4C528.164 585.52 526.864 588.26 526.544 591.62H550.664C550.344 588.06 549.064 585.28 546.824 583.28C544.624 581.24 542.004 580.22 538.964 580.22ZM575.136 577.34C578.696 577.34 581.516 578.44 583.596 580.64C585.716 582.8 586.776 585.7 586.776 589.34V608H583.716V589.34C583.716 586.54 582.936 584.32 581.376 582.68C579.856 581.04 577.696 580.22 574.896 580.22C571.816 580.22 569.296 581.24 567.336 583.28C565.376 585.32 564.396 588.28 564.396 592.16V608H561.396V578H564.396V583.7C566.556 579.46 570.136 577.34 575.136 577.34ZM638.859 578H641.919V608H638.859V601.22C637.579 603.54 635.819 605.36 633.579 606.68C631.339 608 628.799 608.66 625.959 608.66C621.679 608.66 618.019 607.16 614.979 604.16C611.939 601.12 610.419 597.4 610.419 593C610.419 588.6 611.939 584.9 614.979 581.9C618.019 578.86 621.679 577.34 625.959 577.34C628.799 577.34 631.339 578 633.579 579.32C635.819 580.64 637.579 582.46 638.859 584.78V578ZM617.139 602.06C619.619 604.54 622.639 605.78 626.199 605.78C629.759 605.78 632.759 604.54 635.199 602.06C637.639 599.58 638.859 596.56 638.859 593C638.859 589.44 637.639 586.42 635.199 583.94C632.759 581.46 629.759 580.22 626.199 580.22C622.639 580.22 619.619 581.46 617.139 583.94C614.699 586.42 613.479 589.44 613.479 593C613.479 596.56 614.699 599.58 617.139 602.06ZM665.471 577.34C669.031 577.34 671.851 578.44 673.931 580.64C676.051 582.8 677.111 585.7 677.111 589.34V608H674.051V589.34C674.051 586.54 673.271 584.32 671.711 582.68C670.191 581.04 668.031 580.22 665.231 580.22C662.151 580.22 659.631 581.24 657.671 583.28C655.711 585.32 654.731 588.28 654.731 592.16V608H651.731V578H654.731V583.7C656.891 579.46 660.471 577.34 665.471 577.34ZM712.658 566H715.658V608H712.658V601.04C711.418 603.4 709.658 605.26 707.378 606.62C705.138 607.98 702.598 608.66 699.758 608.66C695.438 608.66 691.758 607.16 688.718 604.16C685.718 601.12 684.218 597.4 684.218 593C684.218 588.6 685.718 584.9 688.718 581.9C691.758 578.86 695.438 577.34 699.758 577.34C702.598 577.34 705.138 578.02 707.378 579.38C709.658 580.74 711.418 582.6 712.658 584.96V566ZM690.878 602.06C693.358 604.54 696.378 605.78 699.938 605.78C703.498 605.78 706.498 604.54 708.938 602.06C711.418 599.58 712.658 596.56 712.658 593C712.658 589.44 711.418 586.42 708.938 583.94C706.498 581.46 703.498 580.22 699.938 580.22C696.378 580.22 693.358 581.46 690.878 583.94C688.438 586.42 687.218 589.44 687.218 593C687.218 596.56 688.438 599.58 690.878 602.06ZM755.806 577.34C759.366 577.34 762.186 578.44 764.266 580.64C766.386 582.8 767.446 585.7 767.446 589.34V608H764.386V589.34C764.386 586.54 763.606 584.32 762.046 582.68C760.526 581.04 758.366 580.22 755.566 580.22C752.486 580.22 749.966 581.24 748.006 583.28C746.046 585.32 745.066 588.28 745.066 592.16V608H742.066V578H745.066V583.7C747.226 579.46 750.806 577.34 755.806 577.34ZM790.273 608.66C785.873 608.66 782.133 607.16 779.053 604.16C776.013 601.12 774.493 597.4 774.493 593C774.493 588.6 776.013 584.9 779.053 581.9C782.133 578.86 785.873 577.34 790.273 577.34C794.633 577.34 798.333 578.86 801.373 581.9C804.453 584.9 805.993 588.6 805.993 593C805.993 597.4 804.453 601.12 801.373 604.16C798.333 607.16 794.633 608.66 790.273 608.66ZM781.213 602.06C783.693 604.54 786.713 605.78 790.273 605.78C793.833 605.78 796.833 604.54 799.273 602.06C801.713 599.58 802.933 596.56 802.933 593C802.933 589.44 801.713 586.42 799.273 583.94C796.833 581.46 793.833 580.22 790.273 580.22C786.713 580.22 783.693 581.46 781.213 583.94C778.773 586.42 777.553 589.44 777.553 593C777.553 596.56 778.773 599.58 781.213 602.06ZM827.553 577.34C831.113 577.34 833.933 578.44 836.013 580.64C838.133 582.8 839.193 585.7 839.193 589.34V608H836.133V589.34C836.133 586.54 835.353 584.32 833.793 582.68C832.273 581.04 830.113 580.22 827.313 580.22C824.233 580.22 821.713 581.24 819.753 583.28C817.793 585.32 816.813 588.28 816.813 592.16V608H813.813V578H816.813V583.7C818.973 579.46 822.553 577.34 827.553 577.34ZM848.88 590.9V588.02H870.48V590.9H848.88ZM117.52 679.34C121.84 679.34 125.5 680.86 128.5 683.9C131.54 686.9 133.06 690.6 133.06 695C133.06 699.4 131.54 703.12 128.5 706.16C125.5 709.16 121.84 710.66 117.52 710.66C114.68 710.66 112.12 709.98 109.84 708.62C107.6 707.26 105.86 705.4 104.62 703.04V710H101.62V668H104.62V686.96C105.86 684.6 107.6 682.74 109.84 681.38C112.12 680.02 114.68 679.34 117.52 679.34ZM108.28 704.06C110.76 706.54 113.78 707.78 117.34 707.78C120.9 707.78 123.9 706.54 126.34 704.06C128.82 701.58 130.06 698.56 130.06 695C130.06 691.44 128.82 688.42 126.34 685.94C123.9 683.46 120.9 682.22 117.34 682.22C113.78 682.22 110.76 683.46 108.28 685.94C105.84 688.42 104.62 691.44 104.62 695C104.62 698.56 105.84 701.58 108.28 704.06ZM144.072 672.08C143.592 672.52 143.032 672.74 142.392 672.74C141.752 672.74 141.192 672.52 140.712 672.08C140.232 671.6 139.992 671.02 139.992 670.34C139.992 669.7 140.232 669.16 140.712 668.72C141.192 668.24 141.752 668 142.392 668C143.032 668 143.592 668.24 144.072 668.72C144.552 669.16 144.792 669.7 144.792 670.34C144.792 671.02 144.552 671.6 144.072 672.08ZM140.892 710V680H143.892V710H140.892ZM167.478 679.34C171.038 679.34 173.858 680.44 175.938 682.64C178.058 684.8 179.118 687.7 179.118 691.34V710H176.058V691.34C176.058 688.54 175.278 686.32 173.718 684.68C172.198 683.04 170.038 682.22 167.238 682.22C164.158 682.22 161.638 683.24 159.678 685.28C157.718 687.32 156.738 690.28 156.738 694.16V710H153.738V680H156.738V685.7C158.898 681.46 162.478 679.34 167.478 679.34ZM214.605 680H217.665V710H214.605V703.22C213.325 705.54 211.565 707.36 209.325 708.68C207.085 710 204.545 710.66 201.705 710.66C197.425 710.66 193.765 709.16 190.725 706.16C187.685 703.12 186.165 699.4 186.165 695C186.165 690.6 187.685 686.9 190.725 683.9C193.765 680.86 197.425 679.34 201.705 679.34C204.545 679.34 207.085 680 209.325 681.32C211.565 682.64 213.325 684.46 214.605 686.78V680ZM192.885 704.06C195.365 706.54 198.385 707.78 201.945 707.78C205.505 707.78 208.505 706.54 210.945 704.06C213.385 701.58 214.605 698.56 214.605 695C214.605 691.44 213.385 688.42 210.945 685.94C208.505 683.46 205.505 682.22 201.945 682.22C198.385 682.22 195.365 683.46 192.885 685.94C190.445 688.42 189.225 691.44 189.225 695C189.225 698.56 190.445 701.58 192.885 704.06ZM230.477 685.88C232.277 681.68 235.617 679.58 240.497 679.58V682.46C237.657 682.46 235.277 683.38 233.357 685.22C231.437 687.02 230.477 689.72 230.477 693.32V710H227.477V680H230.477V685.88ZM269.725 680H272.965L260.005 712.76C258.845 715.72 257.205 718.04 255.085 719.72C252.965 721.44 250.645 722.2 248.125 722V719.18C250.045 719.34 251.765 718.78 253.285 717.5C254.845 716.26 256.105 714.48 257.065 712.16L257.725 710.54L243.925 680H247.165L259.285 706.7L269.725 680ZM311.447 679.34C315.767 679.34 319.427 680.86 322.427 683.9C325.467 686.9 326.987 690.6 326.987 695C326.987 699.4 325.467 703.12 322.427 706.16C319.427 709.16 315.767 710.66 311.447 710.66C308.607 710.66 306.047 709.98 303.767 708.62C301.527 707.26 299.787 705.4 298.547 703.04V722H295.547V680H298.547V686.96C299.787 684.6 301.527 682.74 303.767 681.38C306.047 680.02 308.607 679.34 311.447 679.34ZM302.207 704.06C304.687 706.54 307.707 707.78 311.267 707.78C314.827 707.78 317.827 706.54 320.267 704.06C322.747 701.58 323.987 698.56 323.987 695C323.987 691.44 322.747 688.42 320.267 685.94C317.827 683.46 314.827 682.22 311.267 682.22C307.707 682.22 304.687 683.46 302.207 685.94C299.767 688.42 298.547 691.44 298.547 695C298.547 698.56 299.767 701.58 302.207 704.06ZM361.218 680H364.278V710H361.218V703.22C359.938 705.54 358.178 707.36 355.938 708.68C353.698 710 351.158 710.66 348.318 710.66C344.038 710.66 340.378 709.16 337.338 706.16C334.298 703.12 332.778 699.4 332.778 695C332.778 690.6 334.298 686.9 337.338 683.9C340.378 680.86 344.038 679.34 348.318 679.34C351.158 679.34 353.698 680 355.938 681.32C358.178 682.64 359.938 684.46 361.218 686.78V680ZM339.498 704.06C341.978 706.54 344.998 707.78 348.558 707.78C352.118 707.78 355.118 706.54 357.558 704.06C359.998 701.58 361.218 698.56 361.218 695C361.218 691.44 359.998 688.42 357.558 685.94C355.118 683.46 352.118 682.22 348.558 682.22C344.998 682.22 341.978 683.46 339.498 685.94C337.058 688.42 335.838 691.44 335.838 695C335.838 698.56 337.058 701.58 339.498 704.06ZM377.09 685.88C378.89 681.68 382.23 679.58 387.11 679.58V682.46C384.27 682.46 381.89 683.38 379.97 685.22C378.05 687.02 377.09 689.72 377.09 693.32V710H374.09V680H377.09V685.88ZM409.562 682.94H400.622V702.44C400.622 704.16 400.942 705.4 401.582 706.16C402.222 706.92 403.202 707.36 404.522 707.48C405.842 707.56 407.522 707.5 409.562 707.3V710C405.522 710.6 402.502 710.32 400.502 709.16C398.542 708 397.562 705.76 397.562 702.44V682.94H390.962V680H397.562V672.5L400.622 671.6V680H409.562V682.94ZM420.541 672.08C420.061 672.52 419.501 672.74 418.861 672.74C418.221 672.74 417.661 672.52 417.181 672.08C416.701 671.6 416.461 671.02 416.461 670.34C416.461 669.7 416.701 669.16 417.181 668.72C417.661 668.24 418.221 668 418.861 668C419.501 668 420.061 668.24 420.541 668.72C421.021 669.16 421.261 669.7 421.261 670.34C421.261 671.02 421.021 671.6 420.541 672.08ZM417.361 710V680H420.361V710H417.361ZM443.947 710.66C439.427 710.66 435.667 709.16 432.667 706.16C429.667 703.16 428.167 699.44 428.167 695C428.167 690.56 429.667 686.84 432.667 683.84C435.667 680.84 439.427 679.34 443.947 679.34C446.867 679.34 449.507 680.04 451.867 681.44C454.227 682.8 455.947 684.66 457.027 687.02L454.567 688.46C453.687 686.54 452.287 685.02 450.367 683.9C448.487 682.78 446.347 682.22 443.947 682.22C440.347 682.22 437.327 683.46 434.887 685.94C432.447 688.38 431.227 691.4 431.227 695C431.227 698.6 432.447 701.64 434.887 704.12C437.327 706.56 440.347 707.78 443.947 707.78C446.347 707.78 448.487 707.22 450.367 706.1C452.287 704.98 453.747 703.46 454.747 701.54L457.267 703.04C456.067 705.36 454.267 707.22 451.867 708.62C449.507 709.98 446.867 710.66 443.947 710.66ZM467.62 672.08C467.14 672.52 466.58 672.74 465.94 672.74C465.3 672.74 464.74 672.52 464.26 672.08C463.78 671.6 463.54 671.02 463.54 670.34C463.54 669.7 463.78 669.16 464.26 668.72C464.74 668.24 465.3 668 465.94 668C466.58 668 467.14 668.24 467.62 668.72C468.1 669.16 468.34 669.7 468.34 670.34C468.34 671.02 468.1 671.6 467.62 672.08ZM464.44 710V680H467.44V710H464.44ZM493.186 679.34C497.506 679.34 501.166 680.86 504.166 683.9C507.206 686.9 508.726 690.6 508.726 695C508.726 699.4 507.206 703.12 504.166 706.16C501.166 709.16 497.506 710.66 493.186 710.66C490.346 710.66 487.786 709.98 485.506 708.62C483.266 707.26 481.526 705.4 480.286 703.04V722H477.286V680H480.286V686.96C481.526 684.6 483.266 682.74 485.506 681.38C487.786 680.02 490.346 679.34 493.186 679.34ZM483.946 704.06C486.426 706.54 489.446 707.78 493.006 707.78C496.566 707.78 499.566 706.54 502.006 704.06C504.486 701.58 505.726 698.56 505.726 695C505.726 691.44 504.486 688.42 502.006 685.94C499.566 683.46 496.566 682.22 493.006 682.22C489.446 682.22 486.426 683.46 483.946 685.94C481.506 688.42 480.286 691.44 480.286 695C480.286 698.56 481.506 701.58 483.946 704.06ZM542.958 680H546.018V710H542.958V703.22C541.678 705.54 539.918 707.36 537.678 708.68C535.438 710 532.898 710.66 530.058 710.66C525.778 710.66 522.118 709.16 519.078 706.16C516.038 703.12 514.518 699.4 514.518 695C514.518 690.6 516.038 686.9 519.078 683.9C522.118 680.86 525.778 679.34 530.058 679.34C532.898 679.34 535.438 680 537.678 681.32C539.918 682.64 541.678 684.46 542.958 686.78V680ZM521.238 704.06C523.718 706.54 526.738 707.78 530.298 707.78C533.858 707.78 536.858 706.54 539.298 704.06C541.738 701.58 542.958 698.56 542.958 695C542.958 691.44 541.738 688.42 539.298 685.94C536.858 683.46 533.858 682.22 530.298 682.22C526.738 682.22 523.718 683.46 521.238 685.94C518.798 688.42 517.578 691.44 517.578 695C517.578 698.56 518.798 701.58 521.238 704.06ZM569.569 679.34C573.129 679.34 575.949 680.44 578.029 682.64C580.149 684.8 581.209 687.7 581.209 691.34V710H578.149V691.34C578.149 688.54 577.369 686.32 575.809 684.68C574.289 683.04 572.129 682.22 569.329 682.22C566.249 682.22 563.729 683.24 561.769 685.28C559.809 687.32 558.829 690.28 558.829 694.16V710H555.829V680H558.829V685.7C560.989 681.46 564.569 679.34 569.569 679.34ZM605.657 682.94H596.717V702.44C596.717 704.16 597.037 705.4 597.677 706.16C598.317 706.92 599.297 707.36 600.617 707.48C601.937 707.56 603.617 707.5 605.657 707.3V710C601.617 710.6 598.597 710.32 596.597 709.16C594.637 708 593.657 705.76 593.657 702.44V682.94H587.057V680H593.657V672.5L596.717 671.6V680H605.657V682.94ZM613.679 687.86C613.679 689.34 614.299 690.5 615.539 691.34C616.779 692.18 618.299 692.82 620.099 693.26C621.899 693.66 623.679 694.12 625.439 694.64C627.239 695.16 628.759 696.04 629.999 697.28C631.239 698.48 631.859 700.1 631.859 702.14C631.859 704.62 630.859 706.66 628.859 708.26C626.899 709.86 624.319 710.66 621.119 710.66C618.239 710.66 615.799 710.06 613.799 708.86C611.839 707.62 610.479 706 609.719 704L612.299 702.5C612.859 704.14 613.899 705.44 615.419 706.4C616.979 707.32 618.879 707.78 621.119 707.78C623.359 707.78 625.199 707.3 626.639 706.34C628.119 705.34 628.859 703.94 628.859 702.14C628.859 700.66 628.239 699.48 626.999 698.6C625.759 697.72 624.239 697.08 622.439 696.68C620.639 696.24 618.839 695.76 617.039 695.24C615.279 694.72 613.779 693.86 612.539 692.66C611.299 691.46 610.679 689.86 610.679 687.86C610.679 685.46 611.619 683.44 613.499 681.8C615.419 680.16 617.879 679.34 620.879 679.34C623.279 679.34 625.359 679.88 627.119 680.96C628.919 682.04 630.239 683.5 631.079 685.34L628.559 686.78C627.959 685.3 626.959 684.18 625.559 683.42C624.159 682.62 622.599 682.22 620.879 682.22C618.839 682.22 617.119 682.74 615.719 683.78C614.359 684.78 613.679 686.14 613.679 687.86ZM640.499 699.2L639.899 680V668H643.499V680L642.899 699.2H640.499ZM643.619 709.82C643.099 710.34 642.459 710.6 641.699 710.6C640.939 710.6 640.299 710.34 639.779 709.82C639.259 709.3 638.999 708.66 638.999 707.9C638.999 707.14 639.259 706.5 639.779 705.98C640.299 705.46 640.939 705.2 641.699 705.2C642.459 705.2 643.099 705.46 643.619 705.98C644.139 706.5 644.399 707.14 644.399 707.9C644.399 708.66 644.139 709.3 643.619 709.82Z" fill="white"/>
</g>
<defs>
<filter id="filter0_i_33_505" x="382" y="929" width="307" height="55" filterUnits="userSpaceOnUse" color-interpolation-filters="sRGB">
<feFlood flood-opacity="0" result="BackgroundImageFix"/>
<feBlend mode="normal" in="SourceGraphic" in2="BackgroundImageFix" result="shape"/>
<feColorMatrix in="SourceAlpha" type="matrix" values="0 0 0 0 0 0 0 0 0 0 0 0 0 0 0 0 0 0 127 0" result="hardAlpha"/>
<feOffset dy="4"/>
<feGaussianBlur stdDeviation="2"/>
<feComposite in2="hardAlpha" operator="arithmetic" k2="-1" k3="1"/>
<feColorMatrix type="matrix" values="0 0 0 0 0 0 0 0 0 0 0 0 0 0 0 0 0 0 0.25 0"/>
<feBlend mode="normal" in2="shape" result="effect1_innerShadow_33_505"/>
</filter>
<clipPath id="clip0_33_505">
<rect width="1080" height="1080" fill="white"/>
</clipPath>
</defs>
</svg>
