<svg width="1080" height="1080" viewBox="0 0 1080 1080" fill="none" xmlns="http://www.w3.org/2000/svg">
<g clip-path="url(#clip0_33_384)">
<rect width="1080" height="1080" fill="#202122"/>
<path d="M114.536 279L97.832 234.2H101.544L116.328 274.584L131.176 234.2H134.824L118.12 279H114.536ZM144.1 238.552C143.588 239.021 142.991 239.256 142.308 239.256C141.625 239.256 141.028 239.021 140.516 238.552C140.004 238.04 139.748 237.421 139.748 236.696C139.748 236.013 140.004 235.437 140.516 234.968C141.028 234.456 141.625 234.2 142.308 234.2C142.991 234.2 143.588 234.456 144.1 234.968C144.612 235.437 144.868 236.013 144.868 236.696C144.868 237.421 144.612 238.04 144.1 238.552ZM140.708 279V247H143.908V279H140.708ZM157.227 255.384C157.227 256.963 157.888 258.2 159.211 259.096C160.533 259.992 162.155 260.675 164.075 261.144C165.995 261.571 167.893 262.061 169.771 262.616C171.691 263.171 173.312 264.109 174.635 265.432C175.957 266.712 176.619 268.44 176.619 270.616C176.619 273.261 175.552 275.437 173.419 277.144C171.328 278.851 168.576 279.704 165.163 279.704C162.091 279.704 159.488 279.064 157.355 277.784C155.264 276.461 153.813 274.733 153.003 272.6L155.755 271C156.352 272.749 157.461 274.136 159.083 275.16C160.747 276.141 162.773 276.632 165.163 276.632C167.552 276.632 169.515 276.12 171.051 275.096C172.629 274.029 173.419 272.536 173.419 270.616C173.419 269.037 172.757 267.779 171.435 266.84C170.112 265.901 168.491 265.219 166.571 264.792C164.651 264.323 162.731 263.811 160.811 263.256C158.933 262.701 157.333 261.784 156.011 260.504C154.688 259.224 154.027 257.517 154.027 255.384C154.027 252.824 155.029 250.669 157.035 248.92C159.083 247.171 161.707 246.296 164.907 246.296C167.467 246.296 169.685 246.872 171.563 248.024C173.483 249.176 174.891 250.733 175.787 252.696L173.099 254.232C172.459 252.653 171.392 251.459 169.899 250.648C168.405 249.795 166.741 249.368 164.907 249.368C162.731 249.368 160.896 249.923 159.403 251.032C157.952 252.099 157.227 253.549 157.227 255.384ZM188.722 238.552C188.21 239.021 187.613 239.256 186.93 239.256C186.248 239.256 185.65 239.021 185.138 238.552C184.626 238.04 184.37 237.421 184.37 236.696C184.37 236.013 184.626 235.437 185.138 234.968C185.65 234.456 186.248 234.2 186.93 234.2C187.613 234.2 188.21 234.456 188.722 234.968C189.234 235.437 189.49 236.013 189.49 236.696C189.49 237.421 189.234 238.04 188.722 238.552ZM185.33 279V247H188.53V279H185.33ZM216.057 250.136H206.521V270.936C206.521 272.771 206.862 274.093 207.545 274.904C208.228 275.715 209.273 276.184 210.681 276.312C212.089 276.397 213.881 276.333 216.057 276.12V279C211.748 279.64 208.526 279.341 206.393 278.104C204.302 276.867 203.257 274.477 203.257 270.936V250.136H196.217V247H203.257V239L206.521 238.04V247H216.057V250.136ZM258.014 279.704C253.321 279.704 249.331 278.104 246.046 274.904C242.803 271.661 241.182 267.693 241.182 263C241.182 258.307 242.803 254.36 246.046 251.16C249.331 247.917 253.321 246.296 258.014 246.296C262.665 246.296 266.611 247.917 269.854 251.16C273.139 254.36 274.782 258.307 274.782 263C274.782 267.693 273.139 271.661 269.854 274.904C266.611 278.104 262.665 279.704 258.014 279.704ZM248.35 272.664C250.995 275.309 254.217 276.632 258.014 276.632C261.811 276.632 265.011 275.309 267.614 272.664C270.217 270.019 271.518 266.797 271.518 263C271.518 259.203 270.217 255.981 267.614 253.336C265.011 250.691 261.811 249.368 258.014 249.368C254.217 249.368 250.995 250.691 248.35 253.336C245.747 255.981 244.446 259.203 244.446 263C244.446 266.797 245.747 270.019 248.35 272.664ZM306.803 247H310.003V279H306.803V272.92C304.499 277.443 300.68 279.704 295.347 279.704C291.55 279.704 288.52 278.552 286.259 276.248C284.04 273.901 282.931 270.787 282.931 266.904V247H286.195V266.904C286.195 269.891 287.006 272.259 288.627 274.008C290.291 275.757 292.616 276.632 295.603 276.632C298.888 276.632 301.576 275.544 303.667 273.368C305.758 271.192 306.803 268.035 306.803 263.896V247ZM324.368 253.272C326.288 248.792 329.851 246.552 335.056 246.552V249.624C332.027 249.624 329.488 250.605 327.44 252.568C325.392 254.488 324.368 257.368 324.368 261.208V279H321.168V247H324.368V253.272ZM400.013 247H403.405L393.293 279H389.773L380.877 251.736L371.981 279H368.461L358.349 247H361.741L370.253 274.84L379.213 247H382.541L391.501 274.84L400.013 247ZM424.845 246.296C429.539 246.296 433.336 247.96 436.237 251.288C439.181 254.616 440.653 258.563 440.653 263.128C440.653 263.299 440.632 263.555 440.589 263.896C440.589 264.237 440.589 264.493 440.589 264.664H411.597C411.981 268.248 413.411 271.149 415.885 273.368C418.403 275.544 421.496 276.632 425.165 276.632C427.725 276.632 429.965 276.099 431.885 275.032C433.805 273.965 435.256 272.557 436.237 270.808L439.053 272.472C437.731 274.691 435.853 276.461 433.421 277.784C430.989 279.064 428.216 279.704 425.101 279.704C420.195 279.704 416.163 278.147 413.005 275.032C409.848 271.875 408.269 267.864 408.269 263C408.269 258.221 409.805 254.253 412.877 251.096C415.992 247.896 419.981 246.296 424.845 246.296ZM424.845 249.368C421.219 249.368 418.189 250.499 415.757 252.76C413.325 255.021 411.939 257.944 411.597 261.528H437.325C436.984 257.731 435.619 254.765 433.229 252.632C430.883 250.456 428.088 249.368 424.845 249.368ZM466.373 246.296C470.981 246.296 474.885 247.917 478.085 251.16C481.328 254.36 482.949 258.307 482.949 263C482.949 267.693 481.328 271.661 478.085 274.904C474.885 278.104 470.981 279.704 466.373 279.704C463.344 279.704 460.613 278.979 458.181 277.528C455.792 276.077 453.936 274.093 452.613 271.576V279H449.413V234.2H452.613V254.424C453.936 251.907 455.792 249.923 458.181 248.472C460.613 247.021 463.344 246.296 466.373 246.296ZM456.517 272.664C459.162 275.309 462.384 276.632 466.181 276.632C469.978 276.632 473.178 275.309 475.781 272.664C478.426 270.019 479.749 266.797 479.749 263C479.749 259.203 478.426 255.981 475.781 253.336C473.178 250.691 469.978 249.368 466.181 249.368C462.384 249.368 459.162 250.691 456.517 253.336C453.914 255.981 452.613 259.203 452.613 263C452.613 266.797 453.914 270.019 456.517 272.664ZM493.494 255.384C493.494 256.963 494.155 258.2 495.478 259.096C496.801 259.992 498.422 260.675 500.342 261.144C502.262 261.571 504.161 262.061 506.038 262.616C507.958 263.171 509.579 264.109 510.902 265.432C512.225 266.712 512.886 268.44 512.886 270.616C512.886 273.261 511.819 275.437 509.686 277.144C507.595 278.851 504.843 279.704 501.43 279.704C498.358 279.704 495.755 279.064 493.622 277.784C491.531 276.461 490.081 274.733 489.27 272.6L492.022 271C492.619 272.749 493.729 274.136 495.35 275.16C497.014 276.141 499.041 276.632 501.43 276.632C503.819 276.632 505.782 276.12 507.318 275.096C508.897 274.029 509.686 272.536 509.686 270.616C509.686 269.037 509.025 267.779 507.702 266.84C506.379 265.901 504.758 265.219 502.838 264.792C500.918 264.323 498.998 263.811 497.078 263.256C495.201 262.701 493.601 261.784 492.278 260.504C490.955 259.224 490.294 257.517 490.294 255.384C490.294 252.824 491.297 250.669 493.302 248.92C495.35 247.171 497.974 246.296 501.174 246.296C503.734 246.296 505.953 246.872 507.83 248.024C509.75 249.176 511.158 250.733 512.054 252.696L509.366 254.232C508.726 252.653 507.659 251.459 506.166 250.648C504.673 249.795 503.009 249.368 501.174 249.368C498.998 249.368 497.163 249.923 495.67 251.032C494.219 252.099 493.494 253.549 493.494 255.384ZM524.99 238.552C524.478 239.021 523.881 239.256 523.198 239.256C522.515 239.256 521.918 239.021 521.406 238.552C520.894 238.04 520.638 237.421 520.638 236.696C520.638 236.013 520.894 235.437 521.406 234.968C521.918 234.456 522.515 234.2 523.198 234.2C523.881 234.2 524.478 234.456 524.99 234.968C525.502 235.437 525.758 236.013 525.758 236.696C525.758 237.421 525.502 238.04 524.99 238.552ZM521.598 279V247H524.798V279H521.598ZM552.325 250.136H542.789V270.936C542.789 272.771 543.13 274.093 543.813 274.904C544.495 275.715 545.541 276.184 546.949 276.312C548.357 276.397 550.149 276.333 552.325 276.12V279C548.015 279.64 544.794 279.341 542.661 278.104C540.57 276.867 539.525 274.477 539.525 270.936V250.136H532.485V247H539.525V239L542.789 238.04V247H552.325V250.136ZM573.746 246.296C578.439 246.296 582.236 247.96 585.138 251.288C588.082 254.616 589.554 258.563 589.554 263.128C589.554 263.299 589.532 263.555 589.49 263.896C589.49 264.237 589.49 264.493 589.49 264.664H560.498C560.882 268.248 562.311 271.149 564.786 273.368C567.303 275.544 570.396 276.632 574.066 276.632C576.626 276.632 578.866 276.099 580.786 275.032C582.706 273.965 584.156 272.557 585.138 270.808L587.954 272.472C586.631 274.691 584.754 276.461 582.322 277.784C579.89 279.064 577.116 279.704 574.002 279.704C569.095 279.704 565.063 278.147 561.906 275.032C558.748 271.875 557.17 267.864 557.17 263C557.17 258.221 558.706 254.253 561.778 251.096C564.892 247.896 568.882 246.296 573.746 246.296ZM573.746 249.368C570.119 249.368 567.09 250.499 564.658 252.76C562.226 255.021 560.839 257.944 560.498 261.528H586.226C585.884 257.731 584.519 254.765 582.13 252.632C579.783 250.456 576.988 249.368 573.746 249.368ZM601.191 274.648L597.735 287.96H594.791L597.223 274.648H601.191ZM644.279 279.704C639.458 279.704 635.447 278.104 632.247 274.904C629.047 271.704 627.447 267.736 627.447 263C627.447 258.264 629.047 254.296 632.247 251.096C635.447 247.896 639.458 246.296 644.279 246.296C647.394 246.296 650.21 247.043 652.727 248.536C655.244 249.987 657.079 251.971 658.231 254.488L655.607 256.024C654.668 253.976 653.175 252.355 651.127 251.16C649.122 249.965 646.839 249.368 644.279 249.368C640.439 249.368 637.218 250.691 634.615 253.336C632.012 255.939 630.711 259.16 630.711 263C630.711 266.84 632.012 270.083 634.615 272.728C637.218 275.331 640.439 276.632 644.279 276.632C646.839 276.632 649.122 276.035 651.127 274.84C653.175 273.645 654.732 272.024 655.799 269.976L658.487 271.576C657.207 274.051 655.287 276.035 652.727 277.528C650.21 278.979 647.394 279.704 644.279 279.704ZM681.434 246.296C685.231 246.296 688.239 247.469 690.458 249.816C692.719 252.12 693.85 255.213 693.85 259.096V279H690.586V259.096C690.586 256.109 689.754 253.741 688.09 251.992C686.469 250.243 684.165 249.368 681.178 249.368C677.893 249.368 675.205 250.456 673.114 252.632C671.023 254.808 669.978 257.965 669.978 262.104V279H666.778V234.2H669.978V253.08C672.282 248.557 676.101 246.296 681.434 246.296ZM718.583 246.296C723.276 246.296 727.074 247.96 729.975 251.288C732.919 254.616 734.391 258.563 734.391 263.128C734.391 263.299 734.37 263.555 734.327 263.896C734.327 264.237 734.327 264.493 734.327 264.664H705.335C705.719 268.248 707.148 271.149 709.623 273.368C712.14 275.544 715.234 276.632 718.903 276.632C721.463 276.632 723.703 276.099 725.623 275.032C727.543 273.965 728.994 272.557 729.975 270.808L732.791 272.472C731.468 274.691 729.591 276.461 727.159 277.784C724.727 279.064 721.954 279.704 718.839 279.704C713.932 279.704 709.9 278.147 706.743 275.032C703.586 271.875 702.007 267.864 702.007 263C702.007 258.221 703.543 254.253 706.615 251.096C709.73 247.896 713.719 246.296 718.583 246.296ZM718.583 249.368C714.956 249.368 711.927 250.499 709.495 252.76C707.063 255.021 705.676 257.944 705.335 261.528H731.063C730.722 257.731 729.356 254.765 726.967 252.632C724.62 250.456 721.826 249.368 718.583 249.368ZM757.806 279.704C752.985 279.704 748.974 278.104 745.774 274.904C742.574 271.704 740.974 267.736 740.974 263C740.974 258.264 742.574 254.296 745.774 251.096C748.974 247.896 752.985 246.296 757.806 246.296C760.921 246.296 763.737 247.043 766.254 248.536C768.772 249.987 770.606 251.971 771.758 254.488L769.134 256.024C768.196 253.976 766.702 252.355 764.654 251.16C762.649 249.965 760.366 249.368 757.806 249.368C753.966 249.368 750.745 250.691 748.142 253.336C745.54 255.939 744.238 259.16 744.238 263C744.238 266.84 745.54 270.083 748.142 272.728C750.745 275.331 753.966 276.632 757.806 276.632C760.366 276.632 762.649 276.035 764.654 274.84C766.702 273.645 768.26 272.024 769.326 269.976L772.014 271.576C770.734 274.051 768.814 276.035 766.254 277.528C763.737 278.979 760.921 279.704 757.806 279.704ZM804.818 279H800.466L783.506 263.256V279H780.306V234.2H783.506V261.528L799.698 247H804.178L786.962 262.36L804.818 279ZM845.522 279.704C840.828 279.704 836.839 278.104 833.554 274.904C830.311 271.661 828.69 267.693 828.69 263C828.69 258.307 830.311 254.36 833.554 251.16C836.839 247.917 840.828 246.296 845.522 246.296C850.172 246.296 854.119 247.917 857.362 251.16C860.647 254.36 862.29 258.307 862.29 263C862.29 267.693 860.647 271.661 857.362 274.904C854.119 278.104 850.172 279.704 845.522 279.704ZM835.858 272.664C838.503 275.309 841.724 276.632 845.522 276.632C849.319 276.632 852.519 275.309 855.122 272.664C857.724 270.019 859.026 266.797 859.026 263C859.026 259.203 857.724 255.981 855.122 253.336C852.519 250.691 849.319 249.368 845.522 249.368C841.724 249.368 838.503 250.691 835.858 253.336C833.255 255.981 831.954 259.203 831.954 263C831.954 266.797 833.255 270.019 835.858 272.664ZM894.311 247H897.511V279H894.311V272.92C892.007 277.443 888.188 279.704 882.855 279.704C879.057 279.704 876.028 278.552 873.767 276.248C871.548 273.901 870.439 270.787 870.439 266.904V247H873.703V266.904C873.703 269.891 874.513 272.259 876.135 274.008C877.799 275.757 880.124 276.632 883.111 276.632C886.396 276.632 889.084 275.544 891.175 273.368C893.265 271.192 894.311 268.035 894.311 263.896V247ZM925.059 250.136H915.523V270.936C915.523 272.771 915.865 274.093 916.547 274.904C917.23 275.715 918.275 276.184 919.683 276.312C921.091 276.397 922.883 276.333 925.059 276.12V279C920.75 279.64 917.529 279.341 915.395 278.104C913.305 276.867 912.259 274.477 912.259 270.936V250.136H905.219V247H912.259V239L915.523 238.04V247H925.059V250.136ZM116.584 375.704C111.891 375.704 107.901 374.104 104.616 370.904C101.373 367.661 99.752 363.693 99.752 359C99.752 354.307 101.373 350.36 104.616 347.16C107.901 343.917 111.891 342.296 116.584 342.296C121.235 342.296 125.181 343.917 128.424 347.16C131.709 350.36 133.352 354.307 133.352 359C133.352 363.693 131.709 367.661 128.424 370.904C125.181 374.104 121.235 375.704 116.584 375.704ZM106.92 368.664C109.565 371.309 112.787 372.632 116.584 372.632C120.381 372.632 123.581 371.309 126.184 368.664C128.787 366.019 130.088 362.797 130.088 359C130.088 355.203 128.787 351.981 126.184 349.336C123.581 346.691 120.381 345.368 116.584 345.368C112.787 345.368 109.565 346.691 106.92 349.336C104.317 351.981 103.016 355.203 103.016 359C103.016 362.797 104.317 366.019 106.92 368.664ZM165.373 343H168.573V375H165.373V368.92C163.069 373.443 159.25 375.704 153.917 375.704C150.12 375.704 147.09 374.552 144.829 372.248C142.61 369.901 141.501 366.787 141.501 362.904V343H144.765V362.904C144.765 365.891 145.576 368.259 147.197 370.008C148.861 371.757 151.186 372.632 154.173 372.632C157.458 372.632 160.146 371.544 162.237 369.368C164.328 367.192 165.373 364.035 165.373 359.896V343ZM182.938 349.272C184.858 344.792 188.421 342.552 193.626 342.552V345.624C190.597 345.624 188.058 346.605 186.01 348.568C183.962 350.488 182.938 353.368 182.938 357.208V375H179.738V343H182.938V349.272ZM245.208 333.4H223.768V351.32H244.44V354.52H223.768V375H220.376V330.2H245.208V333.4ZM282.3 343H285.564V375H282.3V367.768C280.935 370.243 279.058 372.184 276.668 373.592C274.279 375 271.57 375.704 268.54 375.704C263.975 375.704 260.071 374.104 256.828 370.904C253.586 367.661 251.964 363.693 251.964 359C251.964 354.307 253.586 350.36 256.828 347.16C260.071 343.917 263.975 342.296 268.54 342.296C271.57 342.296 274.279 343 276.668 344.408C279.058 345.816 280.935 347.757 282.3 350.232V343ZM259.132 368.664C261.778 371.309 264.999 372.632 268.796 372.632C272.594 372.632 275.794 371.309 278.396 368.664C280.999 366.019 282.3 362.797 282.3 359C282.3 355.203 280.999 351.981 278.396 349.336C275.794 346.691 272.594 345.368 268.796 345.368C264.999 345.368 261.778 346.691 259.132 349.336C256.53 351.981 255.228 355.203 255.228 359C255.228 362.797 256.53 366.019 259.132 368.664ZM311.326 375.704C306.505 375.704 302.494 374.104 299.294 370.904C296.094 367.704 294.494 363.736 294.494 359C294.494 354.264 296.094 350.296 299.294 347.096C302.494 343.896 306.505 342.296 311.326 342.296C314.441 342.296 317.257 343.043 319.774 344.536C322.292 345.987 324.126 347.971 325.278 350.488L322.654 352.024C321.716 349.976 320.222 348.355 318.174 347.16C316.169 345.965 313.886 345.368 311.326 345.368C307.486 345.368 304.265 346.691 301.662 349.336C299.06 351.939 297.758 355.16 297.758 359C297.758 362.84 299.06 366.083 301.662 368.728C304.265 371.331 307.486 372.632 311.326 372.632C313.886 372.632 316.169 372.035 318.174 370.84C320.222 369.645 321.78 368.024 322.846 365.976L325.534 367.576C324.254 370.051 322.334 372.035 319.774 373.528C317.257 374.979 314.441 375.704 311.326 375.704ZM347.913 342.296C352.606 342.296 356.404 343.96 359.305 347.288C362.249 350.616 363.721 354.563 363.721 359.128C363.721 359.299 363.7 359.555 363.657 359.896C363.657 360.237 363.657 360.493 363.657 360.664H334.665C335.049 364.248 336.478 367.149 338.953 369.368C341.47 371.544 344.564 372.632 348.233 372.632C350.793 372.632 353.033 372.099 354.953 371.032C356.873 369.965 358.324 368.557 359.305 366.808L362.121 368.472C360.798 370.691 358.921 372.461 356.489 373.784C354.057 375.064 351.284 375.704 348.169 375.704C343.262 375.704 339.23 374.147 336.073 371.032C332.916 367.875 331.337 363.864 331.337 359C331.337 354.221 332.873 350.253 335.945 347.096C339.06 343.896 343.049 342.296 347.913 342.296ZM347.913 345.368C344.286 345.368 341.257 346.499 338.825 348.76C336.393 351.021 335.006 353.944 334.665 357.528H360.393C360.052 353.731 358.686 350.765 356.297 348.632C353.95 346.456 351.156 345.368 347.913 345.368ZM389.44 342.296C394.048 342.296 397.952 343.917 401.152 347.16C404.395 350.36 406.016 354.307 406.016 359C406.016 363.693 404.395 367.661 401.152 370.904C397.952 374.104 394.048 375.704 389.44 375.704C386.411 375.704 383.68 374.979 381.248 373.528C378.859 372.077 377.003 370.093 375.68 367.576V375H372.48V330.2H375.68V350.424C377.003 347.907 378.859 345.923 381.248 344.472C383.68 343.021 386.411 342.296 389.44 342.296ZM379.584 368.664C382.23 371.309 385.451 372.632 389.248 372.632C393.046 372.632 396.246 371.309 398.848 368.664C401.494 366.019 402.816 362.797 402.816 359C402.816 355.203 401.494 351.981 398.848 349.336C396.246 346.691 393.046 345.368 389.248 345.368C385.451 345.368 382.23 346.691 379.584 349.336C376.982 351.981 375.68 355.203 375.68 359C375.68 362.797 376.982 366.019 379.584 368.664ZM429.666 375.704C424.973 375.704 420.984 374.104 417.698 370.904C414.456 367.661 412.834 363.693 412.834 359C412.834 354.307 414.456 350.36 417.698 347.16C420.984 343.917 424.973 342.296 429.666 342.296C434.317 342.296 438.264 343.917 441.506 347.16C444.792 350.36 446.434 354.307 446.434 359C446.434 363.693 444.792 367.661 441.506 370.904C438.264 374.104 434.317 375.704 429.666 375.704ZM420.002 368.664C422.648 371.309 425.869 372.632 429.666 372.632C433.464 372.632 436.664 371.309 439.266 368.664C441.869 366.019 443.17 362.797 443.17 359C443.17 355.203 441.869 351.981 439.266 349.336C436.664 346.691 433.464 345.368 429.666 345.368C425.869 345.368 422.648 346.691 420.002 349.336C417.4 351.981 416.098 355.203 416.098 359C416.098 362.797 417.4 366.019 420.002 368.664ZM470.071 375.704C465.378 375.704 461.389 374.104 458.103 370.904C454.861 367.661 453.239 363.693 453.239 359C453.239 354.307 454.861 350.36 458.103 347.16C461.389 343.917 465.378 342.296 470.071 342.296C474.722 342.296 478.669 343.917 481.911 347.16C485.197 350.36 486.839 354.307 486.839 359C486.839 363.693 485.197 367.661 481.911 370.904C478.669 374.104 474.722 375.704 470.071 375.704ZM460.407 368.664C463.053 371.309 466.274 372.632 470.071 372.632C473.869 372.632 477.069 371.309 479.671 368.664C482.274 366.019 483.575 362.797 483.575 359C483.575 355.203 482.274 351.981 479.671 349.336C477.069 346.691 473.869 345.368 470.071 345.368C466.274 345.368 463.053 346.691 460.407 349.336C457.805 351.981 456.503 355.203 456.503 359C456.503 362.797 457.805 366.019 460.407 368.664ZM520.332 375H515.98L499.02 359.256V375H495.82V330.2H499.02V357.528L515.212 343H519.692L502.476 358.36L520.332 375ZM560.781 342.296C565.474 342.296 569.271 343.96 572.173 347.288C575.117 350.616 576.589 354.563 576.589 359.128C576.589 359.299 576.567 359.555 576.525 359.896C576.525 360.237 576.525 360.493 576.525 360.664H547.533C547.917 364.248 549.346 367.149 551.821 369.368C554.338 371.544 557.431 372.632 561.101 372.632C563.661 372.632 565.901 372.099 567.821 371.032C569.741 369.965 571.191 368.557 572.173 366.808L574.989 368.472C573.666 370.691 571.789 372.461 569.357 373.784C566.925 375.064 564.151 375.704 561.037 375.704C556.13 375.704 552.098 374.147 548.941 371.032C545.783 367.875 544.205 363.864 544.205 359C544.205 354.221 545.741 350.253 548.813 347.096C551.927 343.896 555.917 342.296 560.781 342.296ZM560.781 345.368C557.154 345.368 554.125 346.499 551.693 348.76C549.261 351.021 547.874 353.944 547.533 357.528H573.261C572.919 353.731 571.554 350.765 569.165 348.632C566.818 346.456 564.023 345.368 560.781 345.368ZM607.586 343H610.978L597.474 375H593.57L580.002 343H583.458L595.49 371.672L607.586 343ZM631.216 342.296C635.909 342.296 639.706 343.96 642.608 347.288C645.552 350.616 647.024 354.563 647.024 359.128C647.024 359.299 647.002 359.555 646.96 359.896C646.96 360.237 646.96 360.493 646.96 360.664H617.968C618.352 364.248 619.781 367.149 622.256 369.368C624.773 371.544 627.866 372.632 631.536 372.632C634.096 372.632 636.336 372.099 638.256 371.032C640.176 369.965 641.626 368.557 642.608 366.808L645.424 368.472C644.101 370.691 642.224 372.461 639.792 373.784C637.36 375.064 634.586 375.704 631.472 375.704C626.565 375.704 622.533 374.147 619.376 371.032C616.218 367.875 614.64 363.864 614.64 359C614.64 354.221 616.176 350.253 619.248 347.096C622.362 343.896 626.352 342.296 631.216 342.296ZM631.216 345.368C627.589 345.368 624.56 346.499 622.128 348.76C619.696 351.021 618.309 353.944 617.968 357.528H643.696C643.354 353.731 641.989 350.765 639.6 348.632C637.253 346.456 634.458 345.368 631.216 345.368ZM670.439 342.296C674.236 342.296 677.244 343.469 679.463 345.816C681.724 348.12 682.855 351.213 682.855 355.096V375H679.591V355.096C679.591 352.109 678.759 349.741 677.095 347.992C675.474 346.243 673.17 345.368 670.183 345.368C666.898 345.368 664.21 346.456 662.119 348.632C660.028 350.808 658.983 353.965 658.983 358.104V375H655.783V343H658.983V349.08C661.287 344.557 665.106 342.296 670.439 342.296ZM709.572 346.136H700.036V366.936C700.036 368.771 700.377 370.093 701.06 370.904C701.743 371.715 702.788 372.184 704.196 372.312C705.604 372.397 707.396 372.333 709.572 372.12V375C705.263 375.64 702.041 375.341 699.908 374.104C697.817 372.867 696.772 370.477 696.772 366.936V346.136H689.732V343H696.772V335L700.036 334.04V343H709.572V346.136ZM723.97 370.648L720.514 383.96H717.57L720.002 370.648H723.97ZM767.059 375.704C762.366 375.704 758.376 374.104 755.091 370.904C751.848 367.661 750.227 363.693 750.227 359C750.227 354.307 751.848 350.36 755.091 347.16C758.376 343.917 762.366 342.296 767.059 342.296C771.71 342.296 775.656 343.917 778.899 347.16C782.184 350.36 783.827 354.307 783.827 359C783.827 363.693 782.184 367.661 778.899 370.904C775.656 374.104 771.71 375.704 767.059 375.704ZM757.395 368.664C760.04 371.309 763.262 372.632 767.059 372.632C770.856 372.632 774.056 371.309 776.659 368.664C779.262 366.019 780.563 362.797 780.563 359C780.563 355.203 779.262 351.981 776.659 349.336C774.056 346.691 770.856 345.368 767.059 345.368C763.262 345.368 760.04 346.691 757.395 349.336C754.792 351.981 753.491 355.203 753.491 359C753.491 362.797 754.792 366.019 757.395 368.664ZM796.008 349.272C797.928 344.792 801.491 342.552 806.696 342.552V345.624C803.667 345.624 801.128 346.605 799.08 348.568C797.032 350.488 796.008 353.368 796.008 357.208V375H792.808V343H796.008V349.272ZM832.806 375V328.28H836.006V375H832.806ZM861.804 375.704C857.111 375.704 853.121 374.104 849.836 370.904C846.593 367.661 844.972 363.693 844.972 359C844.972 354.307 846.593 350.36 849.836 347.16C853.121 343.917 857.111 342.296 861.804 342.296C866.455 342.296 870.401 343.917 873.644 347.16C876.929 350.36 878.572 354.307 878.572 359C878.572 363.693 876.929 367.661 873.644 370.904C870.401 374.104 866.455 375.704 861.804 375.704ZM852.14 368.664C854.785 371.309 858.007 372.632 861.804 372.632C865.601 372.632 868.801 371.309 871.404 368.664C874.007 366.019 875.308 362.797 875.308 359C875.308 355.203 874.007 351.981 871.404 349.336C868.801 346.691 865.601 345.368 861.804 345.368C858.007 345.368 854.785 346.691 852.14 349.336C849.537 351.981 848.236 355.203 848.236 359C848.236 362.797 849.537 366.019 852.14 368.664ZM902.209 375.704C897.516 375.704 893.526 374.104 890.241 370.904C886.998 367.661 885.377 363.693 885.377 359C885.377 354.307 886.998 350.36 890.241 347.16C893.526 343.917 897.516 342.296 902.209 342.296C906.86 342.296 910.806 343.917 914.049 347.16C917.334 350.36 918.977 354.307 918.977 359C918.977 363.693 917.334 367.661 914.049 370.904C910.806 374.104 906.86 375.704 902.209 375.704ZM892.545 368.664C895.19 371.309 898.412 372.632 902.209 372.632C906.006 372.632 909.206 371.309 911.809 368.664C914.412 366.019 915.713 362.797 915.713 359C915.713 355.203 914.412 351.981 911.809 349.336C909.206 346.691 906.006 345.368 902.209 345.368C898.412 345.368 895.19 346.691 892.545 349.336C889.942 351.981 888.641 355.203 888.641 359C888.641 362.797 889.942 366.019 892.545 368.664ZM952.47 375H948.118L931.158 359.256V375H927.958V330.2H931.158V357.528L947.35 343H951.83L934.614 358.36L952.47 375ZM130.088 439H133.352V471H130.088V463.768C128.723 466.243 126.845 468.184 124.456 469.592C122.067 471 119.357 471.704 116.328 471.704C111.763 471.704 107.859 470.104 104.616 466.904C101.373 463.661 99.752 459.693 99.752 455C99.752 450.307 101.373 446.36 104.616 443.16C107.859 439.917 111.763 438.296 116.328 438.296C119.357 438.296 122.067 439 124.456 440.408C126.845 441.816 128.723 443.757 130.088 446.232V439ZM106.92 464.664C109.565 467.309 112.787 468.632 116.584 468.632C120.381 468.632 123.581 467.309 126.184 464.664C128.787 462.019 130.088 458.797 130.088 455C130.088 451.203 128.787 447.981 126.184 445.336C123.581 442.691 120.381 441.368 116.584 441.368C112.787 441.368 109.565 442.691 106.92 445.336C104.317 447.981 103.016 451.203 103.016 455C103.016 458.797 104.317 462.019 106.92 464.664ZM160.842 442.136H151.306V462.936C151.306 464.771 151.647 466.093 152.33 466.904C153.013 467.715 154.058 468.184 155.466 468.312C156.874 468.397 158.666 468.333 160.842 468.12V471C156.533 471.64 153.311 471.341 151.178 470.104C149.087 468.867 148.042 466.477 148.042 462.936V442.136H141.002V439H148.042V431L151.306 430.04V439H160.842V442.136ZM202.799 471.704C198.106 471.704 194.116 470.104 190.831 466.904C187.588 463.661 185.967 459.693 185.967 455C185.967 450.307 187.588 446.36 190.831 443.16C194.116 439.917 198.106 438.296 202.799 438.296C207.45 438.296 211.396 439.917 214.639 443.16C217.924 446.36 219.567 450.307 219.567 455C219.567 459.693 217.924 463.661 214.639 466.904C211.396 470.104 207.45 471.704 202.799 471.704ZM193.135 464.664C195.78 467.309 199.002 468.632 202.799 468.632C206.596 468.632 209.796 467.309 212.399 464.664C215.002 462.019 216.303 458.797 216.303 455C216.303 451.203 215.002 447.981 212.399 445.336C209.796 442.691 206.596 441.368 202.799 441.368C199.002 441.368 195.78 442.691 193.135 445.336C190.532 447.981 189.231 451.203 189.231 455C189.231 458.797 190.532 462.019 193.135 464.664ZM251.588 439H254.788V471H251.588V464.92C249.284 469.443 245.465 471.704 240.132 471.704C236.335 471.704 233.305 470.552 231.044 468.248C228.825 465.901 227.716 462.787 227.716 458.904V439H230.98V458.904C230.98 461.891 231.791 464.259 233.412 466.008C235.076 467.757 237.401 468.632 240.388 468.632C243.673 468.632 246.361 467.544 248.452 465.368C250.543 463.192 251.588 460.035 251.588 455.896V439ZM269.153 445.272C271.073 440.792 274.636 438.552 279.841 438.552V441.624C276.812 441.624 274.273 442.605 272.225 444.568C270.177 446.488 269.153 449.368 269.153 453.208V471H265.953V439H269.153V445.272ZM334.175 426.2H337.375V471H334.175V463.576C332.852 466.093 330.975 468.077 328.543 469.528C326.153 470.979 323.444 471.704 320.415 471.704C315.807 471.704 311.881 470.104 308.639 466.904C305.439 463.661 303.839 459.693 303.839 455C303.839 450.307 305.439 446.36 308.639 443.16C311.881 439.917 315.807 438.296 320.415 438.296C323.444 438.296 326.153 439.021 328.543 440.472C330.975 441.923 332.852 443.907 334.175 446.424V426.2ZM310.943 464.664C313.588 467.309 316.809 468.632 320.607 468.632C324.404 468.632 327.604 467.309 330.207 464.664C332.852 462.019 334.175 458.797 334.175 455C334.175 451.203 332.852 447.981 330.207 445.336C327.604 442.691 324.404 441.368 320.607 441.368C316.809 441.368 313.588 442.691 310.943 445.336C308.34 447.981 307.039 451.203 307.039 455C307.039 458.797 308.34 462.019 310.943 464.664ZM362.881 438.296C367.574 438.296 371.371 439.96 374.273 443.288C377.217 446.616 378.689 450.563 378.689 455.128C378.689 455.299 378.667 455.555 378.625 455.896C378.625 456.237 378.625 456.493 378.625 456.664H349.633C350.017 460.248 351.446 463.149 353.921 465.368C356.438 467.544 359.531 468.632 363.201 468.632C365.761 468.632 368.001 468.099 369.921 467.032C371.841 465.965 373.291 464.557 374.273 462.808L377.089 464.472C375.766 466.691 373.889 468.461 371.457 469.784C369.025 471.064 366.251 471.704 363.137 471.704C358.23 471.704 354.198 470.147 351.041 467.032C347.883 463.875 346.305 459.864 346.305 455C346.305 450.221 347.841 446.253 350.913 443.096C354.027 439.896 358.017 438.296 362.881 438.296ZM362.881 441.368C359.254 441.368 356.225 442.499 353.793 444.76C351.361 447.021 349.974 449.944 349.633 453.528H375.361C375.019 449.731 373.654 446.765 371.265 444.632C368.918 442.456 366.123 441.368 362.881 441.368ZM409.686 439H413.078L399.574 471H395.67L382.102 439H385.558L397.59 467.672L409.686 439ZM437.125 438.296C441.733 438.296 445.637 439.917 448.837 443.16C452.08 446.36 453.701 450.307 453.701 455C453.701 459.693 452.08 463.661 448.837 466.904C445.637 470.104 441.733 471.704 437.125 471.704C434.096 471.704 431.365 470.979 428.933 469.528C426.544 468.077 424.688 466.093 423.365 463.576V483.8H420.165V439H423.365V446.424C424.688 443.907 426.544 441.923 428.933 440.472C431.365 439.021 434.096 438.296 437.125 438.296ZM427.269 464.664C429.915 467.309 433.136 468.632 436.933 468.632C440.731 468.632 443.931 467.309 446.533 464.664C449.179 462.019 450.501 458.797 450.501 455C450.501 451.203 449.179 447.981 446.533 445.336C443.931 442.691 440.731 441.368 436.933 441.368C433.136 441.368 429.915 442.691 427.269 445.336C424.667 447.981 423.365 451.203 423.365 455C423.365 458.797 424.667 462.019 427.269 464.664ZM477.351 471.704C472.658 471.704 468.669 470.104 465.383 466.904C462.141 463.661 460.519 459.693 460.519 455C460.519 450.307 462.141 446.36 465.383 443.16C468.669 439.917 472.658 438.296 477.351 438.296C482.002 438.296 485.949 439.917 489.191 443.16C492.477 446.36 494.119 450.307 494.119 455C494.119 459.693 492.477 463.661 489.191 466.904C485.949 470.104 482.002 471.704 477.351 471.704ZM467.687 464.664C470.333 467.309 473.554 468.632 477.351 468.632C481.149 468.632 484.349 467.309 486.951 464.664C489.554 462.019 490.855 458.797 490.855 455C490.855 451.203 489.554 447.981 486.951 445.336C484.349 442.691 481.149 441.368 477.351 441.368C473.554 441.368 470.333 442.691 467.687 445.336C465.085 447.981 463.783 451.203 463.783 455C463.783 458.797 465.085 462.019 467.687 464.664ZM504.651 447.384C504.651 448.963 505.313 450.2 506.635 451.096C507.958 451.992 509.579 452.675 511.499 453.144C513.419 453.571 515.318 454.061 517.195 454.616C519.115 455.171 520.737 456.109 522.059 457.432C523.382 458.712 524.043 460.44 524.043 462.616C524.043 465.261 522.977 467.437 520.843 469.144C518.753 470.851 516.001 471.704 512.587 471.704C509.515 471.704 506.913 471.064 504.779 469.784C502.689 468.461 501.238 466.733 500.427 464.6L503.179 463C503.777 464.749 504.886 466.136 506.507 467.16C508.171 468.141 510.198 468.632 512.587 468.632C514.977 468.632 516.939 468.12 518.475 467.096C520.054 466.029 520.843 464.536 520.843 462.616C520.843 461.037 520.182 459.779 518.859 458.84C517.537 457.901 515.915 457.219 513.995 456.792C512.075 456.323 510.155 455.811 508.235 455.256C506.358 454.701 504.758 453.784 503.435 452.504C502.113 451.224 501.451 449.517 501.451 447.384C501.451 444.824 502.454 442.669 504.459 440.92C506.507 439.171 509.131 438.296 512.331 438.296C514.891 438.296 517.11 438.872 518.987 440.024C520.907 441.176 522.315 442.733 523.211 444.696L520.523 446.232C519.883 444.653 518.817 443.459 517.323 442.648C515.83 441.795 514.166 441.368 512.331 441.368C510.155 441.368 508.321 441.923 506.827 443.032C505.377 444.099 504.651 445.549 504.651 447.384ZM548.202 442.136H538.666V462.936C538.666 464.771 539.007 466.093 539.69 466.904C540.373 467.715 541.418 468.184 542.826 468.312C544.234 468.397 546.026 468.333 548.202 468.12V471C543.893 471.64 540.671 471.341 538.538 470.104C536.447 468.867 535.402 466.477 535.402 462.936V442.136H528.362V439H535.402V431L538.666 430.04V439H548.202V442.136ZM557.993 459.48L557.353 439V426.2H561.193V439L560.553 459.48H557.993ZM561.321 470.808C560.766 471.363 560.083 471.64 559.273 471.64C558.462 471.64 557.779 471.363 557.225 470.808C556.67 470.253 556.393 469.571 556.393 468.76C556.393 467.949 556.67 467.267 557.225 466.712C557.779 466.157 558.462 465.88 559.273 465.88C560.083 465.88 560.766 466.157 561.321 466.712C561.875 467.267 562.153 467.949 562.153 468.76C562.153 469.571 561.875 470.253 561.321 470.808Z" fill="white"/>
<g opacity="0.1">
<path fill-rule="evenodd" clip-rule="evenodd" d="M372.37 208.08L318.402 260.025C365.881 315.573 396.762 382.503 407.734 453.656C418.705 524.794 409.354 597.476 380.682 663.906C352.008 730.322 305.098 787.989 244.976 830.702C184.855 873.4 113.791 899.554 39.4035 906.35C-34.9845 913.146 -109.889 900.326 -177.284 869.268C-244.676 838.194 -302.014 790.062 -343.153 730.019C-384.29 669.961 -407.675 600.276 -410.799 528.412C-413.923 456.547 -396.67 385.213 -360.888 322.067L-309.596 371.439C-330.976 415 -342.021 462.602 -341.932 510.763C-341.932 554.036 -333.075 596.87 -315.87 636.844C-298.664 676.802 -273.446 713.113 -241.655 743.702C-209.865 774.291 -172.125 798.538 -130.595 815.067C-89.0631 831.61 -44.5553 840.101 0.388733 840.071H1.72684C65.8402 839.919 128.616 822.407 182.884 789.548C237.153 756.688 280.73 709.798 308.638 654.235C336.544 598.672 347.657 536.676 340.708 475.316C333.759 413.971 309.029 355.728 269.34 307.264L219.831 354.911C249.917 393.795 268.172 439.974 272.551 488.272C276.929 536.57 267.261 585.095 244.625 628.398C221.99 671.701 187.282 708.103 144.385 733.5C101.487 758.913 52.0928 772.323 1.72684 772.248V773.746H0.388733C-50.1907 773.822 -99.8002 760.381 -142.903 734.893C-186.005 709.419 -220.906 672.912 -243.711 629.458C-266.516 585.988 -276.328 537.296 -272.052 488.771C-267.778 440.261 -249.583 393.84 -219.499 354.699L-371.816 208.08C-431.807 276.372 -470.261 359.755 -482.649 448.404C-495.037 537.039 -480.841 627.248 -441.733 708.375C-402.626 789.502 -340.239 858.173 -261.924 906.305C-183.61 954.436 -92.6349 980 0.277374 980C93.1896 980 184.165 954.436 262.479 906.305C340.793 858.173 403.18 789.502 442.288 708.375C481.395 627.248 495.593 537.039 483.204 448.404C470.816 359.755 432.361 276.372 372.37 208.08Z" fill="#ACEC00"/>
<path fill-rule="evenodd" clip-rule="evenodd" d="M77.3077 323.765V171.454C86.3937 171.454 95.1071 167.9 101.532 161.576C107.957 155.251 111.566 146.672 111.566 137.728C111.566 128.781 107.957 120.203 101.532 113.878C95.1071 107.553 86.3937 104 77.3077 104H-59.5014C-68.5874 104 -77.3008 107.553 -83.7255 113.878C-90.1503 120.203 -93.7594 128.781 -93.7594 137.728C-93.7594 146.672 -90.1503 155.251 -83.7255 161.576C-77.3008 167.9 -68.5874 171.454 -59.5014 171.454V323.765C-104.432 339.627 -142.236 370.59 -166.251 411.207C-190.265 451.824 -198.95 499.468 -190.773 545.777C-182.597 592.071 -158.086 634.039 -121.557 664.289C-85.0288 694.539 -38.8287 711.129 8.90395 711.129C56.6366 711.129 102.837 694.539 139.365 664.289C175.894 634.039 200.405 592.071 208.581 545.777C216.758 499.468 208.072 451.824 184.059 411.207C160.044 370.59 122.239 339.627 77.3077 323.765ZM137.428 475.362C127.278 442.971 104.728 415.704 74.5004 399.23C44.2724 382.755 8.71004 378.384 -24.74 387.006C-58.1901 395.643 -86.9332 416.609 -104.953 445.518C-122.973 474.428 -128.871 509.05 -121.412 542.135C-98.7816 548.315 -74.8763 548.496 -52.1523 542.647C-29.4284 536.799 -8.70143 525.133 7.89752 508.854C24.5728 492.606 45.3277 480.954 68.0703 475.076C90.813 469.198 114.737 469.288 137.428 475.362Z" fill="white"/>
</g>
<path d="M108.34 159V123H137.8V115.38H100.78V159H108.34ZM136 140.94V134.28H113.92V140.94H136ZM182.685 139.74C182.685 148.5 178.785 152.1 166.785 152.1C154.785 152.1 150.885 148.5 150.885 139.74V115.38H143.025V139.74C143.025 153.24 149.745 159.6 166.545 159.6C183.465 159.6 190.125 153.24 190.125 139.74V115.38H182.685V139.74ZM248.905 159L235.765 145.74C241.405 143.58 244.765 138.48 244.765 131.28C244.765 121.56 238.885 115.38 228.925 115.38H197.605V159H205.165V123H228.925C234.145 123 237.265 125.76 237.265 131.4C237.265 137.04 234.385 140.16 228.925 140.16H210.745V146.88H227.065L238.105 159H248.905ZM274.121 159V123H290.681V115.38H249.941V123H266.501V159H274.121ZM339.025 159.18V115.38H331.405V133.44H309.445V140.22H331.405V159.18H339.025ZM303.925 159.18V115.38H296.305V159.18H303.925ZM386.178 159V151.38H354.738V123H386.118V115.38H347.178V159H386.178ZM384.498 140.04V133.62H360.318V140.04H384.498ZM444.606 159L431.466 145.74C437.106 143.58 440.466 138.48 440.466 131.28C440.466 121.56 434.586 115.38 424.626 115.38H393.306V159H400.866V123H424.626C429.846 123 432.966 125.76 432.966 131.4C432.966 137.04 430.086 140.16 424.626 140.16H406.446V146.88H422.766L433.806 159H444.606ZM475.436 159V115.38H467.816V159H475.436ZM521.732 157.92C522.812 159 523.952 159.54 525.212 159.54C527.432 159.54 528.992 157.86 528.992 154.98V115.02H521.732V146.94L490.952 116.4C489.812 115.26 488.852 114.84 487.712 114.84C485.312 114.84 483.812 116.58 483.812 119.4V159H491.072V127.08L521.732 157.92ZM544.535 159V123H573.995V115.38H536.975V159H544.535ZM572.195 140.94V134.28H550.115V140.94H572.195ZM610.42 159C622.84 159 631.78 149.4 631.78 136.74C631.78 124.08 623.02 115.38 610.42 115.38H599.8C587.62 115.38 578.62 123.9 578.62 136.74C578.62 149.4 587.62 159 599.8 159H610.42ZM599.8 151.38C591.94 151.38 586.24 145.32 586.24 137.1C586.24 128.82 592 123 599.8 123H610.42C618.46 123 624.16 128.88 624.16 137.1C624.16 145.32 618.46 151.38 610.42 151.38H599.8Z" fill="white"/>
<path d="M853.554 957.646C855.241 957.646 856.609 956.279 856.609 954.592C856.609 952.904 855.241 951.537 853.554 951.537C851.867 951.537 850.499 952.904 850.499 954.592C850.499 956.279 851.867 957.646 853.554 957.646Z" fill="white"/>
<path fill-rule="evenodd" clip-rule="evenodd" d="M865.674 954.601C865.678 957.275 864.791 959.873 863.153 961.987L865.338 964.161C867.537 961.459 868.738 958.081 868.738 954.597C868.738 951.112 867.537 947.734 865.338 945.032L863.153 947.207C864.792 949.323 865.679 951.925 865.674 954.601Z" fill="white"/>
<path fill-rule="evenodd" clip-rule="evenodd" d="M869.896 968.729C873.295 964.807 875.166 959.791 875.166 954.601C875.166 949.412 873.295 944.396 869.896 940.474L867.503 942.857C870.273 946.141 871.793 950.3 871.793 954.597C871.793 958.893 870.273 963.052 867.503 966.336L869.896 968.729Z" fill="white"/>
<path fill-rule="evenodd" clip-rule="evenodd" d="M859.565 954.602C859.56 955.644 859.28 956.667 858.754 957.567L860.968 959.782C862.043 958.259 862.62 956.441 862.62 954.577C862.62 952.713 862.043 950.895 860.968 949.372L858.754 951.586C859.289 952.501 859.568 953.542 859.565 954.602Z" fill="white"/>
<path fill-rule="evenodd" clip-rule="evenodd" d="M853.564 972.772C850.786 972.775 848.045 972.143 845.549 970.925C843.053 969.707 840.869 967.935 839.162 965.743C837.456 963.552 836.272 961 835.703 958.281C835.133 955.563 835.192 952.75 835.875 950.058C836.558 947.366 837.848 944.866 839.644 942.748C841.441 940.63 843.698 938.951 846.243 937.838C848.788 936.726 851.553 936.209 854.328 936.329C857.103 936.448 859.814 937.2 862.254 938.526L859.97 940.8C857.524 939.663 854.818 939.199 852.133 939.455C849.447 939.711 846.878 940.678 844.691 942.257C842.504 943.836 840.777 945.97 839.688 948.439C838.6 950.907 838.189 953.621 838.498 956.301C838.807 958.981 839.825 961.53 841.447 963.686C843.07 965.842 845.237 967.526 847.726 968.565C850.216 969.605 852.938 969.962 855.611 969.6C858.284 969.237 860.813 968.169 862.936 966.504L856.322 959.92C855.472 960.37 854.525 960.604 853.564 960.602C852.655 960.603 851.758 960.396 850.94 959.999C850.123 959.602 849.406 959.024 848.844 958.31C848.283 957.595 847.891 956.762 847.698 955.874C847.505 954.986 847.517 954.065 847.732 953.182C847.947 952.299 848.36 951.476 848.939 950.776C849.518 950.075 850.249 949.516 851.077 949.139C851.904 948.763 852.806 948.579 853.715 948.602C854.623 948.626 855.515 948.855 856.322 949.273L858.556 947.048C857.377 946.268 856.03 945.775 854.626 945.609C853.221 945.442 851.797 945.607 850.468 946.091C849.138 946.574 847.94 947.362 846.97 948.391C846 949.42 845.285 950.663 844.881 952.018C844.478 953.374 844.397 954.806 844.647 956.198C844.896 957.59 845.468 958.905 846.317 960.036C847.166 961.168 848.268 962.085 849.535 962.713C850.802 963.342 852.199 963.665 853.613 963.657C854.144 963.653 854.673 963.604 855.195 963.509L857.686 966C855.716 966.71 853.595 966.897 851.531 966.542C849.466 966.188 847.529 965.305 845.908 963.979C844.286 962.653 843.036 960.93 842.279 958.977C841.522 957.024 841.284 954.908 841.589 952.836C841.893 950.764 842.729 948.806 844.015 947.153C845.301 945.5 846.994 944.208 848.928 943.404C850.862 942.6 852.971 942.311 855.05 942.565C857.129 942.819 859.107 943.608 860.791 944.854L867.543 938.101C864.397 935.443 860.557 933.74 856.476 933.192C852.394 932.644 848.241 933.274 844.506 935.008C840.77 936.742 837.609 939.508 835.393 942.979C833.177 946.451 832 950.483 832 954.601C832 958.72 833.177 962.752 835.393 966.223C837.609 969.695 840.77 972.461 844.506 974.195C848.241 975.929 852.394 976.559 856.476 976.011C860.557 975.463 864.397 973.76 867.543 971.102L865.16 968.709C861.883 971.368 857.784 972.804 853.564 972.772Z" fill="#ACEC00"/>
<path d="M892.427 964.251C891.06 964.303 889.698 964.052 888.44 963.515C887.182 962.978 886.058 962.169 885.15 961.146C883.501 959.278 882.619 956.856 882.679 954.364C882.604 951.97 883.45 949.639 885.042 947.849C885.984 946.849 887.133 946.066 888.408 945.554C889.683 945.042 891.054 944.813 892.427 944.883H903.302V948.255H892.427C891.55 948.22 890.676 948.372 889.863 948.701C889.05 949.03 888.317 949.528 887.711 950.163C886.65 951.308 886.045 952.803 886.011 954.364C885.916 955.994 886.458 957.596 887.523 958.833C888.14 959.524 888.905 960.067 889.76 960.422C890.616 960.776 891.541 960.933 892.466 960.879H903.341V964.251H892.427Z" fill="white"/>
<path d="M907.088 964.241V944.883H910.459V964.241H907.088Z" fill="white"/>
<path d="M929.124 964.251H914.364V960.909H929.124C930.081 960.958 931.024 960.663 931.784 960.078C932.067 959.858 932.297 959.576 932.456 959.254C932.615 958.933 932.7 958.579 932.703 958.22C932.706 957.87 932.627 957.524 932.473 957.21C932.318 956.896 932.092 956.622 931.813 956.411C931.036 955.841 930.086 955.558 929.124 955.61H919.96C919.131 955.651 918.303 955.524 917.525 955.237C916.747 954.95 916.035 954.509 915.432 953.939C914.468 952.958 913.928 951.637 913.928 950.261C913.928 948.886 914.468 947.565 915.432 946.584C916.035 946.014 916.747 945.573 917.525 945.286C918.303 944.998 919.131 944.872 919.96 944.913H934.572V948.284H919.96C919.337 948.25 918.725 948.463 918.259 948.877C918.063 949.053 917.906 949.268 917.799 949.508C917.692 949.748 917.636 950.008 917.636 950.271C917.63 950.525 917.678 950.777 917.777 951.011C917.876 951.244 918.023 951.454 918.21 951.626C918.689 952.053 919.318 952.273 919.96 952.239H929.114C930.023 952.2 930.931 952.347 931.781 952.672C932.631 952.997 933.406 953.492 934.057 954.127C934.599 954.676 935.026 955.328 935.313 956.045C935.6 956.761 935.741 957.527 935.728 958.299C935.745 959.062 935.608 959.821 935.324 960.529C935.041 961.238 934.616 961.881 934.077 962.422C933.423 963.052 932.648 963.542 931.798 963.861C930.948 964.181 930.041 964.324 929.134 964.28L929.124 964.251Z" fill="white"/>
<path d="M952.762 964.251H938.002V960.909H952.762C953.719 960.958 954.662 960.663 955.422 960.078C955.705 959.858 955.935 959.576 956.094 959.254C956.253 958.933 956.338 958.579 956.341 958.22C956.344 957.87 956.265 957.524 956.111 957.21C955.956 956.896 955.73 956.622 955.451 956.411C954.674 955.841 953.724 955.558 952.762 955.61H943.608C942.779 955.651 941.951 955.524 941.173 955.237C940.395 954.95 939.683 954.509 939.08 953.939C938.116 952.958 937.576 951.637 937.576 950.261C937.576 948.886 938.116 947.565 939.08 946.584C939.683 946.014 940.395 945.573 941.173 945.286C941.951 944.998 942.779 944.872 943.608 944.913H958.229V948.284H943.608C942.985 948.25 942.373 948.463 941.907 948.877C941.714 949.054 941.56 949.27 941.454 949.51C941.348 949.75 941.294 950.009 941.294 950.271C941.288 950.524 941.335 950.775 941.433 951.008C941.53 951.241 941.674 951.452 941.858 951.626C942.337 952.053 942.966 952.273 943.608 952.239H952.762C953.672 952.197 954.58 952.344 955.43 952.669C956.281 952.993 957.055 953.49 957.705 954.127C958.247 954.676 958.674 955.328 958.961 956.045C959.248 956.761 959.389 957.527 959.376 958.299C959.392 959.061 959.256 959.819 958.974 960.527C958.692 961.235 958.271 961.879 957.735 962.422C957.08 963.05 956.304 963.539 955.454 963.858C954.605 964.178 953.699 964.321 952.792 964.28L952.762 964.251Z" fill="white"/>
<path d="M975.709 946.722C975.367 946.125 974.889 945.617 974.315 945.239C973.93 944.961 973.464 944.818 972.99 944.834C972.539 944.889 972.111 945.067 971.754 945.348C971.218 945.701 970.768 946.171 970.439 946.722L959.93 964.221H964.27L973 949.866L976.371 955.442H971.586L969.53 958.803H978.378L981.66 964.221H986L975.709 946.722Z" fill="white"/>
<g filter="url(#filter0_i_33_384)">
<rect x="382" y="929" width="307" height="51" rx="25.5" fill="#191A1B"/>
<path d="M409.792 963.352C407.381 963.352 405.376 962.552 403.776 960.952C402.176 959.352 401.376 957.368 401.376 955C401.376 952.632 402.176 950.648 403.776 949.048C405.376 947.448 407.381 946.648 409.792 946.648C411.349 946.648 412.757 947.021 414.016 947.768C415.275 948.493 416.192 949.485 416.768 950.744L415.456 951.512C414.987 950.488 414.24 949.677 413.216 949.08C412.213 948.483 411.072 948.184 409.792 948.184C407.872 948.184 406.261 948.845 404.96 950.168C403.659 951.469 403.008 953.08 403.008 955C403.008 956.92 403.659 958.541 404.96 959.864C406.261 961.165 407.872 961.816 409.792 961.816C411.072 961.816 412.213 961.517 413.216 960.92C414.24 960.323 415.019 959.512 415.552 958.488L416.896 959.288C416.256 960.525 415.296 961.517 414.016 962.264C412.757 962.989 411.349 963.352 409.792 963.352ZM428.213 963.352C425.867 963.352 423.872 962.552 422.229 960.952C420.608 959.331 419.797 957.347 419.797 955C419.797 952.653 420.608 950.68 422.229 949.08C423.872 947.459 425.867 946.648 428.213 946.648C430.539 946.648 432.512 947.459 434.133 949.08C435.776 950.68 436.597 952.653 436.597 955C436.597 957.347 435.776 959.331 434.133 960.952C432.512 962.552 430.539 963.352 428.213 963.352ZM423.381 959.832C424.704 961.155 426.315 961.816 428.213 961.816C430.112 961.816 431.712 961.155 433.013 959.832C434.315 958.509 434.965 956.899 434.965 955C434.965 953.101 434.315 951.491 433.013 950.168C431.712 948.845 430.112 948.184 428.213 948.184C426.315 948.184 424.704 948.845 423.381 950.168C422.08 951.491 421.429 953.101 421.429 955C421.429 956.899 422.08 958.509 423.381 959.832ZM455.2 940.6H456.8V963H455.2V959.288C454.538 960.547 453.6 961.539 452.384 962.264C451.189 962.989 449.834 963.352 448.32 963.352C446.016 963.352 444.053 962.552 442.432 960.952C440.832 959.331 440.032 957.347 440.032 955C440.032 952.653 440.832 950.68 442.432 949.08C444.053 947.459 446.016 946.648 448.32 946.648C449.834 946.648 451.189 947.011 452.384 947.736C453.6 948.461 454.538 949.453 455.2 950.712V940.6ZM443.584 959.832C444.906 961.155 446.517 961.816 448.416 961.816C450.314 961.816 451.914 961.155 453.216 959.832C454.538 958.509 455.2 956.899 455.2 955C455.2 953.101 454.538 951.491 453.216 950.168C451.914 948.845 450.314 948.184 448.416 948.184C446.517 948.184 444.906 948.845 443.584 950.168C442.282 951.491 441.632 953.101 441.632 955C441.632 956.899 442.282 958.509 443.584 959.832ZM469.553 946.648C471.899 946.648 473.798 947.48 475.249 949.144C476.721 950.808 477.457 952.781 477.457 955.064C477.457 955.149 477.446 955.277 477.425 955.448C477.425 955.619 477.425 955.747 477.425 955.832H462.929C463.121 957.624 463.835 959.075 465.073 960.184C466.331 961.272 467.878 961.816 469.713 961.816C470.993 961.816 472.113 961.549 473.073 961.016C474.033 960.483 474.758 959.779 475.249 958.904L476.657 959.736C475.995 960.845 475.057 961.731 473.841 962.392C472.625 963.032 471.238 963.352 469.681 963.352C467.227 963.352 465.211 962.573 463.633 961.016C462.054 959.437 461.265 957.432 461.265 955C461.265 952.611 462.033 950.627 463.569 949.048C465.126 947.448 467.121 946.648 469.553 946.648ZM469.553 948.184C467.739 948.184 466.225 948.749 465.009 949.88C463.793 951.011 463.099 952.472 462.929 954.264H475.793C475.622 952.365 474.939 950.883 473.745 949.816C472.571 948.728 471.174 948.184 469.553 948.184ZM490.316 946.648C492.62 946.648 494.572 947.459 496.172 949.08C497.794 950.68 498.604 952.653 498.604 955C498.604 957.347 497.794 959.331 496.172 960.952C494.572 962.552 492.62 963.352 490.316 963.352C488.802 963.352 487.436 962.989 486.22 962.264C485.026 961.539 484.098 960.547 483.436 959.288V963H481.836V940.6H483.436V950.712C484.098 949.453 485.026 948.461 486.22 947.736C487.436 947.011 488.802 946.648 490.316 946.648ZM485.388 959.832C486.711 961.155 488.322 961.816 490.22 961.816C492.119 961.816 493.719 961.155 495.02 959.832C496.343 958.509 497.004 956.899 497.004 955C497.004 953.101 496.343 951.491 495.02 950.168C493.719 948.845 492.119 948.184 490.22 948.184C488.322 948.184 486.711 948.845 485.388 950.168C484.087 951.491 483.436 953.101 483.436 955C483.436 956.899 484.087 958.509 485.388 959.832ZM504.701 950.136C505.661 947.896 507.443 946.776 510.045 946.776V948.312C508.531 948.312 507.261 948.803 506.237 949.784C505.213 950.744 504.701 952.184 504.701 954.104V963H503.101V947H504.701V950.136ZM520.16 946.648C522.507 946.648 524.406 947.48 525.856 949.144C527.328 950.808 528.064 952.781 528.064 955.064C528.064 955.149 528.054 955.277 528.032 955.448C528.032 955.619 528.032 955.747 528.032 955.832H513.536C513.728 957.624 514.443 959.075 515.68 960.184C516.939 961.272 518.486 961.816 520.32 961.816C521.6 961.816 522.72 961.549 523.68 961.016C524.64 960.483 525.366 959.779 525.856 958.904L527.264 959.736C526.603 960.845 525.664 961.731 524.448 962.392C523.232 963.032 521.846 963.352 520.288 963.352C517.835 963.352 515.819 962.573 514.24 961.016C512.662 959.437 511.872 957.432 511.872 955C511.872 952.611 512.64 950.627 514.176 949.048C515.734 947.448 517.728 946.648 520.16 946.648ZM520.16 948.184C518.347 948.184 516.832 948.749 515.616 949.88C514.4 951.011 513.707 952.472 513.536 954.264H526.4C526.23 952.365 525.547 950.883 524.352 949.816C523.179 948.728 521.782 948.184 520.16 948.184ZM551.243 947H552.939L547.883 963H546.123L541.675 949.368L537.227 963H535.467L530.411 947H532.107L536.363 960.92L540.843 947H542.507L546.987 960.92L551.243 947ZM556.193 962.904C555.916 963.181 555.574 963.32 555.169 963.32C554.764 963.32 554.422 963.181 554.145 962.904C553.868 962.627 553.729 962.285 553.729 961.88C553.729 961.475 553.868 961.133 554.145 960.856C554.422 960.579 554.764 960.44 555.169 960.44C555.574 960.44 555.916 960.579 556.193 960.856C556.47 961.133 556.609 961.475 556.609 961.88C556.609 962.285 556.47 962.627 556.193 962.904ZM567.708 963.352C565.298 963.352 563.292 962.552 561.692 960.952C560.092 959.352 559.292 957.368 559.292 955C559.292 952.632 560.092 950.648 561.692 949.048C563.292 947.448 565.298 946.648 567.708 946.648C569.266 946.648 570.674 947.021 571.932 947.768C573.191 948.493 574.108 949.485 574.684 950.744L573.372 951.512C572.903 950.488 572.156 949.677 571.132 949.08C570.13 948.483 568.988 948.184 567.708 948.184C565.788 948.184 564.178 948.845 562.876 950.168C561.575 951.469 560.924 953.08 560.924 955C560.924 956.92 561.575 958.541 562.876 959.864C564.178 961.165 565.788 961.816 567.708 961.816C568.988 961.816 570.13 961.517 571.132 960.92C572.156 960.323 572.935 959.512 573.468 958.488L574.812 959.288C574.172 960.525 573.212 961.517 571.932 962.264C570.674 962.989 569.266 963.352 567.708 963.352ZM586.129 963.352C583.783 963.352 581.788 962.552 580.145 960.952C578.524 959.331 577.713 957.347 577.713 955C577.713 952.653 578.524 950.68 580.145 949.08C581.788 947.459 583.783 946.648 586.129 946.648C588.455 946.648 590.428 947.459 592.049 949.08C593.692 950.68 594.513 952.653 594.513 955C594.513 957.347 593.692 959.331 592.049 960.952C590.428 962.552 588.455 963.352 586.129 963.352ZM581.297 959.832C582.62 961.155 584.231 961.816 586.129 961.816C588.028 961.816 589.628 961.155 590.929 959.832C592.231 958.509 592.881 956.899 592.881 955C592.881 953.101 592.231 951.491 590.929 950.168C589.628 948.845 588.028 948.184 586.129 948.184C584.231 948.184 582.62 948.845 581.297 950.168C579.996 951.491 579.345 953.101 579.345 955C579.345 956.899 579.996 958.509 581.297 959.832ZM616.092 946.648C617.841 946.648 619.249 947.192 620.316 948.28C621.383 949.368 621.916 950.893 621.916 952.856V963H620.316V952.856C620.316 951.363 619.921 950.211 619.132 949.4C618.364 948.589 617.34 948.184 616.06 948.184C614.631 948.184 613.468 948.675 612.572 949.656C611.697 950.637 611.26 952.109 611.26 954.072V963H609.66V952.856C609.66 951.363 609.287 950.211 608.54 949.4C607.815 948.589 606.823 948.184 605.564 948.184C604.156 948.184 602.972 948.685 602.012 949.688C601.073 950.669 600.604 952.131 600.604 954.072V963H599.004V947H600.604V949.752C601.713 947.683 603.431 946.648 605.756 946.648C606.929 946.648 607.953 946.936 608.828 947.512C609.703 948.067 610.343 948.867 610.748 949.912C611.303 948.824 612.049 948.013 612.988 947.48C613.948 946.925 614.983 946.648 616.092 946.648ZM629.065 962.904C628.788 963.181 628.447 963.32 628.041 963.32C627.636 963.32 627.295 963.181 627.017 962.904C626.74 962.627 626.601 962.285 626.601 961.88C626.601 961.475 626.74 961.133 627.017 960.856C627.295 960.579 627.636 960.44 628.041 960.44C628.447 960.44 628.788 960.579 629.065 960.856C629.343 961.133 629.481 961.475 629.481 961.88C629.481 962.285 629.343 962.627 629.065 962.904ZM647.333 947H648.965V963H647.333V959.384C646.65 960.621 645.711 961.592 644.517 962.296C643.322 963 641.967 963.352 640.453 963.352C638.17 963.352 636.218 962.552 634.597 960.952C632.975 959.331 632.165 957.347 632.165 955C632.165 952.653 632.975 950.68 634.597 949.08C636.218 947.459 638.17 946.648 640.453 946.648C641.967 946.648 643.322 947 644.517 947.704C645.711 948.408 646.65 949.379 647.333 950.616V947ZM635.749 959.832C637.071 961.155 638.682 961.816 640.581 961.816C642.479 961.816 644.079 961.155 645.381 959.832C646.682 958.509 647.333 956.899 647.333 955C647.333 953.101 646.682 951.491 645.381 950.168C644.079 948.845 642.479 948.184 640.581 948.184C638.682 948.184 637.071 948.845 635.749 950.168C634.447 951.491 633.797 953.101 633.797 955C633.797 956.899 634.447 958.509 635.749 959.832ZM666.038 947H667.638V963H666.038V959.96C664.886 962.221 662.976 963.352 660.31 963.352C658.411 963.352 656.896 962.776 655.766 961.624C654.656 960.451 654.102 958.893 654.102 956.952V947H655.734V956.952C655.734 958.445 656.139 959.629 656.95 960.504C657.782 961.379 658.944 961.816 660.438 961.816C662.08 961.816 663.424 961.272 664.47 960.184C665.515 959.096 666.038 957.517 666.038 955.448V947Z" fill="white"/>
</g>
</g>
<defs>
<filter id="filter0_i_33_384" x="382" y="929" width="307" height="55" filterUnits="userSpaceOnUse" color-interpolation-filters="sRGB">
<feFlood flood-opacity="0" result="BackgroundImageFix"/>
<feBlend mode="normal" in="SourceGraphic" in2="BackgroundImageFix" result="shape"/>
<feColorMatrix in="SourceAlpha" type="matrix" values="0 0 0 0 0 0 0 0 0 0 0 0 0 0 0 0 0 0 127 0" result="hardAlpha"/>
<feOffset dy="4"/>
<feGaussianBlur stdDeviation="2"/>
<feComposite in2="hardAlpha" operator="arithmetic" k2="-1" k3="1"/>
<feColorMatrix type="matrix" values="0 0 0 0 0 0 0 0 0 0 0 0 0 0 0 0 0 0 0.25 0"/>
<feBlend mode="normal" in2="shape" result="effect1_innerShadow_33_384"/>
</filter>
<clipPath id="clip0_33_384">
<rect width="1080" height="1080" fill="white"/>
</clipPath>
</defs>
</svg>
