<svg width="512" height="256" viewBox="0 0 512 256" fill="none" xmlns="http://www.w3.org/2000/svg">
<path d="M234.762 130.383C243.904 173.616 204.866 218.488 147.569 230.604C90.2706 242.72 36.4088 217.493 27.2656 174.26C18.1224 131.027 57.1582 86.158 114.458 74.042C171.757 61.9247 225.619 87.1494 234.762 130.383Z" fill="#FBF88B"/>
<path d="M236.251 129.973C237.11 134.14 237.601 138.378 237.633 142.635C237.925 182.064 203.81 212.412 169.658 225.657C131.51 240.454 82.7347 239.595 49.8556 212.832C36.2828 201.786 26.8766 186.246 24.8149 168.748C22.7309 151.08 28.6445 133.426 38.8026 119.081C63.3816 84.379 109.046 67.3062 150.579 69.6704C187.126 71.7494 227.83 91.1383 236.251 129.973C236.673 131.916 233.693 132.737 233.27 130.794C232.37 126.644 231.099 122.575 229.358 118.698C213.549 83.4691 170.535 70.5963 134.801 72.8074C95.7297 75.2272 53.4705 95.0284 35.0717 131.202C27.4149 146.258 25.1581 163.714 30.3705 179.931C35.6742 196.423 48.084 209.509 62.8865 218.07C98.6705 238.772 146.033 235.479 181.879 216.754C212.799 200.604 240.927 167.931 233.27 130.794C232.869 128.849 235.849 128.026 236.251 129.973Z" fill="#3A1E16"/>
<path d="M202.62 38.0247C236.033 30.9247 228.873 56.9482 226.42 62.1568C223.968 67.363 206.075 81.105 206.075 81.105C206.075 81.105 223.578 75.2852 236.292 82.3321C249.007 89.3778 255.673 98.9618 245.474 110.028C235.273 121.094 194.634 113.096 194.634 113.096C194.634 113.096 195.165 126.144 170.012 144.495C144.858 162.845 118.307 140.54 118.307 140.54C117.567 150.548 108.818 149.307 108.818 149.307L104.749 147.567C100.447 150.046 95.0036 148.938 95.0036 148.938C91.3036 157 77.2171 159.772 77.2171 159.772L62.3974 129.759C56.9567 127.585 57.1665 119.031 57.1665 119.031C43.1641 91.7494 32.2344 94.7519 30.1147 92.6963C27.9937 90.6371 30.9949 88.7112 30.9949 88.7112C30.9949 88.7112 22.0616 85.6346 23.1134 81.105C24.1665 76.5753 40.4949 82.6235 40.4949 82.6235L43.2468 80.3136C33.3875 74.1173 30.6542 68.0963 35.0394 67.6124C39.4246 67.1272 56.8159 77.1667 56.8159 77.1667V74.6074C48.4258 64.6334 50.9986 53.7148 53.6307 53.4716C56.2604 53.2272 56.2604 56.3445 60.6159 58.2729C64.9727 60.1988 82.532 101.415 82.532 101.415L87.3455 105.075L75.8628 74.9605C68.8048 64.642 72.0332 63.942 72.0332 63.942C69.2147 61.1902 66.2591 56.6531 65.9147 54.5383C65.5727 52.421 69.7542 53.4716 69.7542 53.4716C69.7542 53.4716 65.5567 33.8975 72.9307 36.8692C80.3036 39.842 81.6567 52.1618 81.8591 58.6284C82.0604 65.0988 88.1283 82.4223 88.1283 82.4223C88.1283 82.4223 88.7085 73.8828 89.0073 67.9358C89.306 61.9889 86.6023 55.9988 86.0801 53.3284C85.5567 50.6556 89.7604 34.0729 93.0912 34.5975C96.4233 35.121 99.2875 45.7716 99.2875 45.7716C99.2875 45.7716 102.037 36.5296 105.701 36.984C109.367 37.4408 109.557 55.5642 109.557 55.5642C113.222 59.6914 108.173 64.2136 108.173 64.2136L111.401 91.184L118.831 83.5198C122.644 61.7642 142.268 62.6013 142.268 62.6013C134.443 35.0099 145.79 27.7963 145.79 27.7963C178.669 13.279 176.694 59.4161 176.694 59.4161C185.932 46 202.62 38.0247 202.62 38.0247Z" fill="#ACEC00"/>
<path d="M187.77 177.935C187.77 177.935 173.767 178.184 169.164 189.211C164.561 200.239 184.363 208.643 191.103 203.968C197.842 199.291 210.978 187.195 187.77 177.935ZM157.406 188.483C157.406 188.483 142.815 180.814 136.062 189.211C129.31 197.609 132.064 211.649 146.733 213.968C161.405 216.285 174.191 199.349 157.406 188.483ZM135.561 158.002C135.561 158.002 128.674 146.28 112.417 158.002C96.1606 169.725 116.412 189.246 128.253 183.563C140.095 177.88 144.443 166.27 135.561 158.002ZM165.645 154.962C165.645 154.962 148.794 153.307 147.47 167.831C146.146 182.352 167.493 183.998 172.604 178.177C177.716 172.357 181.199 160.191 165.645 154.962ZM229.496 129.402C227.873 159.843 208.607 161.664 208.607 161.664L201.562 159.135L193.5 162.653C167.454 161.632 168.048 124.4 168.048 124.4C180.006 97.8975 198.075 116.072 198.075 116.072C199.233 103.981 231.119 98.9617 229.496 129.402Z" fill="#CC584C"/>
<path d="M57.1665 138.191C57.1665 138.191 47.8727 116.759 43.8677 96.942C43.8677 96.942 35.4517 82.0222 37.3937 100.884L41.9406 116.862C41.9406 116.862 23.6875 95.7037 17.4369 100.226L18.8974 104.19L34.5196 124.4C34.5196 124.4 15.4961 112.265 10.185 116.925L12.427 119.867L30.9517 132.484C30.9517 132.484 11.906 127.831 9.30971 136.81L11.4838 139.374C11.4838 139.374 44.6628 144 49.4974 148.97C54.3332 153.941 57.1665 138.191 57.1665 138.191ZM33.6529 196.162C33.6529 196.162 16.5826 215.572 11.9122 211.062C7.24057 206.554 20.1307 197.841 20.1307 197.841C20.1307 197.841 6.06526 203.821 4.28625 196.901C2.506 189.98 24.3529 187.552 24.3529 187.552C24.3529 187.552 6.5986 187.493 2.58008 176.373L9.24798 173.664L14.3072 175.261C14.3072 175.261 2.62082 166.157 6.77267 161.89C10.9245 157.623 25.9677 171.17 25.9677 171.17C25.9677 171.17 14.448 159.898 19.527 154.289C24.6048 148.679 38.6035 174.625 38.6035 174.625L33.6529 196.162Z" fill="#ACEC00"/>
<path d="M120.101 214.578C114.839 215.233 102.8 205.246 102.8 205.246L98.5084 204.465C81.3887 206.584 29.6023 205.763 31.9467 186.256C34.2887 166.749 58.1158 172.133 58.1158 172.133L60.6158 170.837C52.4134 163.922 41.9665 141.839 62.3973 138.247C82.8257 134.653 109.01 188.07 109.01 188.07L124.991 195.021C129.396 205.816 118.744 203.363 118.744 203.363C118.744 203.363 125.363 213.919 120.101 214.578Z" fill="#F68714"/>
<path d="M63.0187 128.465C61.9421 127.425 59.8298 126.623 59.0162 125.4C58.2113 124.189 59.5977 122.674 59.5298 121.353C59.4545 119.9 58.473 118.564 57.7545 117.363C56.7323 115.651 55.6693 113.964 54.5644 112.306C52.3755 109.016 50.0187 105.848 47.5434 102.772C46.452 101.414 44.5483 103.34 45.631 104.683C48.0582 107.701 50.3508 110.821 52.4841 114.054C53.4977 115.588 54.4767 117.148 55.4199 118.727C55.8039 119.373 56.7187 120.44 56.7989 121.228C56.8792 122.03 56.4125 122.609 56.2051 123.34C55.5286 125.738 56.8187 127.29 58.7347 128.602C61.8495 130.74 63.8347 133.258 64.4557 137.062C64.7372 138.777 67.3434 138.048 67.0656 136.343C66.5755 133.359 65.2088 130.577 63.0187 128.465ZM104.117 146.149C98.3606 136.505 93.152 126.562 88.5051 116.328C86.8594 114.728 85.0421 113.316 83.4039 111.694C82.2483 110.549 80.4668 108.832 80.531 107.068C80.5681 106.046 81.7607 104.417 82.6866 103.931C77.4705 94.6778 72.8273 85.1296 68.7483 75.321C68.6644 75.1222 68.6335 74.937 68.6421 74.7704C66.0421 68.3309 62.9471 61.8444 57.6397 57.279C56.9273 56.6667 55.7545 55.4111 54.7903 55.2099C52.3891 54.7111 52.6026 56.1679 52.5619 57.458C52.4755 60.1926 52.8483 63.0963 53.4051 65.7642C54.3656 70.3605 57.1063 73.4457 60.4125 76.6136C61.4841 77.637 60.331 79.0617 59.0989 78.8753C58.0199 79.8012 57.9298 80.5395 58.8236 81.0901C59.0705 81.4543 59.4063 81.684 59.8298 81.7753C60.4286 82.0568 61.0767 82.1272 61.7249 82.216C61.9705 82.2494 62.1594 82.3346 62.3113 82.4469C62.8656 82.437 63.4434 82.7025 63.7014 83.3469C65.8952 88.8444 68.5853 94.1 71.7236 99.121C72.2841 100.021 71.5458 101.123 70.5532 101.156C69.8187 101.18 68.7545 100.838 68.0545 100.999C66.0434 101.462 67.5273 101.899 68.2335 102.349C69.6681 103.264 71.1051 104.178 72.5421 105.091C72.7619 105.168 72.957 105.323 73.11 105.57C73.1866 105.675 73.2409 105.786 73.2804 105.901C79.9582 120.589 87.8668 134.667 96.931 148.014C99.6582 149.186 102.147 148.142 104.117 146.149ZM118.783 141.84C118.461 144.494 117.527 147.577 115.343 149.307C113.073 151.106 109.703 150.793 107.046 150.275C106.506 150.168 106.211 149.838 106.113 149.442C105.925 149.138 105.742 148.832 105.557 148.526C102.872 150.988 99.3619 151.962 95.8742 150.49C94.8483 152.917 93.0285 154.927 90.6446 156.131C89.0928 156.914 87.7261 154.579 89.2804 153.794C91.4347 152.706 93.0063 150.901 93.6989 148.579C93.736 148.458 93.7853 148.356 93.8397 148.258C85.0977 135.254 77.4471 121.56 70.9582 107.294C69.1878 106.196 67.2816 105.173 65.6471 103.902C64.7273 103.19 63.8607 102.498 63.9273 101.212C64.052 98.779 66.1323 98.4272 68.1286 98.4173C65.5508 94.0543 63.3187 89.5185 61.4026 84.8198C61.2767 84.8358 61.1471 84.842 61.0063 84.8235C58.3804 84.4691 55.4866 82.9617 55.3878 79.9432C55.3742 79.5691 55.4174 79.2185 55.4989 78.8914C50.9187 74.9086 45.5545 71.5988 39.7594 69.7235C38.4854 69.3123 35.4286 68.2383 34.194 69.1358C32.731 70.2 35.6249 72.1802 36.4137 72.916C38.7965 75.1395 41.3088 77.2086 43.9286 79.1469C45.0261 79.958 44.6286 81.5395 43.2471 81.6667C41.3434 81.8407 44.7878 83.7914 44.852 83.8148C45.3051 83.984 45.7742 84.0988 46.2286 84.2605C46.8594 84.484 47.4545 84.7432 48.0409 85.0346C48.4261 84.9321 48.8533 85.0333 49.2039 85.4519C55.6273 93.1753 61.3026 101.456 66.152 110.253C66.5249 110.93 66.2471 112.115 65.3458 112.24C63.415 112.505 65.1705 113.705 65.9409 114.119C66.8187 114.593 67.6755 115.035 68.5026 115.586C68.757 115.68 68.9878 115.868 69.1557 116.18C74.6656 126.415 79.8397 136.844 84.6557 147.423C85.3693 148.999 83.0397 150.372 82.3187 148.79C77.5446 138.3 72.4174 127.96 66.9619 117.81C65.0804 116.677 61.7273 115.67 61.0755 113.469C60.5878 111.819 61.6409 110.709 62.9631 110.111C58.5397 102.289 53.4705 94.8753 47.7545 87.9346C47.7199 87.9185 47.6878 87.9099 47.6545 87.8901C45.5002 86.663 41.9483 86.3605 40.6323 83.9617C40.4779 83.9778 40.315 83.9728 40.1347 83.9284C36.3421 82.9679 32.4755 81.6679 28.61 81.058C27.4125 80.8691 24.3681 80.3827 25.9619 82.8741C26.3039 83.4074 27.3236 84.037 27.8014 84.4235C29.1829 85.5358 30.5681 86.6444 31.952 87.7556C32.6533 88.3185 32.3557 89.4704 31.6767 89.8802C30.9681 90.2222 30.6286 90.7358 30.6483 91.4136C32.3928 91.9272 34.3841 92.0704 36.131 92.3753C37.8446 92.6741 37.115 95.279 35.4125 94.9815C33.3693 94.6272 28.8434 94.8765 28.0384 92.4839C27.5878 91.1481 28.0298 89.8259 28.8693 88.8C25.8088 86.5864 19.815 82.2802 23.5681 79.2247C25.3878 77.7457 28.1471 78.1852 30.2397 78.6432C33.6286 79.3864 36.9841 80.3296 40.3471 81.1889C40.4656 80.8407 40.6409 80.5185 40.8656 80.2333C37.6582 77.8753 34.2212 75.2753 31.8866 72.1975C29.7656 69.4049 31.1718 66.7914 34.4903 66.3506C38.6989 65.7926 43.1224 67.9198 46.7841 69.7617C49.7471 71.2481 52.5224 73.0494 55.1224 75.084C54.2261 74.0654 53.4014 72.9852 52.7249 71.8012C51.3261 69.3568 50.7471 66.6222 50.3631 63.8593C49.9236 60.7198 48.252 51.4988 54.1137 52.1667C56.3915 52.4284 58.5187 54.3963 60.1335 55.8864C62.131 57.7235 63.8446 59.8728 65.331 62.1407C68.4705 66.9272 70.5903 72.3049 72.657 77.6148C72.6755 77.6617 72.6804 77.7012 72.6928 77.7457C76.2187 85.9086 80.1668 93.8765 84.5039 101.641C80.6742 92.863 77.2915 83.9 74.3853 74.7704C72.5162 72.5321 67.9039 65.7407 69.9458 63.2173C67.6866 61.4074 65.5952 59.0741 64.6878 56.458C63.7557 53.7753 65.8199 52.4568 68.0742 52.2815C67.0928 47.7679 67.1866 42.8889 68.8434 38.558C70.0891 35.3037 73.236 34.9296 75.831 37.0383C78.9705 39.5877 81.3508 44.0617 82.4014 47.9111C83.0656 50.3519 82.9668 52.8679 83.1421 55.3667C83.3125 57.8259 83.7014 60.263 83.8508 62.7235C84.5199 67.8617 85.931 72.8198 87.7162 77.658C87.7026 75.3975 87.6878 73.1383 87.6742 70.8778C87.6495 66.7568 87.5718 62.9173 86.2002 58.9852C84.8779 55.1938 84.3693 52.1123 85.3841 48.163C86.2446 44.8 87.2014 41.2741 88.515 38.0593C89.3557 36.0025 90.8471 33.3259 93.3952 33.2728C96.1446 33.2173 96.9952 36.4543 97.8051 38.5259C98.3002 39.7975 98.789 41.1198 99.1977 42.4716C101.047 38.1518 104.296 33.0296 107.157 36.5333C109.052 38.8556 109.71 42.937 110.095 45.8123C110.475 48.6494 110.396 51.4704 109.956 54.2741C111.268 54.2123 112.453 54.8099 112.731 56.5235C113.156 59.1284 111.527 62.0383 110.33 64.3099C109.796 73.2444 111.447 82.0086 112.705 90.8247C112.948 92.5309 110.341 93.2593 110.096 91.5444C108.789 82.3728 107.026 73.242 107.643 63.942C107.65 63.8284 107.669 63.7247 107.7 63.6235C107.726 63.5049 107.764 63.3839 107.829 63.2593C108.469 62.0296 109.125 60.8 109.569 59.4815C109.748 58.9568 109.91 58.4099 110 57.8605C110.215 56.5617 109.68 56.9025 108.856 57.421C107.617 58.1988 106.474 56.6889 106.992 55.6346C106.992 55.5395 107.001 55.4407 107.024 55.3407C108.008 50.7062 107.819 45.9469 106.35 41.4358C106.096 40.6531 105.688 38.3407 104.736 38.6099C104.245 38.7506 102.99 40.6605 102.816 40.9247C101.457 42.9568 100.7 45.2123 100.332 47.6136C100.31 47.7519 100.271 47.8667 100.221 47.9741C100.24 48.3519 100.246 48.7284 100.233 49.1049C100.131 52.358 98.8224 55.3951 98.3582 58.5802C99.9483 58.3309 101.705 58.5543 101.938 60.3247C102.099 61.5469 101.609 62.9852 101.319 64.1704C100.95 65.6704 100.463 67.1309 99.8977 68.5642C100.498 73.2531 100.984 77.9556 101.738 82.6198C103.98 81.4494 106.771 81.7704 106.994 85.0852C107.185 87.8988 105.51 90.2704 105.384 92.9778C105.245 95.9704 106.205 99.3346 106.736 102.274C107.046 103.979 104.437 104.704 104.127 102.993C103.526 99.6741 102.472 95.9037 102.715 92.5086C102.821 91.0333 103.478 89.7803 103.854 88.3753C104.008 87.8012 104.59 85.9988 104.301 85.4333C103.496 83.8679 102.55 85.1741 101.967 85.8272C101.689 86.137 101.367 86.2617 101.054 86.2568C100.39 86.4617 99.6323 86.2284 99.473 85.3531C98.4965 79.937 97.9372 74.4679 97.2495 69.0148C97.1261 68.7951 97.0878 68.5235 97.1668 68.216C97.1631 67.8852 97.2718 67.6259 97.452 67.4432C98.2248 65.4914 99.0607 63.2457 99.2076 61.1383C98.6039 61.1296 97.6236 61.5383 97.2829 61.6741C96.8705 61.8383 96.5211 61.7901 96.2508 61.6198C95.8137 61.4395 95.4804 61.0457 95.4928 60.4284C95.5471 57.5889 96.4236 54.9901 97.0458 52.2457C97.831 48.7901 97.336 45.7 96.2878 42.3605C95.7594 40.6753 95.152 39 94.4199 37.3926C93.5002 35.3802 92.0409 36.9173 91.331 38.3383C90.0607 40.8765 89.4693 43.8704 88.6594 46.579C87.6273 50.0358 87.0335 53 88.189 56.5284C89.1211 59.3691 90.0508 62 90.2644 65.0123C90.7162 71.3728 90.4224 77.8568 90.4631 84.2321C90.4631 84.3 90.4508 84.3605 90.4446 84.4247C91.0853 85.9025 91.7434 87.3728 92.4113 88.8358C93.7582 86.5778 95.7742 84.3 97.7989 86.8704C98.9594 88.3469 98.815 90.2531 98.7767 92.0383C98.7125 95.1346 98.6372 98.2136 98.3582 101.3C98.352 101.347 98.3397 101.388 98.3323 101.431C100.562 106.941 102.979 112.368 105.571 117.717C106.33 119.279 103.995 120.649 103.236 119.084C100.52 113.479 98.0014 107.789 95.6668 102.012C95.5199 101.651 95.5446 101.337 95.6693 101.083C95.9569 97.8333 96.0557 94.5778 96.0965 91.3148C96.1063 90.4099 95.794 89.5951 95.7594 88.7358C95.2211 89.9926 94.1705 91.1827 93.5582 92.4543C93.4594 92.6617 93.3335 92.8148 93.1903 92.9235C92.6002 93.4741 91.6248 93.5667 91.1952 92.642C86.9174 83.3827 82.8076 73.9765 81.2989 63.8531C81.2323 63.7037 81.1878 63.5346 81.1792 63.342C81.1718 63.142 81.1569 62.9432 81.1458 62.7444C81.0853 62.2815 81.0224 61.8185 80.9742 61.3519C80.9557 61.1667 80.9742 61.0049 81.0162 60.8605C80.7915 58.2321 80.4471 55.6185 80.336 52.9778C80.1915 49.4963 79.2915 46.621 77.5594 43.6086C76.7619 42.2222 75.8792 40.8222 74.7273 39.6988C73.7458 38.7383 72.8384 37.8309 71.3249 39.6309C70.894 40.1432 70.8174 41.4235 70.6804 42.0457C69.8409 45.8667 70.0644 49.6556 71.1458 53.4012C71.3286 54.037 71.0668 54.5321 70.6458 54.8136C70.3569 55.0605 69.9607 55.1852 69.4816 55.063C68.6816 54.8593 67.2397 54.8395 67.3965 55.916C67.5088 56.6691 68.4767 57.7198 68.9421 58.3272C70.2051 59.9716 71.7471 61.3296 73.4915 62.4444C73.5162 62.4605 73.5347 62.4802 73.5582 62.4963C73.5903 62.5185 73.6211 62.5432 73.6508 62.5691C73.9989 62.8654 74.136 63.2531 74.1137 63.6358C74.1162 64.1704 73.8384 64.6963 73.2952 64.8852C73.1014 64.9741 72.8878 65.0185 72.6607 64.9864C71.4755 65.2198 73.494 68.6407 73.8162 69.2358C74.5829 70.6543 75.4742 71.942 76.5471 73.1457C76.5693 73.1716 76.5829 73.1988 76.6039 73.2247C76.636 73.2605 76.6619 73.3025 76.6903 73.3432C76.7014 73.3617 76.7174 73.379 76.7298 73.4C76.794 73.5 76.8532 73.6111 76.8952 73.7432C80.3569 84.6691 84.4878 95.358 89.2965 105.764C89.8236 106.907 88.7323 107.939 87.8187 107.81C87.5891 107.832 87.3434 107.8 87.094 107.684C86.4076 107.364 84.4162 106.04 83.7495 106.707C82.852 107.611 84.4977 108.962 85.0878 109.553C86.7261 111.201 88.5458 112.63 90.2162 114.226C90.4224 114.322 90.6063 114.5 90.7434 114.767C90.8236 114.881 90.8779 115.002 90.9162 115.123C96.0211 126.354 101.805 137.237 108.251 147.757C110.029 148.069 112.387 148.28 113.788 147.098C115.101 145.989 115.771 143.894 116.026 142.188C115.966 142.123 115.909 142.051 115.857 141.968C114.852 140.344 113.864 138.71 112.894 137.065C112.006 135.563 114.345 134.202 115.231 135.701C116.2 137.346 117.189 138.979 118.193 140.604C118.215 140.64 118.227 140.677 118.246 140.712C118.608 140.907 118.85 141.28 118.783 141.84ZM229.174 110.769C230.819 111.895 232.367 109.217 230.735 108.099C225.827 104.737 220.72 101.714 215.426 99.0346C222.847 98.2259 230.362 98.3506 237.803 99.4568C239.748 99.7469 240.589 96.7691 238.625 96.4765C230.803 95.3123 222.916 95.1444 215.127 95.9716C220.148 92.9975 225.29 90.2407 230.806 88.263C232.667 87.5988 231.863 84.6099 229.985 85.2827C222.093 88.1111 214.935 92.4099 207.826 96.7926C207.669 96.8889 207.548 97.0037 207.446 97.1247C206.362 97.3346 205.279 97.5593 204.198 97.8086C206.567 94.0963 209.154 90.5259 212.361 87.4802C213.808 86.1074 211.617 83.9235 210.175 85.2938C206.017 89.242 202.825 94.0556 199.861 98.9346C198.764 99.2457 197.669 99.5716 196.583 99.9259C194.699 100.538 195.504 103.525 197.404 102.906C201.514 101.568 205.701 100.532 209.936 99.8012C216.643 102.926 223.067 106.581 229.174 110.769ZM167.617 43.7136C167.583 48.8926 165.919 53.6728 163.657 58.2099C163.782 52.163 163.185 46.116 161.853 40.1494C161.421 38.2074 158.441 39.0284 158.873 40.9704C159.714 44.742 160.247 48.5556 160.479 52.3827C158.547 48.1568 155.954 44.2543 152.769 40.779C151.421 39.3099 149.24 41.5012 150.582 42.9642C155.375 48.1926 158.652 54.4395 160.288 61.3358C160.322 61.4778 160.374 61.6012 160.432 61.716C160.25 64.3519 159.924 66.9815 159.445 69.6C159.09 71.5444 162.067 72.379 162.425 70.421C162.733 68.7333 162.98 67.0407 163.175 65.3457C163.278 65.2469 163.377 65.137 163.462 64.9938C167.321 58.4395 170.656 51.4691 170.709 43.7136C170.72 41.7247 167.63 41.721 167.617 43.7136ZM184.399 80.5173C184.433 80.4284 184.474 80.3395 184.51 80.2519C192.124 75.379 200.094 70.3765 209.295 69.4815C211.258 69.2901 211.275 66.1975 209.295 66.3901C201.08 67.1889 193.859 70.8494 186.953 75.0716C187.282 74.4519 187.621 73.8358 187.969 73.2259C189.605 70.3704 191.459 67.6321 193.526 65.0704C197.494 60.1481 202.173 55.8642 207.404 52.3185C209.042 51.2099 207.496 48.5284 205.845 49.6494C199.936 53.6543 194.693 58.5062 190.33 64.163C188.343 66.7383 186.551 69.4531 184.963 72.2901C185.877 66.2716 187.558 60.3914 190.006 54.7753C190.79 52.9704 188.129 51.3951 187.336 53.216C183.552 61.9049 181.438 71.0691 181.103 80.5457C181.096 80.6864 181.111 80.8148 181.137 80.937C181.147 81.1222 181.175 81.3074 181.246 81.4926C181.533 82.2296 182.294 82.8691 183.147 82.5716C183.211 82.5494 183.278 82.5272 183.345 82.5037C184.12 82.2333 184.675 81.4494 184.424 80.6012C184.415 80.5728 184.408 80.5457 184.399 80.5173ZM248.471 109.453C243.182 114.941 234.514 117.04 227.174 117.49C225.184 117.612 225.198 114.521 227.174 114.399C233.689 113.999 241.585 112.143 246.284 107.267C251.563 101.79 248.668 94.5691 244.047 89.7395C234.635 79.8975 220.151 79.0358 207.65 82.2136C203.124 86.9 199.535 92.2333 197.452 98.8716C196.858 100.767 193.874 99.9519 194.472 98.0506C197.311 89.0012 202.811 81.5136 210.137 75.5481C217.168 69.8259 225.685 64.4123 227.83 54.9222C228.704 51.058 228.142 46.7481 225.954 43.4037C223.067 38.9864 217.717 37.8617 212.747 37.8839C192.616 37.9802 178.016 56.8395 174.095 75.0198C173.674 76.9654 170.696 76.1358 171.112 74.1963C171.661 71.6667 172.387 69.1691 173.272 66.7259C173.288 66.6543 173.3 66.5815 173.326 66.5049C177.924 53.2556 175.285 33.1049 160.487 27.2444C152.715 24.1654 144.824 28.0074 142.612 36.0469C140.285 44.5086 141.952 54.6259 143.948 62.9877C144.41 64.9259 141.429 65.7444 140.968 63.8111C138.888 55.0951 137.353 44.9815 139.406 36.1222C140.872 29.7963 145.226 24.5099 151.831 23.3642C158.352 22.2321 164.641 24.9284 169.233 29.5086C176.138 36.3951 179.004 46.321 178.499 56.0012C181.109 51.8519 184.277 48.058 187.969 44.8198C195.714 38.0321 205.987 33.7827 216.398 35C220.937 35.5296 225.229 37.2272 228.026 40.9852C230.451 44.2432 231.524 48.4691 231.275 52.5012C230.675 62.2494 223.22 69.3037 215.971 74.8889C214.577 75.963 213.227 77.0593 211.926 78.1852C225.347 76.0642 240.022 78.7679 248.535 90.3025C252.926 96.2531 253.9 103.822 248.471 109.453Z" fill="#3A1E16"/>
<path d="M61.1249 201.917C58.678 197.889 57.7607 192.925 57.4163 188.302C57.0422 183.278 57.6459 177.856 61.099 174.054C52.8286 172.942 42.8558 171.847 36.7064 178.791C33.4299 182.489 32.5422 187.936 34.7595 192.388C36.736 196.358 40.3953 198.502 44.5743 199.358C50.0867 200.486 55.5867 201.335 61.1249 201.917ZM32.7274 194.953C31.6447 193.235 30.9002 191.322 30.5755 189.232C29.6928 183.512 32.3916 178.075 36.7521 174.606C33.078 169.495 30.699 163.498 26.1965 158.952C25.1965 157.942 22.9854 155.72 21.3768 155.725C17.6681 155.735 19.4348 159.756 20.4175 161.59C22.1397 164.812 24.4681 167.604 27.1768 170.04C28.4089 171.147 27.1052 172.831 25.7805 172.612C25.4743 172.594 25.1632 172.488 24.8731 172.264C22.1496 170.154 19.2583 168.273 16.2274 166.64C14.9175 165.933 13.5792 165.273 12.22 164.663C11.3188 164.26 9.10147 162.916 7.98665 163.241C3.9632 164.407 11.2262 170.507 12.4052 171.435C14.9916 173.469 17.7669 175.223 20.6632 176.785C22.2027 177.615 21.1854 179.769 19.7286 179.647C19.4274 179.689 19.0928 179.627 18.7546 179.395C16.0323 177.542 13.0694 176.2 9.82369 175.565C8.1669 175.242 5.36567 174.581 4.53727 176.405C3.74838 178.143 5.89159 179.574 7.26196 180.385C12.5138 183.495 18.8632 184.288 24.6348 186.022C25.2928 186.106 25.6817 186.573 25.8002 187.125C25.8151 187.194 25.8249 187.262 25.8311 187.335C25.8348 187.377 25.841 187.419 25.841 187.46C25.841 187.493 25.841 187.525 25.8385 187.558C25.8373 187.63 25.8323 187.705 25.8212 187.775C25.8188 187.785 25.8188 187.793 25.8163 187.801C25.6941 188.542 25.1126 189.2 24.2484 189.102C21.1718 189.223 18.1472 189.727 15.1842 190.568C12.6151 191.296 9.59159 192.174 7.57925 194.019C6.34344 195.151 4.6953 197.858 6.90147 198.974C8.1348 199.595 10.283 199.175 11.5299 198.921C13.9089 198.438 16.1422 197.473 18.3188 196.414C18.9546 196.042 19.6101 195.695 20.3039 195.4C22.0336 194.665 23.536 197.052 22.0891 197.946C22.0076 198.01 21.9163 198.068 21.8138 198.12C21.1311 198.464 20.4373 198.812 19.7336 199.154C17.8916 200.268 16.3484 201.722 15.183 203.648C14.378 204.974 13.6595 206.437 13.257 207.942C12.8262 209.551 12.7694 211.202 15.3694 210.426C16.1607 210.19 16.8768 209.309 17.4891 208.801C22.7755 204.411 27.4644 199.368 32.7274 194.953ZM101.418 205.964C91.3632 205.932 81.3027 206.185 71.2521 205.775C62.3533 205.411 53.4496 204.501 44.7484 202.563C41.2521 201.786 38.3422 200.932 35.6472 198.436C35.283 198.1 34.9373 197.749 34.6052 197.391C30.6669 200.722 27.0422 204.379 23.2373 207.864C20.699 210.188 16.2015 215.567 12.2546 213.505C8.34468 211.464 10.3373 206.244 11.836 203.309C12.0916 202.805 12.3731 202.326 12.6694 201.859C11.1755 202.205 9.65456 202.38 8.11135 202.281C4.85455 202.077 2.28048 199.98 2.79653 196.49C3.40641 192.365 7.2632 190.172 10.799 188.783C12.6348 188.063 14.5311 187.491 16.4583 187.048C14.0718 186.428 11.7027 185.752 9.41258 184.831C6.1669 183.525 1.97678 181.515 1.14962 177.72C0.286652 173.759 4.31505 171.94 7.62246 172.163C7.90517 172.183 8.18789 172.207 8.46937 172.236C7.88172 171.704 7.31011 171.159 6.77307 170.589C4.70147 168.4 2.37554 164.291 4.76196 161.491C7.27554 158.543 11.8941 161.107 14.5928 162.367C15.841 162.948 17.0583 163.579 18.2558 164.242C17.4731 162.909 16.8249 161.52 16.3768 160.091C15.2768 156.6 16.9842 152.168 21.2299 152.577C25.5447 152.991 29.0472 157.185 31.4212 160.421C34.3336 164.391 36.3879 168.974 39.3076 172.906C39.5015 172.799 39.6965 172.696 39.8941 172.598C46.9496 169.062 54.7323 170.102 62.278 171.121C63.1681 171.242 63.4805 171.917 63.3756 172.6C64.5521 172.731 65.5002 174.195 64.3694 175.169C60.5422 178.459 60.157 183.567 60.5077 188.302C60.8595 193.065 61.8978 198.607 65.1842 202.269C65.1928 202.278 65.199 202.288 65.2064 202.298C67.8595 202.511 70.5212 202.668 73.2039 202.754C75.0632 202.817 76.9237 202.853 78.783 202.878C76.2669 197.299 74.8484 191.027 76.1509 184.978C76.5694 183.03 79.5472 183.859 79.1311 185.799C77.8916 191.567 79.6262 197.73 82.2064 202.91C88.6101 202.946 95.0151 202.853 101.418 202.873C103.409 202.879 103.408 205.97 101.418 205.964ZM124.139 192.651C119.314 190.012 114.388 187.553 109.377 185.284C107.579 184.469 106.005 187.131 107.816 187.952C112.826 190.222 117.755 192.681 122.578 195.321C124.44 196.167 126.65 199.104 124.306 200.747C122.805 201.799 120.488 201.63 118.745 201.817C116.787 202.026 116.764 205.12 118.745 204.907C121.76 204.584 125.76 204.705 127.573 201.758C129.627 198.425 127.432 194.148 124.139 192.651ZM195.12 112.807C194.256 114.6 191.592 113.032 192.451 111.247C194.456 107.084 194.947 102.337 193.827 97.8469C192.63 93.0395 189.66 89.4296 185.967 86.2568C178.735 80.0407 170.029 74.6395 160.487 73.0938C160.225 73.1296 159.956 73.0839 159.698 72.9346C159.301 72.8037 159.058 72.5383 158.943 72.2197C156.271 69.379 148.867 63.6037 147.279 69.9C146.037 74.8259 152.079 79.6556 155.181 82.6543C155.203 82.6741 155.216 82.6963 155.236 82.7185C158.362 83.5617 161.272 85.1556 163.766 87.3975C165.251 88.7296 163.055 90.9086 161.581 89.5802C158.931 87.2037 155.768 85.7716 152.385 85.3C152.331 85.2926 152.277 85.2864 152.222 85.2778C151.124 85.1358 150.003 85.0975 148.871 85.158C148.669 85.1815 148.471 85.2123 148.282 85.2556C145.689 85.8593 145.416 88.9025 145.711 91.0963C146.245 95.0679 148.962 98.1432 151.715 100.846C152.722 101.836 151.916 103.215 150.856 103.44C150.684 103.498 150.492 103.526 150.269 103.512C144.318 103.098 149.119 110.744 150.922 112.549C153.316 114.944 156.203 117.098 159.272 118.532C161.074 119.375 159.503 122.04 157.711 121.202C152.922 118.96 147.435 114.814 145.283 109.841C143.73 106.244 144.209 102.094 147.416 100.805C144.421 97.3864 142.069 93.2975 142.594 88.5839C142.842 86.3506 143.773 83.9197 145.852 82.7827C146.273 82.5531 146.724 82.3864 147.195 82.2654C147.314 82.2235 147.439 82.1889 147.576 82.1728C147.602 82.1691 147.627 82.1691 147.652 82.1667C148.445 82.016 149.282 81.9864 150.122 82.0185C146.025 77.8123 141.766 72.2025 145.313 66.7926C145.603 66.3518 145.913 65.9753 146.237 65.6457C141.515 64.8272 136.404 65.1185 132.229 66.6679C125.513 69.1593 121.648 76.6333 119.818 83.4272C119.895 83.4049 119.971 83.3765 120.048 83.3543C124.708 82.058 130.466 83.6136 130.672 89.2852C130.808 92.9432 128.304 95.9741 126.347 98.8296C126.114 99.1716 125.881 99.516 125.647 99.8593C125.647 99.8593 125.65 99.8593 125.651 99.8593C128.362 99.4148 130.761 100.715 131.977 103.149C134.088 107.378 133.613 112.735 132.447 117.699C134.577 115.583 137.193 114.527 139.91 116.836C142.91 119.384 144.206 123.38 144.848 127.454C146.625 124.281 149.409 122.023 153.377 123.509C159.394 125.764 161.341 133.356 162.715 138.904C163.194 140.837 160.211 141.654 159.735 139.725C158.714 135.607 157.669 130.906 154.481 127.862C149.013 122.646 146.09 131.158 145.494 135.488C145.242 137.314 142.558 136.698 142.457 135.078C142.198 130.849 141.955 126.396 140.139 122.493C139.182 120.433 137.392 117.295 134.89 119.643C133.219 121.215 131.956 123.228 131.071 125.333C130.514 126.658 128.767 126.579 128.171 125.726C127.547 125.453 127.114 124.828 127.392 123.988C129.032 119.02 130.466 113.823 130.064 108.537C129.873 106.01 129.247 102.111 125.734 102.989C125.595 103.023 125.46 103.065 125.325 103.111C125.242 103.17 125.152 103.225 125.047 103.273C124.619 103.465 124.206 103.673 123.806 103.894C122.353 104.889 121.147 106.396 119.924 107.541C119.882 107.589 119.835 107.621 119.79 107.662C118.92 108.991 118.187 110.425 117.36 111.777C116.321 113.473 113.651 111.917 114.689 110.217C115.59 108.742 116.416 107.326 117.32 106.02C117.388 105.79 117.515 105.564 117.736 105.356C117.911 105.162 118.081 104.963 118.251 104.764C118.441 104.526 118.634 104.293 118.835 104.065C120.521 101.989 122.01 99.6988 123.513 97.5136C125.239 95 129.01 90.8667 127.036 87.6432C124.156 82.9444 116.503 88.1012 114.011 90.6951C110.629 94.2173 108.403 98.8136 107.179 103.506C104.76 112.785 106.309 123.065 111.63 131.077C117.529 139.956 127.851 146.101 137.978 148.889C148.525 151.79 160.33 150.621 168.92 143.402C170.432 142.128 172.63 144.306 171.105 145.588C159.787 155.099 144.192 155.211 131.01 149.73C119.926 145.121 109.84 137.163 105.43 125.709C101.397 115.232 102.299 102.621 108.304 93.0617C110.31 89.8679 112.984 86.8839 116.276 84.9679C117.988 76.7395 122.572 67.1876 130.827 63.9086C137.682 61.1864 146.564 61.6901 153.379 64.563C156.382 65.6605 159.332 68.0568 161.183 70.0852C171.987 71.7914 182.405 78.3642 190.153 85.8802C197.456 92.9654 199.561 103.583 195.12 112.807Z" fill="#3A1E16"/>
<path d="M77.6778 101.957C73.884 101.22 70.0914 100.485 66.2976 99.7494C65.3247 99.5617 64.9087 101.051 65.8865 101.241C69.6778 101.977 73.4716 102.711 77.2655 103.446C78.2371 103.635 78.6544 102.146 77.6778 101.957ZM94.5828 87.8766C94.5791 87.8901 94.5766 87.9049 94.5741 87.9185C92.7754 90.7556 91.3951 93.7901 90.4272 97.0037C90.1395 97.9605 91.6297 98.3667 91.9186 97.4173C92.4408 95.6741 93.0951 94 93.8716 92.3815C93.6309 94.0457 93.4111 95.7148 93.2161 97.384C93.0988 98.3704 94.647 98.363 94.7618 97.384C95.1173 94.3395 95.5568 91.3087 96.0716 88.2864C96.2383 87.3124 94.7494 86.8938 94.5828 87.8766ZM66.9408 121.04C63.8778 121.7 60.6062 120.978 57.8346 122.742C57.4062 123.016 57.4037 123.501 57.6136 123.837C57.5346 124.195 57.6815 124.581 58.1494 124.668C60.9556 125.195 63.7618 125.722 66.5667 126.247C67.5395 126.431 67.9556 124.942 66.9778 124.758C64.6395 124.32 62.2988 123.879 59.9581 123.441C62.2766 122.642 64.9556 123.048 67.3519 122.531C68.3235 122.321 67.9136 120.832 66.9408 121.04ZM38.2395 84.4333C34.0692 82.5716 29.7568 81.242 25.2531 80.4766C24.279 80.3124 23.8618 81.7988 24.842 81.9654C24.8507 81.9679 24.8605 81.9704 24.8692 81.9716C24.879 81.9803 24.8865 81.9901 24.8988 81.9988C28.4161 84.5975 32.1803 86.7469 36.2074 88.4543C37.1124 88.8383 37.9013 87.5062 36.9877 87.1198C34.1198 85.9037 31.3865 84.4593 28.7803 82.7926C31.7494 83.5272 34.6408 84.5099 37.4581 85.7667C38.3581 86.1691 39.1445 84.8395 38.2395 84.4333ZM49.5803 75.9284C46.6939 73.9815 43.6988 72.2124 40.5679 70.6803C38.8457 69.837 36.8494 68.6198 34.8568 68.363C34.5642 68.1012 34.2704 67.8432 33.979 67.5803C33.2445 66.9136 32.1482 68.0025 32.8865 68.6728C32.8988 68.684 32.9124 68.6951 32.9247 68.7062C32.7136 69.1815 33.1235 69.9506 33.8358 69.8494C33.9494 69.8333 34.063 69.8296 34.1803 69.8259C38.4482 73.6012 42.926 77.1148 47.6111 80.3617C48.4309 80.9296 49.205 79.5889 48.3926 79.0284C44.6556 76.4358 41.0544 73.6728 37.5889 70.7407C39.1852 71.4815 40.7667 72.4914 41.9025 73.0938C44.279 74.3531 46.5692 75.758 48.8013 77.2654C49.626 77.8222 50.4013 76.484 49.5803 75.9284ZM59.2618 71.8284C59.8025 72.6593 61.1408 71.884 60.5963 71.0494C57.8111 66.779 55.8692 62.1087 54.8581 57.1494C57.7544 60.7543 60.2161 64.6556 62.2346 68.8494C62.6642 69.7432 63.9988 68.9617 63.5679 68.0691C60.942 62.6111 57.563 57.6346 53.4815 53.163C52.8099 52.4272 51.7186 53.5235 52.3889 54.2556C52.5667 54.4506 52.7371 54.6543 52.9124 54.8519C53.7803 60.9506 55.8865 66.658 59.2618 71.8284ZM105.286 37.1877C105.043 36.2235 103.552 36.6321 103.795 37.5975C103.806 37.6346 103.814 37.6679 103.822 37.7049C102.169 43.742 101.377 49.9099 101.457 56.1704C101.469 57.1642 103.015 57.1654 103.003 56.1704C102.938 51.0988 103.463 46.1 104.561 41.1778C105.443 46.2346 105.515 51.3605 104.743 56.4815C104.596 57.4556 106.086 57.8741 106.232 56.8926C107.228 50.2741 106.927 43.6778 105.286 37.1877ZM90.6828 53.3667C90.3037 48.0494 90.9963 42.8543 92.7371 37.8494C93.8284 41.942 94.1062 46.1284 93.5581 50.384C93.4297 51.3679 94.9766 51.358 95.1037 50.384C95.7741 45.1803 95.2371 40.0408 93.5161 35.084C93.1914 34.1506 91.6988 34.5531 92.0272 35.4951C92.0507 35.563 92.0667 35.6296 92.0889 35.6988C91.9383 35.7803 91.8074 35.9136 91.7309 36.1111C89.5852 41.6432 88.7136 47.4482 89.1371 53.3667C89.2075 54.3531 90.7531 54.3605 90.6828 53.3667ZM78.6655 50.9037C78.7963 51.8852 77.2494 51.8729 77.1198 50.9037C76.5766 46.8049 75.1679 43.0111 72.9963 39.5605C73.1161 44.0617 74.0309 48.4259 75.7519 52.642C76.1284 53.5642 74.6334 53.9605 74.263 53.0531C72.1741 47.9358 71.2395 42.5766 71.4568 37.0543C71.4939 36.1432 72.7951 36.0704 72.9791 36.8333C73.0272 36.8753 73.0729 36.9198 73.1136 36.9778C76.163 41.1296 77.9902 45.8025 78.6655 50.9037Z" fill="#3A1E16"/>
<path d="M112.763 166.138C113.768 164.911 114.836 163.737 115.983 162.638C116.512 162.132 117.118 161.441 117.805 160.999C117.477 160.137 117.147 159.274 116.816 158.412C116.26 156.958 118.4 155.809 119.4 156.91C120.36 157.965 121.298 159.041 122.226 160.123C124.126 159.699 125.998 159.184 127.843 158.559C129.354 158.051 130.377 160.085 129.346 161.143C128.47 162.039 127.342 162.522 126.26 163.104C127.211 163.817 128.17 164.518 129.151 165.193C130.501 166.123 129.688 168.684 127.959 168.017C126.375 167.407 124.791 166.799 123.207 166.186C123.049 168.017 122.888 169.849 122.728 171.68C122.586 173.302 120.038 173.912 119.693 172.09C119.374 170.409 119.054 168.723 118.736 167.042C117.339 167.812 115.838 168.38 114.267 168.722C112.685 169.067 111.795 167.32 112.763 166.138ZM119.514 213.122C116.222 213.897 112.986 210.704 110.489 208.941C109.253 208.069 108.03 207.181 106.806 206.293C107.168 204.684 108.463 203.328 109.562 202.179C110.721 200.969 112.414 199.384 114.21 199.448C114.902 200.649 115.593 201.849 116.283 203.051C117.423 205.035 121.175 210.695 119.514 213.122ZM92.8975 195.628C93.2605 192.453 94.1136 189.016 96.4642 186.735C97.7197 185.515 99.4629 184.646 101.135 184.18C101.533 184.07 104.867 183.337 105.212 183.901C106.995 186.932 108.758 189.974 110.514 193.021C111.198 194.21 111.88 195.4 112.564 196.589C110.805 197.043 109.215 198.186 107.863 199.496C106.394 200.921 105.011 202.527 104.238 204.395C103.459 203.815 102.677 203.239 101.902 202.654C98.8666 200.356 95.8704 198.007 92.8975 195.628ZM77.321 182.842C77.3395 182.786 77.3617 182.733 77.3753 182.672C79.242 174.041 86.6975 166.379 96.0037 168.835C96.7444 169.988 97.479 171.144 98.2049 172.304C99.9481 175.089 101.647 177.899 103.328 180.72C103.212 180.726 103.099 180.73 102.989 180.736C100.542 180.867 98.0358 181.816 96.0148 183.18C92.4815 185.565 90.8716 189.385 90.1333 193.399C88.3444 191.952 86.5605 190.5 84.7864 189.037C82.2901 186.98 79.8049 184.914 77.321 182.842ZM62.0876 170.112C62.1592 169.93 62.2 169.716 62.1913 169.474C61.9963 164.037 65.5987 159.457 69.5518 156.093C73.7876 152.489 79.2234 150.442 84.6185 152.543C85.237 153.323 85.842 154.115 86.4321 154.904C88.9642 158.298 91.379 161.781 93.7148 165.315C84.621 164.637 77.0815 171.914 74.6913 180.651C72.5 178.822 70.3086 176.99 68.116 175.162C66.1284 173.501 64.0679 171.851 62.0876 170.112ZM54.2568 161.347C51.2617 156.509 49.9963 149.768 53.2963 144.728C57.2691 138.664 65.8629 138.899 71.7716 141.539C75.4284 143.175 78.5123 145.715 81.2457 148.612C76.4802 148.274 71.7815 150.307 67.9913 153.386C63.6703 156.895 59.8024 161.773 59.1876 167.41C57.3321 165.56 55.6358 163.574 54.2568 161.347ZM20.9123 138.811C18.4506 138.38 15.9395 138.072 13.5098 137.478C13.1642 137.394 12.095 137.283 11.8617 137.016C11.1753 136.231 12.0876 135.215 12.6247 134.835C13.7901 134.011 15.7827 133.832 17.1432 133.715C22.4716 133.257 28.1222 134.657 33.2382 136.017C34.9234 136.464 35.7617 134.235 34.6506 133.328C34.5382 133.122 34.3728 132.928 34.1382 132.769C29.9259 129.935 25.7136 127.099 21.5012 124.263C19.574 122.965 17.6296 121.685 15.7222 120.356C14.9308 119.804 12.3654 118.542 12.1481 117.685C11.0691 117.67 11.4271 117.53 13.2222 117.258C13.6432 117.238 14.0617 117.247 14.4802 117.283C22.8802 117.733 30.4432 122.751 36.6259 128.147C36.7123 128.259 36.8024 128.37 36.8889 128.483C37.1123 128.773 37.3864 128.956 37.6778 129.051C39.1444 130.085 41.1247 128.025 39.6963 126.742C39.4111 126.486 39.1185 126.236 38.8296 125.981C35.6876 121.907 32.4531 117.905 29.0926 114.006C27.279 111.905 25.4074 109.857 23.5666 107.784C22.6543 106.758 21.7555 105.722 20.9802 104.586C20.4333 103.788 19.0148 101.967 19.1432 100.995C19.358 99.3691 20.9827 100.62 21.8617 101.065C22.9469 101.612 24.0049 102.21 25.0419 102.842C27.2358 104.183 29.3136 105.695 31.2506 107.388C35.1358 110.78 38.3839 114.767 40.9839 119.221C41.2358 119.651 41.5926 119.877 41.9703 119.943C43.0629 120.381 44.579 119.585 44.0654 118.194C41.7815 111.98 39.421 105.49 38.6481 98.8778C38.4913 97.5271 38.1123 94.742 39.0765 93.6012C39.8518 92.6852 40.0987 93.1605 40.7308 93.942C41.1531 94.4642 41.4592 95.2691 41.7469 95.8827C43.1271 98.842 43.9407 102.062 44.774 105.206C47.7864 116.583 50.0185 128.222 55.1963 138.86C52.037 140.698 49.9703 143.636 48.9778 146.986C40.1518 142.66 30.558 140.499 20.9123 138.811ZM116.602 197.412C116.548 197.254 116.467 197.109 116.353 196.978C113.546 192.095 110.748 187.207 107.895 182.353C107.895 182.352 107.895 182.352 107.895 182.352C107.893 182.349 107.891 182.347 107.889 182.346C106.82 180.526 105.742 178.711 104.653 176.904C102.637 173.558 100.578 170.236 98.4605 166.951C98.3876 166.748 98.2753 166.563 98.1099 166.404C95.7271 162.723 93.2704 159.093 90.7049 155.537C86.4123 149.585 81.7346 143.473 75.2099 139.827C70.0197 136.925 63.6852 135.679 58.0061 137.604C54.6827 130.846 52.5901 123.614 50.7494 116.327C48.9358 109.154 47.6802 101.488 44.6024 94.7197C43.6407 92.6074 42.1012 88.9987 39.1691 89.5629C36.5913 90.058 35.6913 93.2469 35.4778 95.4691C35.1123 99.2876 36.2086 103.325 37.1753 106.988C37.4185 107.909 37.6815 108.827 37.9518 109.742C36.0136 107.531 33.8864 105.484 31.5666 103.651C29.237 101.81 26.7642 100.159 24.1419 98.7691C22.2605 97.7728 19.5617 96.1345 17.421 97.3802C12.5074 100.244 19.8296 108.243 21.9308 110.579C24.4037 113.335 26.8345 116.121 29.216 118.951C28.0901 118.305 26.937 117.704 25.7518 117.165C21.6543 115.312 15.2852 112.874 10.8111 114.657C4.84688 117.035 12.5889 121.951 14.9617 123.575C18.7259 126.153 22.5185 128.695 26.3098 131.235C22.5382 130.552 18.6839 130.244 15.0419 130.881C12.6284 131.305 9.40121 132.337 8.15553 134.673C7.09997 136.652 8.13083 138.627 9.99256 139.579C12.5926 140.904 15.9074 141.068 18.7444 141.557C22.037 142.123 25.3259 142.718 28.5901 143.431C35.4234 144.923 42.1234 146.942 48.3679 150.132C48.258 151.269 48.2592 152.423 48.3703 153.579C49.0185 160.29 53.0592 165.804 57.8049 170.336C63.8481 176.11 70.5876 181.243 77.0074 186.588C84.1778 192.556 91.3913 198.48 98.8025 204.151C102.644 207.089 106.543 209.959 110.515 212.72C113.594 214.863 116.57 217.167 120.511 216.067C120.644 216.03 120.759 215.98 120.865 215.921C121.135 215.867 121.401 215.704 121.632 215.406C125.436 210.49 119.722 202.831 117.267 198.567C117.046 198.183 116.825 197.796 116.602 197.412ZM227.951 129.402C227.816 137.03 225.111 145.149 221.035 151.577C219.08 154.656 216.491 157.38 213.149 158.936C210.78 160.038 204.485 161.441 202.895 158.354C202.648 157.872 202.268 157.642 201.865 157.594C201.405 157.449 200.889 157.543 200.469 158.041C194.714 164.836 184.827 159.864 179.706 154.767C174.079 149.17 170.92 141.133 169.632 133.407C168.323 125.565 170.431 117.391 177.668 113.204C183.914 109.589 192.309 111.073 196.742 116.852C197.047 117.248 197.449 117.443 197.86 117.488C198.605 117.689 199.474 117.411 199.732 116.456C201.719 109.122 212.638 106.48 218.804 109.806C225.51 113.427 228.078 122.299 227.951 129.402ZM229.365 118.736C227.091 112.417 222.351 106.451 215.333 105.516C208.81 104.649 200.785 107.259 197.657 113.314C188.838 104.683 173.794 107.595 168.24 118.979C164.681 126.272 166.18 134.82 168.73 142.188C171.16 149.21 175.133 155.731 181.265 160.095C187.116 164.257 195.707 166.553 201.422 161.484C205.121 164.905 212.936 162.856 216.49 160.622C222.99 156.536 226.474 148.941 228.79 141.897C231.23 134.481 232.054 126.21 229.365 118.736ZM159.812 208.486C154.098 214.094 143.985 213.739 138.038 208.685C132.342 203.841 132.159 194.893 137.653 189.823C143.405 184.518 151.242 185.962 157.059 190.158C159.888 192.373 162.564 194.681 163.22 198.448C163.868 202.159 162.467 205.88 159.812 208.486ZM160.767 189.236C160.693 189.131 160.606 189.032 160.493 188.938C159.962 188.495 159.415 188.07 158.853 187.667C158.735 187.575 158.617 187.483 158.499 187.39C158.39 187.304 158.275 187.239 158.16 187.188C152.88 183.626 146.414 181.896 140.259 184.518C133.856 187.249 129.857 193.817 130.61 200.767C132.286 216.263 154.953 220.833 163.728 208.638C166.017 205.457 166.941 201.486 166.2 197.627C165.504 193.995 163.369 191.485 160.767 189.236ZM195.206 199.73C189.867 204.373 180.857 205.391 175.389 200.416C170.189 195.685 170.259 187.974 175.612 183.444C176.83 182.412 178.24 181.564 179.751 180.922C179.784 181.573 179.831 182.222 179.885 182.875C178.228 183.239 176.649 183.843 175.146 184.653C173.723 185.422 174.475 187.447 175.927 187.533C176.999 187.597 178.074 187.662 179.147 187.726C179.016 188.817 178.885 189.91 178.754 191C178.663 191.762 179.414 192.427 180.094 192.517C180.91 192.628 181.501 192.137 181.791 191.411C182.262 190.236 182.733 189.059 183.204 187.881C184.484 188.326 185.747 188.815 186.989 189.36C188.468 190.011 190.274 188.216 188.863 186.933C188.17 186.306 187.478 185.677 186.786 185.048C187.615 184.704 188.446 184.359 189.275 184.016C191.128 183.247 190.432 180.765 188.454 181.036C187.047 181.227 185.659 181.48 184.296 181.847C184.077 181.157 183.843 180.47 183.596 179.79C187.357 179.138 191.3 179.743 194.367 181.972C197.126 184.086 199.63 187.296 199.732 190.89C199.832 194.335 197.711 197.551 195.206 199.73ZM197.707 180.739C197.221 180.28 196.705 179.862 196.164 179.484C195.993 179.347 195.817 179.215 195.638 179.084C195.491 178.975 195.347 178.909 195.204 178.862C191.467 176.657 186.786 176.142 182.38 177.005C181.536 176.104 179.869 176.286 179.702 177.709C172.775 180.025 167.265 185.851 168.509 193.816C170.932 209.302 191.759 210.228 199.985 199.07C204.522 192.92 202.863 185.991 197.991 181.102C197.919 180.979 197.831 180.857 197.707 180.739ZM153.38 159.473C156.228 156.926 160.044 155.7 163.843 155.932C166.325 156.083 168.094 156.954 169.758 158.316C169.835 158.402 169.926 158.485 170.028 158.562C170.1 158.614 170.169 158.67 170.241 158.727C170.77 159.195 171.298 159.709 171.839 160.268C171.917 160.348 172 160.415 172.083 160.473C175.87 164.9 176.242 171.709 172.248 176.305C167.39 181.889 157.519 182.104 152.272 176.788C147.375 171.827 148.394 163.932 153.38 159.473ZM176.538 175.495C179.595 169.707 178.269 162.842 174.098 158.175C174.073 158.146 174.053 158.111 174.025 158.083C173.954 158.01 173.884 157.938 173.814 157.868C173.593 157.632 173.364 157.402 173.13 157.179C171.296 155.378 169.339 153.828 166.746 153.235C163.123 152.406 159.196 152.805 155.802 154.295C149.859 156.905 145.449 163.116 145.97 169.738C147.17 184.988 169.562 188.699 176.538 175.495ZM109.177 165.949C110.109 162.289 112.654 159.146 115.672 156.949C118.819 154.656 122.238 154.121 125.905 154.441C126.062 154.502 126.228 154.549 126.422 154.563C134.238 155.068 140.344 162.153 138.356 170.054C136.444 177.664 128.565 182.806 120.846 181.912C113.312 181.042 107.244 173.556 109.177 165.949ZM141.83 166.615C141.632 159.091 136.037 153.386 129.06 151.848C128.921 151.774 128.762 151.711 128.569 151.681C124.679 151.08 120.78 150.915 117.102 152.535C113.806 153.988 110.9 156.617 108.837 159.539C104.516 165.663 104.846 173.564 109.728 179.269C120.204 191.51 142.248 182.597 141.83 166.615Z" fill="#3A1E16"/>
<path d="M489.289 138.231V174.393C489.289 187.084 478.904 197.464 466.211 197.464H283.537C270.845 197.464 260.459 187.084 260.459 174.393V138.231C260.459 135.93 262.326 134.063 264.63 134.063H485.119C487.423 134.063 489.289 135.93 489.289 138.231Z" fill="#FBF88B"/>
<path d="M485.543 132.406C485.412 132.374 485.273 132.354 485.118 132.354H438.889C438.665 133.272 438.302 134.157 437.772 135.017C437.633 135.275 437.489 135.525 437.339 135.772H485.118C488.13 136.041 487.58 139.327 487.58 141.446V161.752C487.58 165.948 487.639 170.151 487.58 174.347C487.458 182.885 482.428 190.706 474.507 194.074C469.705 196.115 464.585 195.756 459.502 195.756H285.844C284.813 195.756 283.776 195.783 282.747 195.744C273.967 195.42 266.047 189.47 263.268 181.138C261.647 176.278 262.168 170.886 262.168 165.832V155.106C262.168 149.811 261.948 144.469 262.168 139.18C262.239 137.477 262.631 136.012 264.711 135.772C265.015 135.737 265.334 135.783 265.637 135.772C278.099 135.358 290.646 135.772 303.111 135.772H382.733C382.639 134.631 382.878 133.467 383.337 132.354H267.064C266.258 132.354 265.442 132.312 264.636 132.354C258.423 132.678 258.751 138.504 258.751 143.054V169.901C258.751 176.963 259.355 183.478 263.809 189.333C268.515 195.522 275.8 199.062 283.546 199.174C287.021 199.227 290.499 199.174 293.975 199.174H429.164C441.499 199.174 453.848 199.342 466.183 199.174C473.779 199.072 480.953 195.669 485.673 189.678C490.188 183.944 490.997 177.477 490.997 170.451V143.552C490.997 138.883 491.491 133.198 485.543 132.406Z" fill="#3A1E16"/>
<path d="M309.622 28.1667C312.713 32.6321 315.804 37.0951 318.892 41.558C320.137 43.3568 323.1 41.6494 321.846 39.8346C318.754 35.3716 315.664 30.9062 312.575 26.4432C311.332 24.6457 308.368 26.3519 309.622 28.1667ZM340.401 14.5716C341.788 19.8198 343.171 25.0679 344.558 30.3185C345.118 32.4432 348.416 31.542 347.853 29.4111C346.469 24.1605 345.083 18.9124 343.697 13.6617C343.136 11.5371 339.838 12.4371 340.401 14.5716ZM286.471 55.4593C291.347 57.8469 296.225 60.2358 301.1 62.6235C303.069 63.5864 304.802 60.6408 302.827 59.6729C297.949 57.2864 293.074 54.8963 288.196 52.5099C286.23 51.5457 284.496 54.4914 286.471 55.4593ZM463.157 52.8297C458.279 55.2173 453.404 57.6062 448.528 59.9938C446.552 60.9618 448.283 63.9099 450.252 62.9445C455.127 60.5568 460.005 58.1667 464.88 55.7803C466.857 54.8124 465.126 51.8642 463.157 52.8297ZM437.075 26.3235C433.984 30.7877 430.895 35.2506 427.805 39.7161C426.549 41.5297 429.511 43.2408 430.755 41.4408C433.846 36.9778 436.937 32.5124 440.026 28.0494C441.28 26.2358 438.318 24.5247 437.075 26.3235ZM405.951 13.5432C404.567 18.7938 403.18 24.042 401.794 29.2914C401.233 31.4198 404.53 32.3272 405.09 30.2013C406.476 24.9506 407.863 19.7013 409.247 14.4531C409.81 12.3247 406.513 11.4161 405.951 13.5432ZM373.169 9.74076C373.169 7.53829 376.585 7.54323 376.585 9.74076C376.585 15.1692 376.585 20.6 376.585 26.0296C376.585 28.2296 373.169 28.2272 373.169 26.0296C373.169 20.6 373.169 15.1692 373.169 9.74076Z" fill="#3A1E16"/>
<path d="M381.807 132.337C381.807 132.337 382.825 152.543 402.273 155.179C421.721 157.816 439.52 134.859 439.52 134.859L440.733 134.489L442.262 131.602L446.59 132.695L482.838 132.337C512.021 119.836 508.632 85.0679 489.289 78.0667C469.946 71.0642 448.854 101.136 448.854 101.136L422.92 106.109L434.602 60.7926C433.584 54.5494 425.437 58.6481 425.437 58.6481C422.09 53.1679 417.539 55.858 417.539 55.858C413.568 51.8037 410.299 56.6518 410.299 56.6518C406.067 52.8123 403.728 57.4284 403.728 57.4284L393.476 90.0716C354.384 75.7346 350.439 132.337 350.439 132.337H381.807ZM266.374 132.379C261.283 127.023 256 123.168 262.392 106.109C268.788 89.0457 293.665 93.6 293.665 93.6C293.806 86.8629 299.896 90 299.896 90V86.6741C299.857 84.3975 307.595 82.4531 307.595 82.4531C308.868 78.9667 314.491 80.2728 314.491 80.2728C314.66 75.1876 319.702 77.2469 319.702 77.2469L347.006 132.354L266.374 132.379Z" fill="#ACEC00"/>
<path d="M379.402 103.793C379.402 103.793 366.754 100.386 363.225 108.722C359.699 117.06 369.291 126.37 379.402 122.225C389.516 118.08 386.743 106.228 379.402 103.793ZM360.16 101.136C360.16 101.136 374.879 94.5123 359.289 82.6654C359.289 82.6654 345.129 81.8457 344.854 94.2123C344.575 106.58 360.16 101.136 360.16 101.136ZM325.98 121.253C316.402 108.439 328.421 101.209 328.421 101.209C353.72 100.479 342.268 121.689 342.268 121.689C336.036 126.606 325.98 121.253 325.98 121.253Z" fill="#CC584C"/>
<path d="M429.294 125.015C399.696 130.936 388.641 108.772 409.057 90.3074C429.472 71.8432 448.274 80.763 448.274 80.763C481.726 91.5827 458.89 119.096 429.294 125.015Z" fill="white"/>
<path d="M445.559 100.62C442.411 110.644 405.949 116.042 413.793 101.86C421.636 87.6802 439.62 90.3074 439.62 90.3074C439.62 90.3074 448.71 90.5938 445.559 100.62Z" fill="#FBF88B"/>
<path d="M440.606 103.138C435.448 106.96 428.488 108.528 422.166 108.789C420.115 108.874 417.785 108.753 416.563 106.885C415.277 104.922 416.253 102.473 417.447 100.684C419.104 98.1988 421.772 96.1407 424.275 94.563C427.905 92.2716 431.819 91.3395 435.887 91.237C435.967 91.2481 436.042 91.2642 436.13 91.2642C436.748 91.2704 437.415 91.2568 438.1 91.2617C439.173 91.3086 440.257 91.4025 441.347 91.5395C441.372 91.5444 441.391 91.5395 441.414 91.542C442.853 91.8494 444.142 92.4876 444.961 93.8086C447.142 97.3284 443.23 101.194 440.606 103.138ZM445.9 89.8494C443.84 88.2025 441.095 87.9222 438.461 87.8667C432.742 87.5642 427.188 88.5901 422.245 91.8049C417.34 94.9926 410.13 101.338 413.158 107.962C416.119 114.431 426.02 112.167 431.394 110.869C437.78 109.33 445.382 105.823 448.212 99.4444C449.743 95.9901 448.866 92.216 445.9 89.8494ZM308.185 117.206C306.963 122.33 305.742 127.451 304.519 132.575C304.467 132.789 304.383 132.967 304.28 133.122C304.578 134.848 302.062 136.123 301.167 134.332C300.573 133.139 299.952 131.963 299.317 130.798C292.625 128.057 285.646 126.147 278.483 125.037C276.314 124.701 277.24 121.409 279.394 121.742C285.306 122.659 291.061 124.149 296.657 126.157C296.163 125.344 295.662 124.538 295.15 123.742C295.037 123.658 294.925 123.559 294.821 123.433C289.182 116.502 278.777 113.643 270.51 111.359C268.39 110.774 269.295 107.479 271.419 108.064C276.694 109.523 282.814 111.268 288.157 114.025C285.206 110.358 282.019 106.869 278.608 103.579C277.021 102.048 279.441 99.6333 281.025 101.162C285.504 105.483 289.611 110.148 293.321 115.107C292.616 110.749 292.331 106.337 292.473 101.885C292.542 99.6889 295.961 99.6852 295.892 101.885C295.673 108.728 296.488 115.419 298.35 122.009C298.399 122.183 298.412 122.346 298.415 122.501C299.585 124.352 300.706 126.235 301.771 128.154C301.859 128.19 301.946 128.227 302.035 128.265C302.988 124.277 303.94 120.288 304.89 116.298C305.401 114.156 308.698 115.068 308.185 117.206ZM456.294 111.39C452.573 115.521 447.558 117.853 442.447 119.826C440.012 120.765 437.492 121.667 434.927 122.414C425.682 124.707 414.963 126.23 406.768 121.019C403.926 119.212 401.285 116.541 400.384 113.215C399.442 109.741 400.44 105.965 401.832 102.753C404.098 97.5271 407.82 93.0173 412.256 89.479C421.801 81.8617 435.454 78.1704 447.431 81.1185C453.61 82.6383 460.826 86.2111 462.222 93.0321C463.562 99.5778 460.633 106.573 456.294 111.39ZM439.972 126.196C439.578 136.063 432.075 142.467 424.037 146.954C416.058 151.409 405.421 155.433 396.269 152.577C395.837 152.443 395.415 152.288 394.999 152.12C395.043 152.038 395.088 151.953 395.124 151.858C397.489 145.299 400.983 139.299 405.41 134.021C405.975 139.022 408.326 143.635 410.271 148.442C411.084 150.454 414.392 149.575 413.566 147.532C411.321 141.984 408.058 136.522 408.743 130.37C409.877 129.225 411.051 128.114 412.278 127.056C412.289 127.046 412.293 127.037 412.304 127.028C412.966 127.18 413.637 127.306 414.314 127.416C414.38 127.572 414.461 127.727 414.578 127.874C417.48 131.5 421.477 134.223 425.11 137.058C426.824 138.398 429.261 135.995 427.526 134.642C424.733 132.462 421.73 130.346 419.169 127.836C421.354 127.883 423.571 127.758 425.775 127.516C425.94 127.553 426.116 127.574 426.319 127.556C429.425 127.273 432.506 126.623 435.532 125.767C436.91 125.437 438.252 125.093 439.541 124.739C439.714 124.693 439.861 124.621 439.996 124.538C440.01 124.923 440.035 125.314 440.063 125.707C440.016 125.856 439.979 126.016 439.972 126.196ZM384.345 133.441C385.806 125.758 390.406 118.344 397.082 114.18C397.526 115.679 398.221 117.148 399.226 118.565C399.242 118.588 399.262 118.607 399.278 118.632C398.28 118.342 397.287 118.051 396.288 117.769C394.167 117.168 393.263 120.463 395.379 121.063C397.887 121.775 400.382 122.541 402.911 123.177C403.212 123.253 403.485 123.246 403.735 123.186C405.188 124.269 406.757 125.133 408.408 125.807C401.908 128.11 395.59 129.442 388.695 129.894C386.512 130.036 386.496 133.456 388.695 133.311C393.862 132.973 398.751 132.179 403.61 130.873C398.579 136.644 394.652 143.293 391.979 150.547C386.41 146.905 383.058 140.195 384.345 133.441ZM381.354 126.221C377.869 126.696 374.372 127.175 370.969 128.094C369.805 128.407 368.698 128.809 367.609 129.251C368.283 127.83 368.99 126.423 369.727 125.035C369.825 124.851 369.877 124.67 369.908 124.494C374.429 125.431 379.514 124.416 383.077 121.802C385.562 119.978 387.233 117.243 387.764 114.386C388.99 114.269 390.219 114.183 391.447 114.122C387.684 117.446 384.594 121.833 382.722 126.579C382.364 126.302 381.899 126.147 381.354 126.221ZM369.316 105.574C373.446 103.565 378.212 104.339 381.672 107.133C381.763 107.272 381.873 107.405 382.024 107.527C386.569 111.205 384.384 117.343 379.827 119.833C375.571 122.158 369.046 122.136 365.506 118.48C361.185 114.017 364.452 107.942 369.316 105.574ZM396.696 90.3518C399.467 79.9901 402.237 69.6271 405.008 59.2642C405.141 59.042 405.224 58.7679 405.226 58.4432C405.277 58.2555 405.326 58.0691 405.377 57.8827C405.398 57.8049 405.404 57.7308 405.412 57.6555C405.629 57.2086 406.017 56.8049 406.479 56.7592C407.131 56.6938 408.019 57.4728 408.305 58.0642C405.978 70.7136 403.552 83.3432 401.025 95.9518C401.003 96.0679 400.994 96.179 400.992 96.2876C400.104 93.9938 398.585 91.9864 396.696 90.3518ZM413.679 55.7173C414.436 55.4889 415.382 55.6815 415.729 56.3938C414.117 66.3728 412.309 76.3148 410.293 86.2197C410.254 86.4136 410.254 86.5938 410.271 86.7679C408.632 88.0963 406.984 89.6247 405.421 91.3062C407.64 80.1037 409.785 68.8864 411.846 57.6555C412.187 56.7938 412.747 56 413.679 55.7173ZM422.015 56.879C422.922 57.2197 423.427 58.1629 423.764 59.0543C421.81 66.4012 420.016 73.7852 418.394 81.2123C418.363 81.3568 418.352 81.495 418.352 81.6259C416.929 82.3308 415.548 83.1037 414.222 83.9358C415.903 75.4876 417.437 67.0136 418.824 58.5123C418.962 58.4345 419.1 58.3407 419.229 58.2111C419.961 57.4802 420.867 56.4494 422.015 56.879ZM432.132 60.9012C430.817 66.521 429.327 72.0901 427.647 77.6123C427.584 77.8197 427.569 78.0086 427.573 78.1889C425.74 78.6667 423.937 79.2518 422.179 79.9395C423.599 73.5741 425.141 67.2395 426.804 60.9346C426.873 60.879 426.943 60.8284 427.01 60.7617C427.8 59.9494 428.799 58.8654 430.037 58.9284C431.138 58.9839 431.646 60.0358 432.132 60.9012ZM358.132 101.164C352.814 103.283 347.556 101.521 346.222 95.6802C345.154 91.0099 347.711 86.7494 351.859 85.063C356.172 83.621 361.194 83.621 363.685 88.1C366.494 93.1395 363.127 99.1753 358.132 101.164ZM309.173 85.5444C309.14 85.4679 309.114 85.3926 309.071 85.3173C309.045 85.2728 309.015 85.2321 308.989 85.1901C308.884 84.9938 308.784 84.7988 308.682 84.6025C308.566 82.4494 311.288 80.8444 312.838 82.8827C312.911 82.9802 312.994 83.0654 313.078 83.1407C316.421 89.6284 319.685 96.1543 322.864 102.725C322.885 102.769 322.914 102.802 322.938 102.842C321.679 104.312 320.78 106.032 320.268 107.859C316.696 100.359 313.033 92.9012 309.173 85.5444ZM318.942 79.5518C319.067 79.7543 319.215 79.9111 319.375 80.0333C322.656 86.3222 325.856 92.6481 328.984 99.0136C328.643 99.0889 328.303 99.1642 327.967 99.2617C327.764 99.3197 327.6 99.4086 327.453 99.5111C327.311 99.5432 327.166 99.5876 327.019 99.6605C326.512 99.9136 326.031 100.199 325.575 100.504C322.536 94.2383 319.422 88.0111 316.236 81.8197C316.275 81.6012 316.278 81.3654 316.225 81.1099C315.892 79.537 317.894 77.8457 318.942 79.5518ZM343.399 107.931C346.45 113.107 343.775 119.375 338.801 122.086C334.264 124.027 327.631 120.999 325.001 117.29C321.388 112.193 323.257 105.356 328.743 102.612C328.768 102.6 328.787 102.581 328.81 102.568C328.832 102.564 328.853 102.564 328.875 102.557C334.35 100.967 340.431 102.889 343.399 107.931ZM296.299 90.821C297.042 90.4321 298.224 90.8321 298.84 91.3753C298.956 91.5308 299.093 91.6506 299.245 91.7444C299.431 91.8864 299.625 91.9741 299.824 92.0185C301.194 94.5568 302.54 97.1086 303.857 99.6765C301.294 97.5 298.424 95.6444 295.237 94.179C295.34 93.858 295.362 93.5025 295.312 93.1457C295.217 92.4518 295.648 91.1642 296.299 90.821ZM486.236 75.7987C476.915 74.4086 468.296 78.9802 461.267 84.6852C459.309 82.6802 456.852 81.0629 454.089 79.8148C447.01 76.616 438.99 76.0197 431.278 77.3815C432.874 72.0481 434.306 66.6728 435.564 61.2481C435.682 60.7321 435.579 60.2901 435.351 59.942C435.329 59.716 435.254 59.4802 435.119 59.2395C434.082 57.4173 432.769 55.7395 430.529 55.5259C429.078 55.3864 427.789 55.8555 426.646 56.6074C426.525 56.5407 426.399 56.4852 426.267 56.4469C425.51 55.1407 424.445 54.0531 422.922 53.5839C421.238 53.0629 419.756 53.5234 418.45 54.4111C417.54 53.016 415.983 52.1247 414.133 52.1975C412.278 52.2716 410.775 53.2234 409.722 54.5852C408.721 53.7642 407.482 53.2568 406.205 53.3704C403.929 53.5728 402.037 55.6728 401.832 57.9025C399.129 68.0185 396.422 78.1346 393.72 88.2518C392.351 87.4679 390.889 86.8481 389.394 86.4111C382.087 84.2852 374.215 86.042 367.958 90.1555C367.808 89.2568 367.547 88.358 367.162 87.4667C364.226 80.6753 356.815 79.6234 350.462 81.9346C350.224 82.0222 350.027 82.1444 349.868 82.2889C345.041 84.5938 341.896 89.442 342.687 95.2247C343.654 102.317 349.189 106.17 355.717 105.296C354.071 109.065 352.908 113.005 351.968 117.032C350.853 121.795 349.866 126.539 347.52 130.831C346.31 128.077 345.088 125.328 343.853 122.585C347.908 118.549 349.467 112.189 346.71 106.86C343.946 101.516 338.346 98.5975 332.589 98.6123C329.171 91.6309 325.662 84.6913 322.064 77.8012C321.871 77.4271 321.603 77.1913 321.31 77.0629C319.908 75.5518 317.64 75.0136 315.698 75.9037C314.34 76.5271 313.454 77.6876 313.052 79.0234C311.619 78.4284 309.99 78.3864 308.452 79.1185C306.979 79.821 305.969 81.1271 305.513 82.6185C304.327 82.2444 303.045 82.1802 301.906 82.5086C299.596 83.1765 298.554 85.2321 298.324 87.4197C297.087 87.1568 295.775 87.2506 294.721 87.8025C292.896 88.7543 292.019 90.8543 291.957 92.8543C284.383 90.2271 275.851 90.4518 269.278 95.4271C263.452 99.8346 258.742 106.856 258.069 114.251C257.253 123.268 263.121 130.099 269.756 135.272C271.472 136.609 273.906 134.206 272.173 132.856C265.466 127.625 259.52 120.674 262.024 111.543C264.453 102.67 272.42 94.7284 281.906 94.5654C291.496 94.4037 300.482 99.9704 306.503 107.107C312.853 114.636 315.973 124.369 317.411 133.974C317.733 136.141 321.027 135.22 320.706 133.067C319.519 125.128 316.973 117.217 312.863 110.404C312.856 110.167 312.798 109.917 312.673 109.665C309.122 102.448 305.52 95.2506 301.643 88.2C301.646 87.0839 301.973 85.9555 303.13 85.7259C303.929 85.5679 305.004 85.9333 305.675 86.5247C305.784 86.7025 305.914 86.8543 306.064 86.9654C314.204 102.446 321.41 118.389 328.909 134.185C329.852 136.17 332.8 134.437 331.862 132.459C330.526 129.652 329.203 126.835 327.88 124.021C329.678 124.965 331.657 125.638 333.64 125.927C334.788 128.501 335.922 131.081 337.046 133.668C337.92 135.68 340.864 133.941 339.996 131.943C339.131 129.949 338.252 127.965 337.373 125.978C338.05 125.891 338.71 125.747 339.351 125.539C339.5 125.514 339.65 125.473 339.8 125.404C339.874 125.37 339.946 125.333 340.019 125.298C340.393 125.146 340.758 124.977 341.111 124.779C342.617 128.127 344.111 131.485 345.579 134.851C346.192 136.257 347.809 135.83 348.435 134.764C348.884 134.709 349.316 134.475 349.627 133.988C355.42 124.926 355.116 113.484 360.11 103.999C364.059 102.11 367.068 98.4432 367.892 94.2938C368.022 94.2407 368.158 94.1741 368.292 94.0741C373.512 90.1938 380.105 88.0025 386.627 89.2568C392.484 90.3827 398.596 94.6765 398.435 101.209C398.432 101.309 398.443 101.4 398.454 101.491C397.124 104.459 396.367 107.537 396.488 110.56C396.422 110.595 396.356 110.63 396.292 110.667C396.1 110.594 395.882 110.549 395.631 110.556C393.027 110.625 390.429 110.716 387.833 110.963C387.584 109.316 386.904 107.732 385.731 106.364C385.667 106.257 385.589 106.151 385.498 106.048C385.085 105.594 384.647 105.183 384.193 104.791C387.068 101.73 390.115 98.8531 393.343 96.1679C395.037 94.7617 392.606 92.3543 390.927 93.7518C387.622 96.4963 384.508 99.4444 381.574 102.584C381.494 102.668 381.432 102.758 381.374 102.847C378.854 101.511 376.016 100.917 373.203 101.111C373.296 100.836 373.321 100.52 373.236 100.165C372.887 98.7086 372.48 97.2691 372.015 95.8432C371.336 93.763 368.033 94.6518 368.72 96.7531C369.184 98.1765 369.592 99.616 369.941 101.073C369.994 101.296 370.083 101.478 370.19 101.636C368.731 102.048 367.312 102.675 365.998 103.557C360.079 107.512 357.794 115.415 363.089 120.896C364.131 121.974 365.366 122.807 366.712 123.436C365.712 125.322 364.785 127.237 363.909 129.178C363.521 125.042 361.336 120.674 359.487 117.331C358.424 115.404 355.471 117.126 356.536 119.054C358.337 122.314 361.242 127.696 360.49 131.578C360.399 132.041 360.49 132.443 360.682 132.775C360.104 134.021 360.978 135.815 362.537 135.167C365.664 133.872 368.584 132.277 371.877 131.389C375.099 130.52 378.408 130.046 381.71 129.591C379.943 136.019 380.517 142.814 384.725 148.353C395.789 162.922 416.843 155.998 429.564 147.59C435.277 143.812 440.001 138.967 442.154 132.77C443.077 134.135 444.356 135.2 446.136 135.712C448.254 136.317 449.158 133.022 447.043 132.415C443.573 131.42 443.341 126.272 443.394 123.106C448.663 121.073 453.975 118.701 457.967 114.599C458.505 118.91 458.504 123.226 458.005 127.56C457.331 129.109 456.674 130.668 456.053 132.241C455.248 134.288 458.552 135.175 459.35 133.151C459.814 131.968 460.304 130.798 460.804 129.631C461.003 129.431 461.153 129.178 461.241 128.873C461.443 128.799 461.646 128.684 461.835 128.512C464.983 125.649 469.475 124.637 473.546 123.847C477.911 123.001 482.34 122.819 486.771 123.099C488.967 123.235 488.957 119.817 486.771 119.681C479.71 119.237 470.646 119.656 463.831 123.106C465.578 119.606 467.487 116.191 469.558 112.872C469.699 112.789 469.836 112.689 469.968 112.547C472.226 110.109 475.94 109.904 479.04 109.41C483.088 108.764 487.153 108.244 491.23 107.817C493.394 107.588 493.419 104.168 491.23 104.4C486.48 104.898 481.748 105.519 477.037 106.293C475.822 106.491 474.605 106.694 473.426 106.985C477.093 101.712 481.305 96.7062 486.884 93.4839C488.788 92.3852 487.071 89.4309 485.159 90.5346C479.745 93.6605 475.535 98.3123 471.862 103.332C472.731 98.0432 472.653 92.6296 471.588 87.2234C471.161 85.0679 467.867 85.9802 468.29 88.1309C469.927 96.4346 469.004 105.002 465.579 112.747C465.548 112.814 465.535 112.878 465.515 112.943C464.195 115.143 462.942 117.381 461.763 119.658C461.682 116.799 461.38 113.946 460.882 111.094C464.137 106.526 466.153 101 465.914 95.3716C465.782 92.2852 464.869 89.6222 463.393 87.3395C470.448 81.5753 479.894 76.6778 489.082 80.0111C496.058 82.5444 500.362 89.3778 501.874 96.3679C505.651 113.812 491.422 129.181 475.016 132.428C472.861 132.856 473.775 136.148 475.927 135.723C490.787 132.781 504.071 120.757 505.737 105.252C507.104 92.5592 499.836 77.8308 486.236 75.7987Z" fill="#3A1E16"/>
</svg>
