<svg width="521" height="531" viewBox="0 0 521 531" fill="none" xmlns="http://www.w3.org/2000/svg">
<path d="M260.495 234.419C272.581 234.419 282.887 225.151 286.715 215.883H234.285C238.104 225.151 248.41 234.419 260.495 234.419Z" fill="white"/>
<path d="M338.181 252.956H177.082H75.1324H62.3238L25.2512 327.101H301.108L338.181 252.956Z" fill="#21D8D8"/>
<path d="M306.836 345.637H65.8643V481.953C65.8643 497.282 78.3392 512.464 93.6687 512.464H158.546V407.808C158.546 404.592 160.214 401.617 162.939 399.921C165.673 398.215 169.084 398.085 171.957 399.513L186.35 406.705L200.734 399.513C203.339 398.206 206.406 398.206 209.029 399.513L223.423 406.705L237.816 399.513C240.689 398.085 244.1 398.215 246.834 399.921C249.559 401.617 251.227 404.592 251.227 407.808V512.464H343.909V280.241L315.122 339.159C313.556 342.3 310.358 345.637 306.836 345.637Z" fill="#21D8D8"/>
<path d="M219.28 425.362L204.886 418.169L190.502 425.362C187.898 426.668 184.821 426.668 182.207 425.362L177.082 422.804V512.464H232.691V422.804L227.566 425.362C224.971 426.668 221.903 426.668 219.28 425.362Z" fill="#EE8B26"/>
<path d="M391.223 339.159L362.445 280.241V512.464H427.322C442.652 512.464 455.127 497.282 455.127 481.953V345.637H399.518C396.005 345.637 392.808 342.3 391.223 339.159Z" fill="#21D8D8"/>
<path d="M214.155 206.615C214.155 201.49 218.307 197.347 223.423 197.347H297.568C302.684 197.347 306.836 201.49 306.836 206.615C306.836 217.088 303.212 225.151 297.327 234.419H334.641V157.568C334.641 142.229 322.166 132.47 306.836 132.47H214.155C198.825 132.47 186.35 142.229 186.35 157.568V234.419H223.664C217.788 225.151 214.155 217.088 214.155 206.615ZM288.3 157.568C293.416 157.568 297.568 161.72 297.568 166.836C297.568 171.952 293.416 176.104 288.3 176.104C283.184 176.104 279.032 171.952 279.032 166.836C279.032 161.711 283.184 157.568 288.3 157.568ZM232.691 157.568C237.807 157.568 241.959 161.72 241.959 166.836C241.959 171.952 237.807 176.104 232.691 176.104C227.575 176.104 223.423 171.952 223.423 166.836C223.423 161.711 227.575 157.568 232.691 157.568Z" fill="#F8CF26"/>
<path d="M445.858 252.956H368.173L405.245 327.101H495.74L458.667 252.956H445.858Z" fill="#21D8D8"/>
<path d="M472.69 238.182C471.123 235.049 467.917 234.419 464.404 234.419H445.868H353.186V157.568C353.186 132.015 332.398 113.933 306.845 113.933H214.164C188.612 113.933 167.823 132.015 167.823 157.568V234.419H75.1417H56.6054C53.0927 234.419 49.886 235.049 48.3104 238.182L1.96963 330.187C0.533063 333.06 0.690622 337.481 2.37743 340.215C4.06423 342.959 7.04857 345.637 10.2646 345.637H47.3372V481.953C47.3372 507.496 68.1257 531 93.678 531H167.823H241.968H353.186H427.331C452.884 531 473.672 507.496 473.672 481.953V345.637H510.745C513.961 345.637 516.936 342.616 518.632 339.882C520.319 337.147 520.476 333.737 519.04 330.864L472.69 238.182ZM186.35 157.568C186.35 142.229 198.825 132.47 214.155 132.47H306.836C322.166 132.47 334.641 142.229 334.641 157.568V234.419H297.327C303.212 225.151 306.836 217.088 306.836 206.615C306.836 201.49 302.684 197.347 297.568 197.347H223.423C218.307 197.347 214.155 201.49 214.155 206.615C214.155 217.088 217.778 225.151 223.664 234.419H186.35V157.568ZM234.276 215.883H286.706C282.878 225.151 272.572 234.419 260.486 234.419C248.41 234.419 238.104 225.151 234.276 215.883ZM62.3238 252.956H75.1324H177.082H338.181L301.108 327.101H25.2512L62.3238 252.956ZM65.8642 481.953V345.637H306.836C310.349 345.637 313.556 342.301 315.122 339.159L343.909 280.241V512.464H251.227V407.808C251.227 404.592 249.559 401.617 246.834 399.921C244.1 398.215 240.68 398.085 237.816 399.513L223.423 406.705L209.029 399.513C206.416 398.206 203.348 398.206 200.734 399.513L186.35 406.705L171.957 399.513C169.084 398.085 165.673 398.215 162.939 399.921C160.214 401.617 158.546 404.592 158.546 407.808V512.464H93.6687C78.3392 512.464 65.8642 497.282 65.8642 481.953ZM177.082 512.464V422.804L182.207 425.362C184.812 426.668 187.889 426.668 190.502 425.362L204.886 418.17L219.28 425.362C221.894 426.668 224.961 426.668 227.575 425.362L232.691 422.804V512.464H177.082ZM455.126 481.953C455.126 497.282 442.652 512.464 427.322 512.464H362.445V280.241L391.223 339.159C392.798 342.301 396.005 345.637 399.518 345.637H455.126V481.953ZM405.245 327.101L368.173 252.956H445.858H458.667L495.74 327.101H405.245Z" fill="#373737"/>
<path d="M232.691 176.104C237.81 176.104 241.959 171.955 241.959 166.836C241.959 161.717 237.81 157.568 232.691 157.568C227.572 157.568 223.423 161.717 223.423 166.836C223.423 171.955 227.572 176.104 232.691 176.104Z" fill="#373737"/>
<path d="M288.3 176.104C293.419 176.104 297.568 171.955 297.568 166.836C297.568 161.717 293.419 157.568 288.3 157.568C283.181 157.568 279.032 161.717 279.032 166.836C279.032 171.955 283.181 176.104 288.3 176.104Z" fill="#373737"/>
<path d="M75.1325 215.883H93.6688C93.6688 160.274 52.0919 120.495 0.987305 120.495V139.031C41.8691 139.031 75.1325 169.542 75.1325 215.883Z" fill="#373737"/>
<path d="M112.205 132.47H130.741C130.741 58.3244 76.6895 9.26807 10.2554 9.26807V27.8044C66.4667 27.8044 112.205 67.5925 112.205 132.47Z" fill="#373737"/>
<path d="M214.155 95.397H232.691C232.691 49.0562 195.266 9.27734 149.278 9.27734V27.8136C185.062 27.8044 214.155 58.3244 214.155 95.397Z" fill="#373737"/>
<path d="M427.322 215.883H445.858C445.858 169.542 479.122 139.031 520.004 139.031V120.495C468.899 120.495 427.322 160.274 427.322 215.883Z" fill="#373737"/>
<path d="M510.735 27.8044V9.26807C444.292 9.26807 390.25 58.3244 390.25 132.47H408.786C408.786 67.5925 454.533 27.8044 510.735 27.8044Z" fill="#373737"/>
<path d="M371.713 27.8044V9.26807C325.725 9.26807 288.3 49.0562 288.3 95.397H306.836C306.836 58.3244 335.938 27.8044 371.713 27.8044Z" fill="#373737"/>
<path d="M130.741 148.3H112.205V166.836H130.741V148.3Z" fill="#373737"/>
<path d="M130.741 185.372H112.205V203.909H130.741V185.372Z" fill="#373737"/>
<path d="M408.786 148.3H390.25V166.836H408.786V148.3Z" fill="#373737"/>
<path d="M408.786 185.372H390.25V203.909H408.786V185.372Z" fill="#373737"/>
<path d="M130.741 9.26807H112.205V27.8044H130.741V9.26807Z" fill="#373737"/>
<path d="M408.786 9.26807H390.25V27.8044H408.786V9.26807Z" fill="#373737"/>
<path d="M269.764 74.1545H251.227V92.6908H269.764V74.1545Z" fill="#373737"/>
<path d="M269.764 37.0725H251.227V55.6088H269.764V37.0725Z" fill="#373737"/>
<path d="M269.764 0H251.227V18.5363H269.764V0Z" fill="#373737"/>
<path d="M177.082 74.1545H158.546V92.6908H177.082V74.1545Z" fill="#373737"/>
<path d="M362.445 74.1545H343.909V92.6908H362.445V74.1545Z" fill="#373737"/>
</svg>
