<svg width="578" height="486" viewBox="0 0 578 486" fill="none" xmlns="http://www.w3.org/2000/svg">
<path d="M382.225 205.712V188.753L391.38 188.389C387.148 83.0917 301.231 0.61377 195.775 0.61377C87.8279 0.615758 0 88.4337 0 196.388C0 301.193 82.8499 386.773 186.451 391.685V457.42C186.451 472.839 198.998 485.388 214.42 485.388H298.322C313.741 485.388 326.29 472.841 326.29 457.42V298.935C326.29 283.516 313.743 270.967 298.322 270.967H294.117C300.094 250.635 303.449 228.782 304.177 205.71H382.225V205.712ZM135.018 297.287C140.08 304.54 148.453 309.313 157.943 309.313C171.424 309.313 182.694 299.729 185.323 287.022C185.697 287.004 186.069 286.985 186.443 286.967V298.937V366.525C171.489 356.354 146.85 335.49 128.68 299.757C130.786 298.899 132.892 298.058 135.018 297.287ZM148.62 281.342C148.62 276.205 152.796 272.019 157.943 272.019C163.09 272.019 167.267 276.205 167.267 281.342C167.267 286.479 163.09 290.666 157.943 290.666C152.796 290.668 148.62 286.481 148.62 281.342ZM159.807 369.834C129.555 363.57 102.213 349.465 79.7254 329.887C89.4865 321.413 100.188 314.066 111.525 307.915C125.91 336.57 144.238 356.595 159.807 369.834ZM186.451 268.322C185.184 268.377 183.915 268.425 182.646 268.508C177.977 259.559 168.719 253.378 157.941 253.378C143.248 253.378 131.287 264.807 130.188 279.228C127.111 280.328 124.062 281.503 121.033 282.762C112.69 261.572 106.853 236.093 105.846 205.722H186.451V268.322ZM105.922 187.067C106.835 159.08 111.888 133.331 121.005 110.082C141.617 118.612 163.711 123.395 186.449 124.467V187.069H105.922V187.067ZM205.096 26.2515C220.078 36.3945 244.791 57.2213 262.988 93.0477C244.735 100.544 225.195 104.776 205.096 105.82V26.2515ZM231.525 22.8765C261.908 29.0478 289.334 43.051 311.867 62.5911C301.919 71.2603 291.227 78.8038 279.836 84.9751C265.385 56.205 247.066 36.116 231.525 22.8765ZM130.217 57.4182C130.217 52.2811 134.394 48.0946 139.541 48.0946C144.688 48.0946 148.864 52.2811 148.864 57.4182C148.864 62.5553 144.688 66.7417 139.541 66.7417C134.394 66.7397 130.217 62.5632 130.217 57.4182ZM150.579 31.7426C147.186 30.2789 143.465 29.4595 139.541 29.4595C138.393 29.4595 137.313 29.6643 136.204 29.7956C144.016 26.9894 151.997 24.5372 160.264 22.8507C157.122 25.5157 153.888 28.4989 150.579 31.7426ZM111.572 57.4182C111.572 63.8599 113.855 69.7329 117.529 74.4682C115.524 77.9268 113.567 81.4231 111.757 85.003C100.411 78.8695 89.765 71.3736 79.8547 62.7601C92.6726 51.6287 107.078 42.3251 122.72 35.2111C115.991 40.3204 111.572 48.3273 111.572 57.4182ZM133.201 84.6012C135.243 85.0765 137.349 85.3928 139.541 85.3928C154.96 85.3928 167.51 72.8454 167.51 57.4261C167.51 52.7365 166.243 48.3731 164.19 44.4869C172.488 36.4601 180.29 30.4101 186.453 26.2436V105.83C166.362 104.786 146.822 100.553 128.569 93.0576C130.022 90.1778 131.608 87.3796 133.201 84.6012ZM205.096 124.465C227.834 123.393 249.92 118.61 270.532 110.08C272.686 115.571 274.653 121.36 276.433 127.438C268.929 132.464 263.969 141.002 263.969 150.689C263.969 163.778 273.05 174.714 285.215 177.743C285.42 180.82 285.589 183.914 285.691 187.057H205.096V124.465ZM291.928 160.021C286.78 160.021 282.604 155.834 282.604 150.697C282.604 145.56 286.78 141.374 291.928 141.374C297.073 141.374 301.251 145.56 301.251 150.697C301.251 155.832 297.073 160.021 291.928 160.021ZM303.767 175.945C313.267 171.47 319.904 161.878 319.904 150.699C319.904 136.175 308.727 124.336 294.547 122.993C292.431 115.647 290.072 108.684 287.461 102.111C300.996 94.9132 313.639 85.9278 325.338 75.5601C352.793 104.983 370.346 143.792 372.584 187.067H304.342C304.214 183.31 304.018 179.617 303.767 175.945ZM66.4422 75.755C78.0767 86.0371 90.652 94.9589 104.106 102.111C93.8599 127.804 88.2296 156.228 87.2889 187.067H19.1204C21.3678 144.136 38.8852 105.279 66.4422 75.755ZM19.1204 205.712H87.2133C88.2296 239.347 94.6435 267.492 103.891 290.827C90.4292 298.014 77.7983 306.777 66.3308 316.892C38.8375 287.376 21.3678 248.577 19.1204 205.712ZM307.645 298.937V457.422C307.645 462.559 303.469 466.745 298.322 466.745H214.418C209.271 466.745 205.094 462.559 205.094 457.422V382.841V298.937C205.094 293.8 209.271 289.614 214.418 289.614H298.322C303.469 289.614 307.645 293.798 307.645 298.937ZM274.625 270.969H214.42C211.138 270.969 208.024 271.639 205.096 272.685V205.712H285.531C284.758 228.999 281.102 250.86 274.625 270.969Z" fill="#333333"/>
<path d="M289 429.453H223.741V448.098H289V429.453Z" fill="#333333"/>
<path d="M527.071 280.292H458.727C452.528 280.292 447.484 275.249 447.484 269.049V210.374C447.484 187.244 428.662 168.422 405.532 168.422C382.403 168.422 363.58 187.244 363.58 210.374V258.403C363.58 279.66 347.089 296.943 326.252 298.611C326.262 298.722 326.29 298.826 326.29 298.937V457.422H337.449C344.852 457.422 351.713 461.105 355.824 467.256C363.393 478.602 376.064 485.388 389.711 485.388H527.071C555.159 485.388 578 462.549 578 434.459V331.222C577.998 303.132 555.159 280.292 527.071 280.292Z" fill="#FFD78E"/>
</svg>
